# author: headus 3D tools
#  using: ply2obj v1.8
#   from: uvlayout v2.09.04
mtllib Turret1.mtl
# 427 vertices
v 1.099000 2.349000 -4.247000
v 1.099000 2.204644 -4.351881
v 1.099000 2.026210 -4.351881
v 1.099000 1.881854 -4.247000
v 1.099000 1.826714 -4.077298
v 1.099000 1.881854 -3.907598
v 1.099000 2.026210 -3.802716
v 1.099000 2.204644 -3.802716
v 1.099000 2.349000 -3.907598
v 1.099000 2.404138 -4.077298
v 1.031924 2.349000 -4.247000
v 1.031924 2.204644 -4.351881
v 1.031924 2.026210 -4.351881
v 1.031924 1.881854 -4.247000
v 1.031924 1.826714 -4.077298
v 1.031924 1.881854 -3.907598
v 1.031924 2.026210 -3.802716
v 1.031924 2.204644 -3.802716
v 1.031924 2.349000 -3.907598
v 1.031924 2.404138 -4.077298
v 1.099000 2.115427 -4.077298
v 1.031924 2.115427 -4.077298
v -1.098098 2.349000 -4.247000
v -1.098098 2.204644 -4.351881
v -1.098098 2.026210 -4.351881
v -1.098098 1.881854 -4.247000
v -1.098098 1.826714 -4.077298
v -1.098098 1.881854 -3.907598
v -1.098098 2.026210 -3.802716
v -1.098098 2.204644 -3.802716
v -1.098098 2.349000 -3.907598
v -1.098098 2.404138 -4.077298
v -1.031021 2.349000 -4.247000
v -1.031021 2.204644 -4.351881
v -1.031021 2.026210 -4.351881
v -1.031021 1.881854 -4.247000
v -1.031021 1.826714 -4.077298
v -1.031021 1.881854 -3.907598
v -1.031021 2.026210 -3.802716
v -1.031021 2.204644 -3.802716
v -1.031021 2.349000 -3.907598
v -1.031021 2.404138 -4.077298
v -1.098098 2.115427 -4.077298
v -1.031021 2.115427 -4.077298
v -0.164111 2.311235 1.656490
v -0.265815 2.180416 1.656490
v -0.265815 2.018713 1.656490
v -0.164111 1.887894 1.656490
v 0.000451 1.837924 1.656490
v 0.165013 1.887894 1.656490
v 0.266720 2.018713 1.656490
v 0.266720 2.180416 1.656490
v 0.165013 2.311235 1.656490
v 0.000451 2.361204 1.656490
v -0.164111 2.311235 2.085485
v -0.265815 2.180416 2.085485
v -0.265815 2.018713 2.085485
v -0.164111 1.887894 2.085485
v 0.000451 1.837924 2.085485
v 0.165013 1.887894 2.085485
v 0.266720 2.018713 2.085485
v 0.266720 2.180416 2.085485
v 0.165013 2.311235 2.085485
v 0.000451 2.361204 2.085485
v 0.000451 2.099565 1.656490
v -0.097491 2.225545 2.085485
v -0.158023 2.147686 2.085485
v -0.158023 2.051445 2.085485
v -0.097491 1.973585 2.085485
v 0.000451 1.943846 2.085485
v 0.098394 1.973585 2.085485
v 0.158926 2.051445 2.085485
v 0.158926 2.147686 2.085485
v 0.098394 2.225545 2.085485
v 0.000451 2.255285 2.085485
v -0.097491 2.225545 1.727960
v -0.158023 2.147686 1.727960
v 0.000451 2.099565 1.727960
v -0.158023 2.051445 1.727960
v -0.097491 1.973585 1.727960
v 0.000451 1.943846 1.727960
v 0.098394 1.973585 1.727960
v 0.158926 2.051445 1.727960
v 0.158926 2.147686 1.727960
v 0.098394 2.225545 1.727960
v 0.000451 2.255285 1.727960
v -0.179829 2.331454 -3.142491
v -0.291249 2.188138 -3.142491
v -0.291249 2.010992 -3.142491
v -0.179829 1.867677 -3.142491
v 0.000451 1.812934 -3.142491
v 0.180731 1.867677 -3.142491
v 0.292151 2.010992 -3.142491
v 0.292151 2.188139 -3.142491
v 0.180731 2.331454 -3.142491
v 0.000451 2.386194 -3.142491
v -0.179829 2.331454 -1.667029
v -0.291249 2.188138 -1.667029
v -0.291249 2.010992 -1.667029
v -0.179829 1.867677 -1.667029
v 0.000451 1.812934 -1.667029
v 0.180731 1.867677 -1.667029
v 0.292151 2.010992 -1.667029
v 0.292151 2.188139 -1.667029
v 0.180731 2.331454 -1.667029
v 0.000451 2.386194 -1.667029
v 0.000451 2.099565 -3.142491
v 0.000451 2.099565 -1.667029
v -0.137644 2.277193 -4.374198
v -0.222992 2.167414 -4.374198
v -0.222992 2.031717 -4.374198
v -0.137644 1.921936 -4.374198
v 0.000451 1.880005 -4.374198
v 0.138549 1.921936 -4.374198
v 0.223895 2.031717 -4.374198
v 0.223895 2.167414 -4.374198
v 0.138549 2.277193 -4.374198
v 0.000451 2.319126 -4.374198
v -0.137644 2.277193 2.652782
v -0.222992 2.167414 2.652782
v -0.222992 2.031717 2.652782
v -0.137644 1.921936 2.652782
v 0.000451 1.880005 2.652782
v 0.138549 1.921936 2.652782
v 0.223895 2.031717 2.652782
v 0.223895 2.167414 2.652782
v 0.138549 2.277193 2.652782
v 0.000451 2.319126 2.652782
v 0.000451 2.099565 -4.374198
v 0.000451 2.099565 2.652782
v 0.684462 2.236359 -4.257639
v 0.684462 2.135835 -4.330673
v 0.684462 2.011582 -4.330673
v 0.684462 1.911058 -4.257639
v 0.684462 1.872661 -4.139468
v 0.684462 1.911058 -4.021296
v 0.684462 2.011582 -3.948260
v 0.684462 2.135835 -3.948260
v 0.684462 2.236359 -4.021296
v 0.684462 2.274757 -4.139468
v 0.616687 2.236359 -4.257639
v 0.616687 2.135835 -4.330673
v 0.616687 2.011582 -4.330673
v 0.616687 1.911058 -4.257639
v 0.616687 1.872661 -4.139468
v 0.616687 1.911058 -4.021296
v 0.616687 2.011582 -3.948260
v 0.616687 2.135835 -3.948260
v 0.616687 2.236359 -4.021296
v 0.616687 2.274757 -4.139468
v 0.684462 2.073709 -4.139468
v 0.616687 2.073709 -4.139468
v -0.683559 2.236359 -4.257639
v -0.683559 2.135835 -4.330673
v -0.683559 2.011582 -4.330673
v -0.683559 1.911058 -4.257639
v -0.683559 1.872661 -4.139468
v -0.683559 1.911058 -4.021296
v -0.683559 2.011582 -3.948260
v -0.683559 2.135835 -3.948260
v -0.683559 2.236359 -4.021296
v -0.683559 2.274757 -4.139468
v -0.615785 2.236359 -4.257639
v -0.615785 2.135835 -4.330673
v -0.615785 2.011582 -4.330673
v -0.615785 1.911058 -4.257639
v -0.615785 1.872661 -4.139468
v -0.615785 1.911058 -4.021296
v -0.615785 2.011582 -3.948260
v -0.615785 2.135835 -3.948260
v -0.615785 2.236359 -4.021296
v -0.615785 2.274757 -4.139468
v -0.683559 2.073709 -4.139468
v -0.615785 2.073709 -4.139468
v 0.512025 0.971856 -4.324840
v 0.354473 0.971856 -4.522406
v 0.126799 0.971856 -4.632047
v -0.125897 0.971856 -4.632047
v -0.353569 0.971856 -4.522406
v -0.511122 0.971856 -4.324840
v -0.567353 0.971856 -4.078481
v -0.511122 0.971856 -3.832120
v -0.353569 0.971856 -3.634554
v -0.125897 0.971856 -3.524913
v 0.126799 0.971856 -3.524913
v 0.354473 0.971856 -3.634554
v 0.512025 0.971856 -3.832120
v 0.568257 0.971856 -4.078481
v 0.512025 1.660098 -4.324840
v 0.354473 1.660098 -4.522406
v 0.126799 1.660098 -4.632047
v -0.125897 1.660098 -4.632047
v -0.353569 1.660098 -4.522406
v -0.511122 1.660098 -4.324840
v -0.567353 1.660098 -4.078481
v -0.511122 1.660098 -3.832120
v -0.353569 1.660098 -3.634554
v -0.125897 1.660098 -3.524913
v 0.126799 1.660098 -3.524913
v 0.354473 1.660098 -3.634554
v 0.512025 1.660098 -3.832120
v 0.568257 1.660098 -4.078481
v 0.000451 0.971856 -4.078481
v 0.000451 1.660098 -4.078481
v 0.659777 1.484869 -2.417960
v 0.659777 2.435167 -2.417960
v 0.659777 2.852544 -3.700512
v 0.659777 2.852544 -4.730444
v 0.659777 1.398180 -4.730444
v 0.659777 1.398180 -3.700512
v 0.659777 2.707108 -6.262196
v 0.824609 2.707108 -4.730444
v 0.824609 2.707108 -3.700512
v 0.824609 2.289733 -2.492784
v 0.659777 2.067287 -6.262196
v 0.824609 1.529075 -4.730444
v 0.824609 1.529075 -3.700512
v 0.824609 1.529075 -2.492784
v 0.659777 2.852544 -5.967465
v 0.659777 1.892295 -5.967462
v 0.824609 2.023188 -5.967462
v 0.824609 2.707108 -5.967462
v 0.332797 2.852544 -3.700512
v 0.332797 2.435167 -2.417960
v 0.332797 1.484869 -2.417960
v 0.332797 1.398180 -3.700512
v 0.332797 1.398180 -4.730444
v 0.332797 1.892295 -5.967462
v 0.332797 2.067287 -6.262196
v 0.332797 2.707108 -6.262196
v 0.332797 2.852544 -5.967465
v 0.332797 2.852544 -4.730444
v 0.332797 1.398180 -4.215481
v 0.659777 1.398180 -4.215481
v 0.824609 1.529075 -4.215481
v 0.824609 2.707108 -4.215481
v 0.659777 2.852544 -4.215481
v 0.332797 2.852544 -4.215481
v 0.824609 1.674510 -4.215481
v 0.824609 2.561672 -4.215481
v 0.824609 2.561672 -3.729940
v 0.824609 1.674510 -3.700512
v 0.824609 2.561672 -4.554705
v 0.824609 1.674510 -4.554705
v 0.993569 1.674510 -4.215481
v 0.993569 1.674510 -3.700512
v 0.993569 2.561672 -3.729940
v 0.993569 2.561672 -4.215481
v 0.993569 2.561672 -4.554705
v 0.993569 1.674510 -4.554705
v 0.332797 1.398180 -2.506888
v 0.659777 1.398180 -2.506888
v 0.824609 1.529075 -2.506888
v 0.824609 1.674510 -2.670444
v 0.993569 1.674510 -2.670444
v 0.993569 2.260154 -2.672484
v 0.824609 2.260154 -2.672484
v 0.824609 2.315089 -2.506888
v 0.659777 2.460525 -2.506888
v 0.332797 2.460525 -2.506888
v 0.332797 2.852544 -4.612025
v 0.659777 2.852544 -4.612025
v 0.824609 2.707108 -4.612025
v 0.824609 2.561672 -4.476695
v 0.993569 2.561672 -4.476695
v 0.993569 1.674510 -4.476695
v 0.824609 1.674510 -4.476695
v 0.824609 1.529075 -4.612025
v 0.659777 1.398180 -4.612025
v 0.332797 1.398180 -4.612025
v 0.824609 1.576181 -2.492784
v 0.824609 1.712369 -2.593701
v 0.993569 1.712369 -2.593701
v 1.036287 1.713878 -2.670581
v 1.036287 1.734148 -3.702491
v 1.036287 1.734148 -4.215481
v 1.036287 1.734148 -4.476695
v 0.993569 1.734148 -4.602362
v 0.824609 1.734148 -4.602362
v 0.824609 1.608265 -4.730444
v 0.824609 2.069163 -5.967462
v 0.659777 2.110300 -6.262196
v 0.332797 2.110300 -6.262196
v 0.824609 2.274473 -2.492784
v 0.824609 2.196485 -2.593701
v 0.993569 2.196485 -2.593701
v 1.036287 2.217306 -2.672334
v 1.036287 2.496762 -3.727789
v 1.036287 2.496762 -4.215481
v 1.036287 2.496762 -4.476695
v 1.036287 2.496762 -4.554705
v 0.993569 2.496762 -4.602362
v 0.824609 2.496762 -4.602362
v 0.824609 2.620917 -4.730444
v 0.824609 2.657068 -5.967462
v 0.659777 2.660293 -6.262196
v 0.332797 2.660293 -6.262196
v 0.332797 1.712270 -2.506888
v 0.332797 1.686913 -2.417960
v 0.332797 1.794976 -3.700512
v 0.000451 1.484869 -2.417960
v 0.000451 1.398180 -3.700512
v 0.000451 1.892295 -5.967462
v 0.000451 2.067287 -6.262196
v 0.000451 2.707108 -6.262196
v 0.000451 2.852544 -4.730444
v 0.000451 2.852544 -3.700512
v 0.000451 1.398180 -4.730444
v 0.000451 2.852544 -5.967465
v 0.000451 1.398180 -4.215481
v 0.000451 2.852544 -4.215481
v 0.000451 1.398180 -2.506888
v 0.000451 2.852544 -4.612025
v 0.000451 1.398180 -4.612025
v 0.000451 2.110300 -6.262196
v 0.000451 2.660293 -6.262196
v 0.000451 1.712270 -2.506888
v 0.000451 1.686913 -2.417960
v 0.000451 1.794976 -3.700512
v -0.658875 1.484869 -2.417960
v -0.658875 2.435167 -2.417960
v -0.658875 2.852544 -3.700512
v -0.658875 2.852544 -4.730444
v -0.658875 1.398180 -4.730444
v -0.658875 1.398180 -3.700512
v -0.658875 2.707108 -6.262196
v -0.823705 2.707108 -4.730444
v -0.823705 2.707108 -3.700512
v -0.823705 2.289733 -2.492784
v -0.658875 2.067287 -6.262196
v -0.823705 1.529075 -4.730444
v -0.823705 1.529075 -3.700512
v -0.823705 1.529075 -2.492784
v -0.658875 2.852544 -5.967465
v -0.658875 1.892295 -5.967462
v -0.823705 2.023188 -5.967462
v -0.823705 2.707108 -5.967462
v -0.331894 2.852544 -3.700512
v -0.331894 2.435167 -2.417960
v -0.331894 1.484869 -2.417960
v -0.331894 1.398180 -3.700512
v -0.331894 1.398180 -4.730444
v -0.331894 1.892295 -5.967462
v -0.331894 2.067287 -6.262196
v -0.331894 2.707108 -6.262196
v -0.331894 2.852544 -5.967465
v -0.331894 2.852544 -4.730444
v -0.331894 1.398180 -4.215481
v -0.658875 1.398180 -4.215481
v -0.823705 1.529075 -4.215481
v -0.823705 2.707108 -4.215481
v -0.658875 2.852544 -4.215481
v -0.331894 2.852544 -4.215481
v -0.823705 1.674510 -4.215481
v -0.823705 2.561672 -4.215481
v -0.823705 2.561672 -3.729940
v -0.823705 1.674510 -3.700512
v -0.823705 2.561672 -4.554705
v -0.823705 1.674510 -4.554705
v -0.992667 1.674510 -4.215481
v -0.992667 1.674510 -3.700512
v -0.992667 2.561672 -3.729940
v -0.992667 2.561672 -4.215481
v -0.992667 2.561672 -4.554705
v -0.992667 1.674510 -4.554705
v -0.331894 1.398180 -2.506888
v -0.658875 1.398180 -2.506888
v -0.823705 1.529075 -2.506888
v -0.823705 1.674510 -2.670444
v -0.992667 1.674510 -2.670444
v -0.992667 2.260154 -2.672484
v -0.823705 2.260154 -2.672484
v -0.823705 2.315089 -2.506888
v -0.658875 2.460525 -2.506888
v -0.331894 2.460525 -2.506888
v -0.331894 2.852544 -4.612025
v -0.658875 2.852544 -4.612025
v -0.823705 2.707108 -4.612025
v -0.823705 2.561672 -4.476695
v -0.992667 2.561672 -4.476695
v -0.992667 1.674510 -4.476695
v -0.823705 1.674510 -4.476695
v -0.823705 1.529075 -4.612025
v -0.658875 1.398180 -4.612025
v -0.331894 1.398180 -4.612025
v -0.823705 1.576181 -2.492784
v -0.823705 1.712369 -2.593701
v -0.992667 1.712369 -2.593701
v -1.035383 1.713878 -2.670581
v -1.035383 1.734148 -3.702491
v -1.035383 1.734148 -4.215481
v -1.035383 1.734148 -4.476695
v -0.992667 1.734148 -4.602362
v -0.823705 1.734148 -4.602362
v -0.823705 1.608265 -4.730444
v -0.823705 2.069163 -5.967462
v -0.658875 2.110300 -6.262196
v -0.331894 2.110300 -6.262196
v -0.823705 2.274473 -2.492784
v -0.823705 2.196485 -2.593701
v -0.992667 2.196485 -2.593701
v -1.035383 2.217306 -2.672334
v -1.035383 2.496762 -3.727789
v -1.035383 2.496762 -4.215481
v -1.035383 2.496762 -4.476695
v -1.035383 2.496762 -4.554705
v -0.992667 2.496762 -4.602362
v -0.823705 2.496762 -4.602362
v -0.823705 2.620917 -4.730444
v -0.823705 2.657068 -5.967462
v -0.658875 2.660293 -6.262196
v -0.331894 2.660293 -6.262196
v -0.331894 1.712270 -2.506888
v -0.331894 1.686913 -2.417960
v -0.331894 1.794976 -3.700512
v -0.331894 2.323761 -3.700512
v 0.000451 2.323761 -3.700512
v 0.332797 2.323761 -3.700512
v -0.331894 2.516605 -3.700512
v 0.000451 2.516605 -3.700512
v 0.332797 2.516605 -3.700512
v -0.331894 2.516605 -2.958623
v 0.000451 2.516605 -2.958623
v -0.331894 2.276454 -2.693214
v 0.000451 2.360756 -2.693214
v 0.332797 2.516605 -2.958623
v 0.332797 2.276454 -2.693214
# 1189 normals
vn 0.000000 0.587774 -0.808948
vn 0.000000 0.587774 -0.808948
vn 0.000000 0.587774 -0.808948
vn 0.000000 0.587774 -0.808948
vn 0.000000 0.000000 -1.000000
vn 0.000000 0.000000 -1.000000
vn 0.000000 0.000000 -1.000000
vn 0.000000 0.000000 -1.000000
vn 0.000000 -0.587774 -0.808948
vn 0.000000 -0.587774 -0.808948
vn 0.000000 -0.587774 -0.808948
vn 0.000000 -0.587774 -0.808948
vn 0.000000 -0.951047 -0.308948
vn 0.000000 -0.951047 -0.308948
vn 0.000000 -0.951047 -0.308948
vn 0.000000 -0.951047 -0.308948
vn 0.000000 -0.951047 0.308948
vn 0.000000 -0.951047 0.308948
vn 0.000000 -0.951047 0.308948
vn 0.000000 -0.951047 0.308948
vn 0.000000 -0.587774 0.808948
vn 0.000000 -0.587774 0.808948
vn 0.000000 -0.587774 0.808948
vn 0.000000 -0.587774 0.808948
vn 0.000000 0.000000 1.000000
vn 0.000000 0.000000 1.000000
vn 0.000000 0.000000 1.000000
vn 0.000000 0.000000 1.000000
vn 0.000000 0.587774 0.808948
vn 0.000000 0.587774 0.808948
vn 0.000000 0.587774 0.808948
vn 0.000000 0.587774 0.808948
vn 0.000000 0.951047 0.308948
vn 0.000000 0.951047 0.308948
vn 0.000000 0.951047 0.308948
vn 0.000000 0.951047 0.308948
vn 0.000000 0.951047 -0.308948
vn 0.000000 0.951047 -0.308948
vn 0.000000 0.951047 -0.308948
vn 0.000000 0.951047 -0.308948
vn 1.000000 0.000000 0.000000
vn 1.000000 0.000000 0.000000
vn 1.000000 0.000000 0.000000
vn 1.000000 0.000000 0.000000
vn 1.000000 0.000000 0.000000
vn 1.000000 0.000000 0.000000
vn 1.000000 0.000000 0.000000
vn 1.000000 0.000000 0.000000
vn 1.000000 0.000000 0.000000
vn 1.000000 0.000000 0.000000
vn 1.000000 0.000000 0.000000
vn 1.000000 0.000000 0.000000
vn 1.000000 0.000000 0.000000
vn 1.000000 0.000000 0.000000
vn 1.000000 0.000000 0.000000
vn 1.000000 0.000000 0.000000
vn 1.000000 0.000000 0.000000
vn 1.000000 0.000000 0.000000
vn 1.000000 0.000000 0.000000
vn 1.000000 0.000000 0.000000
vn 1.000000 0.000000 0.000000
vn 1.000000 0.000000 0.000000
vn 1.000000 0.000000 0.000000
vn 1.000000 0.000000 0.000000
vn 1.000000 0.000000 0.000000
vn 1.000000 0.000000 0.000000
vn 1.000000 0.000000 0.000000
vn 1.000000 0.000000 0.000000
vn 1.000000 0.000000 0.000000
vn 1.000000 0.000000 0.000000
vn -1.000000 0.000000 0.000000
vn -1.000000 0.000000 0.000000
vn -1.000000 0.000000 0.000000
vn -1.000000 0.000000 0.000000
vn -1.000000 0.000000 0.000000
vn -1.000000 0.000000 0.000000
vn -1.000000 0.000000 0.000000
vn -1.000000 0.000000 0.000000
vn -1.000000 0.000000 0.000000
vn -1.000000 0.000000 0.000000
vn -1.000000 0.000000 0.000000
vn -1.000000 0.000000 0.000000
vn -1.000000 0.000000 0.000000
vn -1.000000 0.000000 0.000000
vn -1.000000 0.000000 0.000000
vn -1.000000 0.000000 0.000000
vn -1.000000 0.000000 0.000000
vn -1.000000 0.000000 0.000000
vn -1.000000 0.000000 0.000000
vn -1.000000 0.000000 0.000000
vn -1.000000 0.000000 0.000000
vn -1.000000 0.000000 0.000000
vn -1.000000 0.000000 0.000000
vn -1.000000 0.000000 0.000000
vn -1.000000 0.000000 0.000000
vn -1.000000 0.000000 0.000000
vn -1.000000 0.000000 0.000000
vn -1.000000 0.000000 0.000000
vn -1.000000 0.000000 0.000000
vn -1.000000 0.000000 0.000000
vn 0.000000 0.587774 -0.808948
vn 0.000000 0.587774 -0.808948
vn 0.000000 0.587774 -0.808948
vn 0.000000 0.587774 -0.808948
vn 0.000000 0.000000 -1.000000
vn 0.000000 0.000000 -1.000000
vn 0.000000 0.000000 -1.000000
vn 0.000000 0.000000 -1.000000
vn 0.000000 -0.587774 -0.808948
vn 0.000000 -0.587774 -0.808948
vn 0.000000 -0.587774 -0.808948
vn 0.000000 -0.587774 -0.808948
vn 0.000000 -0.951047 -0.308948
vn 0.000000 -0.951047 -0.308948
vn 0.000000 -0.951047 -0.308948
vn 0.000000 -0.951047 -0.308948
vn 0.000000 -0.951047 0.308948
vn 0.000000 -0.951047 0.308948
vn 0.000000 -0.951047 0.308948
vn 0.000000 -0.951047 0.308948
vn 0.000000 -0.587774 0.808948
vn 0.000000 -0.587774 0.808948
vn 0.000000 -0.587774 0.808948
vn 0.000000 -0.587774 0.808948
vn 0.000000 0.000000 1.000000
vn 0.000000 0.000000 1.000000
vn 0.000000 0.000000 1.000000
vn 0.000000 0.000000 1.000000
vn 0.000000 0.587774 0.808948
vn 0.000000 0.587774 0.808948
vn 0.000000 0.587774 0.808948
vn 0.000000 0.587774 0.808948
vn 0.000000 0.951047 0.308948
vn 0.000000 0.951047 0.308948
vn 0.000000 0.951047 0.308948
vn 0.000000 0.951047 0.308948
vn 0.000000 0.951047 -0.308948
vn 0.000000 0.951047 -0.308948
vn 0.000000 0.951047 -0.308948
vn 0.000000 0.951047 -0.308948
vn -1.000000 0.000000 0.000000
vn -1.000000 0.000000 0.000000
vn -1.000000 0.000000 0.000000
vn -1.000000 0.000000 0.000000
vn -1.000000 0.000000 0.000000
vn -1.000000 0.000000 0.000000
vn -1.000000 0.000000 0.000000
vn -1.000000 0.000000 0.000000
vn -1.000000 0.000000 0.000000
vn -1.000000 0.000000 0.000000
vn -1.000000 0.000000 0.000000
vn -1.000000 0.000000 0.000000
vn -1.000000 0.000000 0.000000
vn -1.000000 0.000000 0.000000
vn -1.000000 0.000000 0.000000
vn -1.000000 0.000000 0.000000
vn -1.000000 0.000000 0.000000
vn -1.000000 0.000000 0.000000
vn -1.000000 0.000000 0.000000
vn -1.000000 0.000000 0.000000
vn -1.000000 0.000000 0.000000
vn -1.000000 0.000000 0.000000
vn -1.000000 0.000000 0.000000
vn -1.000000 0.000000 0.000000
vn -1.000000 0.000000 0.000000
vn -1.000000 0.000000 0.000000
vn -1.000000 0.000000 0.000000
vn -1.000000 0.000000 0.000000
vn -1.000000 0.000000 0.000000
vn -1.000000 0.000000 0.000000
vn 1.000000 0.000000 0.000000
vn 1.000000 0.000000 0.000000
vn 1.000000 0.000000 0.000000
vn 1.000000 0.000000 0.000000
vn 1.000000 0.000000 0.000000
vn 1.000000 0.000000 0.000000
vn 1.000000 0.000000 0.000000
vn 1.000000 0.000000 0.000000
vn 1.000000 0.000000 0.000000
vn 1.000000 0.000000 0.000000
vn 1.000000 0.000000 0.000000
vn 1.000000 0.000000 0.000000
vn 1.000000 0.000000 0.000000
vn 1.000000 0.000000 0.000000
vn 1.000000 0.000000 0.000000
vn 1.000000 0.000000 0.000000
vn 1.000000 0.000000 0.000000
vn 1.000000 0.000000 0.000000
vn 1.000000 0.000000 0.000000
vn 1.000000 0.000000 0.000000
vn 1.000000 0.000000 0.000000
vn 1.000000 0.000000 0.000000
vn 1.000000 0.000000 0.000000
vn 1.000000 0.000000 0.000000
vn 1.000000 0.000000 0.000000
vn 1.000000 0.000000 0.000000
vn 1.000000 0.000000 0.000000
vn 1.000000 0.000000 0.000000
vn 1.000000 0.000000 0.000000
vn 1.000000 0.000000 0.000000
vn -0.789416 0.613685 0.000000
vn -0.789416 0.613685 0.000000
vn -0.789416 0.613685 0.000000
vn -0.789416 0.613685 0.000000
vn -1.000000 0.000000 0.000000
vn -1.000000 0.000000 0.000000
vn -1.000000 0.000000 0.000000
vn -1.000000 0.000000 0.000000
vn -0.789416 -0.613715 0.000000
vn -0.789416 -0.613715 0.000000
vn -0.789416 -0.613715 0.000000
vn -0.789416 -0.613715 0.000000
vn -0.290545 -0.956846 0.000000
vn -0.290545 -0.956846 0.000000
vn -0.290545 -0.956846 0.000000
vn -0.290545 -0.956846 0.000000
vn 0.290545 -0.956846 0.000000
vn 0.290545 -0.956846 0.000000
vn 0.290545 -0.956846 0.000000
vn 0.290545 -0.956846 0.000000
vn 0.789416 -0.613685 0.000000
vn 0.789416 -0.613685 0.000000
vn 0.789416 -0.613685 0.000000
vn 0.789416 -0.613685 0.000000
vn 1.000000 0.000000 0.000000
vn 1.000000 0.000000 0.000000
vn 1.000000 0.000000 0.000000
vn 1.000000 0.000000 0.000000
vn 0.789416 0.613685 0.000000
vn 0.789416 0.613685 0.000000
vn 0.789416 0.613685 0.000000
vn 0.789416 0.613685 0.000000
vn 0.290545 0.956846 0.000000
vn 0.290545 0.956846 0.000000
vn 0.290545 0.956846 0.000000
vn 0.290545 0.956846 0.000000
vn -0.290545 0.956846 0.000000
vn -0.290545 0.956846 0.000000
vn -0.290545 0.956846 0.000000
vn -0.290545 0.956846 0.000000
vn 0.000000 0.000000 -1.000000
vn 0.000000 0.000000 -1.000000
vn 0.000000 0.000000 -1.000000
vn 0.000000 0.000000 -1.000000
vn 0.000000 0.000000 -1.000000
vn 0.000000 0.000000 -1.000000
vn 0.000000 0.000000 -1.000000
vn 0.000000 0.000000 -1.000000
vn 0.000000 0.000000 -1.000000
vn 0.000000 0.000000 -1.000000
vn 0.000000 0.000000 -1.000000
vn 0.000000 0.000000 -1.000000
vn 0.000000 0.000000 -1.000000
vn 0.000000 0.000000 -1.000000
vn 0.000000 0.000000 -1.000000
vn 0.000000 0.000000 -1.000000
vn 0.000000 0.000000 -1.000000
vn 0.000000 0.000000 -1.000000
vn 0.000000 0.000000 -1.000000
vn 0.000000 0.000000 -1.000000
vn 0.000000 0.000000 -1.000000
vn 0.000000 0.000000 -1.000000
vn 0.000000 0.000000 -1.000000
vn 0.000000 0.000000 -1.000000
vn 0.000000 0.000000 -1.000000
vn 0.000000 0.000000 -1.000000
vn 0.000000 0.000000 -1.000000
vn 0.000000 0.000000 -1.000000
vn 0.000000 0.000000 -1.000000
vn 0.000000 0.000000 -1.000000
vn 0.000000 0.000000 1.000000
vn 0.000000 0.000000 1.000000
vn 0.000000 0.000000 1.000000
vn 0.000000 0.000000 1.000000
vn 0.000000 0.000000 1.000000
vn 0.000000 0.000000 1.000000
vn 0.000000 0.000000 1.000000
vn 0.000000 0.000000 1.000000
vn 0.000000 0.000000 1.000000
vn 0.000000 0.000000 1.000000
vn 0.000000 0.000000 1.000000
vn 0.000000 0.000000 1.000000
vn 0.000000 0.000000 1.000000
vn 0.000000 0.000000 1.000000
vn 0.000000 0.000000 1.000000
vn 0.000000 0.000000 1.000000
vn 0.000000 0.000000 1.000000
vn 0.000000 0.000000 1.000000
vn 0.000000 0.000000 1.000000
vn 0.000000 0.000000 1.000000
vn 0.000000 0.000000 1.000000
vn 0.000000 0.000000 1.000000
vn 0.000000 0.000000 1.000000
vn 0.000000 0.000000 1.000000
vn 0.000000 0.000000 1.000000
vn 0.000000 0.000000 1.000000
vn 0.000000 0.000000 1.000000
vn 0.000000 0.000000 1.000000
vn 0.000000 0.000000 1.000000
vn 0.000000 0.000000 1.000000
vn 0.000000 0.000000 1.000000
vn 0.000000 0.000000 1.000000
vn 0.000000 0.000000 1.000000
vn 0.000000 0.000000 1.000000
vn 0.000000 0.000000 1.000000
vn 0.000000 0.000000 1.000000
vn 0.000000 0.000000 1.000000
vn 0.000000 0.000000 1.000000
vn 0.000000 0.000000 1.000000
vn 0.000000 0.000000 1.000000
vn 0.000000 0.000000 1.000000
vn 0.000000 0.000000 1.000000
vn 0.000000 0.000000 1.000000
vn 0.000000 0.000000 1.000000
vn 0.000000 0.000000 1.000000
vn 0.000000 0.000000 1.000000
vn 0.000000 0.000000 1.000000
vn 0.000000 0.000000 1.000000
vn 0.000000 0.000000 1.000000
vn 0.000000 0.000000 1.000000
vn 0.000000 0.000000 1.000000
vn 0.000000 0.000000 1.000000
vn 0.000000 0.000000 1.000000
vn 0.000000 0.000000 1.000000
vn 0.000000 0.000000 1.000000
vn 0.000000 0.000000 1.000000
vn 0.000000 0.000000 1.000000
vn 0.000000 0.000000 1.000000
vn 0.000000 0.000000 1.000000
vn 0.000000 0.000000 1.000000
vn 0.000000 0.000000 1.000000
vn 0.000000 0.000000 1.000000
vn 0.000000 0.000000 1.000000
vn 0.000000 0.000000 1.000000
vn 0.000000 0.000000 1.000000
vn 0.000000 0.000000 1.000000
vn 0.000000 0.000000 1.000000
vn 0.000000 0.000000 1.000000
vn 0.000000 0.000000 1.000000
vn 0.000000 0.000000 1.000000
vn 0.789416 -0.613715 0.000000
vn 0.789416 -0.613715 0.000000
vn 0.789416 -0.613715 0.000000
vn 0.789416 -0.613715 0.000000
vn 1.000000 0.000000 0.000000
vn 1.000000 0.000000 0.000000
vn 1.000000 0.000000 0.000000
vn 1.000000 0.000000 0.000000
vn 0.789416 0.613715 0.000000
vn 0.789416 0.613715 0.000000
vn 0.789416 0.613715 0.000000
vn 0.789416 0.613715 0.000000
vn 0.290545 0.956846 0.000000
vn 0.290545 0.956846 0.000000
vn 0.290545 0.956846 0.000000
vn 0.290545 0.956846 0.000000
vn -0.290545 0.956846 0.000000
vn -0.290545 0.956846 0.000000
vn -0.290545 0.956846 0.000000
vn -0.290545 0.956846 0.000000
vn -0.789416 0.613685 0.000000
vn -0.789416 0.613685 0.000000
vn -0.789416 0.613685 0.000000
vn -0.789416 0.613685 0.000000
vn -1.000000 0.000000 0.000000
vn -1.000000 0.000000 0.000000
vn -1.000000 0.000000 0.000000
vn -1.000000 0.000000 0.000000
vn -0.789416 -0.613715 0.000000
vn -0.789416 -0.613715 0.000000
vn -0.789416 -0.613715 0.000000
vn -0.789416 -0.613715 0.000000
vn -0.290545 -0.956846 0.000000
vn -0.290545 -0.956846 0.000000
vn -0.290545 -0.956846 0.000000
vn -0.290545 -0.956846 0.000000
vn 0.290545 -0.956846 0.000000
vn 0.290545 -0.956846 0.000000
vn 0.290545 -0.956846 0.000000
vn 0.290545 -0.956846 0.000000
vn -0.789416 0.613685 0.000000
vn -0.789416 0.613685 0.000000
vn -0.789416 0.613685 0.000000
vn -0.789416 0.613685 0.000000
vn -1.000000 0.000000 0.000000
vn -1.000000 0.000000 0.000000
vn -1.000000 0.000000 0.000000
vn -1.000000 0.000000 0.000000
vn -0.789416 -0.613685 0.000000
vn -0.789416 -0.613685 0.000000
vn -0.789416 -0.613685 0.000000
vn -0.789416 -0.613685 0.000000
vn -0.290545 -0.956846 0.000000
vn -0.290545 -0.956846 0.000000
vn -0.290545 -0.956846 0.000000
vn -0.290545 -0.956846 0.000000
vn 0.290545 -0.956846 0.000000
vn 0.290545 -0.956846 0.000000
vn 0.290545 -0.956846 0.000000
vn 0.290545 -0.956846 0.000000
vn 0.789416 -0.613685 0.000000
vn 0.789416 -0.613685 0.000000
vn 0.789416 -0.613685 0.000000
vn 0.789416 -0.613685 0.000000
vn 1.000000 0.000000 0.000000
vn 1.000000 0.000000 0.000000
vn 1.000000 0.000000 0.000000
vn 1.000000 0.000000 0.000000
vn 0.789416 0.613685 0.000000
vn 0.789416 0.613685 0.000000
vn 0.789416 0.613685 0.000000
vn 0.789416 0.613685 0.000000
vn 0.290545 0.956846 0.000000
vn 0.290545 0.956846 0.000000
vn 0.290545 0.956846 0.000000
vn 0.290545 0.956846 0.000000
vn -0.290545 0.956846 0.000000
vn -0.290545 0.956846 0.000000
vn -0.290545 0.956846 0.000000
vn -0.290545 0.956846 0.000000
vn 0.000000 0.000000 -1.000000
vn 0.000000 0.000000 -1.000000
vn 0.000000 0.000000 -1.000000
vn 0.000000 0.000000 -1.000000
vn 0.000000 0.000000 -1.000000
vn 0.000000 0.000000 -1.000000
vn 0.000000 0.000000 -1.000000
vn 0.000000 0.000000 -1.000000
vn 0.000000 0.000000 -1.000000
vn 0.000000 0.000000 -1.000000
vn 0.000000 0.000000 -1.000000
vn 0.000000 0.000000 -1.000000
vn 0.000000 0.000000 -1.000000
vn 0.000000 0.000000 -1.000000
vn 0.000000 0.000000 -1.000000
vn 0.000000 0.000000 -1.000000
vn 0.000000 0.000000 -1.000000
vn 0.000000 0.000000 -1.000000
vn 0.000000 0.000000 -1.000000
vn 0.000000 0.000000 -1.000000
vn 0.000000 0.000000 -1.000000
vn 0.000000 0.000000 -1.000000
vn 0.000000 0.000000 -1.000000
vn 0.000000 0.000000 -1.000000
vn 0.000000 0.000000 -1.000000
vn 0.000000 0.000000 -1.000000
vn 0.000000 0.000000 -1.000000
vn 0.000000 0.000000 -1.000000
vn 0.000000 0.000000 -1.000000
vn 0.000000 0.000000 -1.000000
vn 0.000000 0.000000 1.000000
vn 0.000000 0.000000 1.000000
vn 0.000000 0.000000 1.000000
vn 0.000000 0.000000 1.000000
vn 0.000000 0.000000 1.000000
vn 0.000000 0.000000 1.000000
vn 0.000000 0.000000 1.000000
vn 0.000000 0.000000 1.000000
vn 0.000000 0.000000 1.000000
vn 0.000000 0.000000 1.000000
vn 0.000000 0.000000 1.000000
vn 0.000000 0.000000 1.000000
vn 0.000000 0.000000 1.000000
vn 0.000000 0.000000 1.000000
vn 0.000000 0.000000 1.000000
vn 0.000000 0.000000 1.000000
vn 0.000000 0.000000 1.000000
vn 0.000000 0.000000 1.000000
vn 0.000000 0.000000 1.000000
vn 0.000000 0.000000 1.000000
vn 0.000000 0.000000 1.000000
vn 0.000000 0.000000 1.000000
vn 0.000000 0.000000 1.000000
vn 0.000000 0.000000 1.000000
vn 0.000000 0.000000 1.000000
vn 0.000000 0.000000 1.000000
vn 0.000000 0.000000 1.000000
vn 0.000000 0.000000 1.000000
vn 0.000000 0.000000 1.000000
vn 0.000000 0.000000 1.000000
vn -0.789416 0.613685 0.000000
vn -0.789416 0.613685 0.000000
vn -0.789416 0.613685 0.000000
vn -0.789416 0.613685 0.000000
vn -1.000000 0.000000 0.000000
vn -1.000000 0.000000 0.000000
vn -1.000000 0.000000 0.000000
vn -1.000000 0.000000 0.000000
vn -0.789416 -0.613685 0.000000
vn -0.789416 -0.613685 0.000000
vn -0.789416 -0.613685 0.000000
vn -0.789416 -0.613685 0.000000
vn -0.290545 -0.956846 0.000000
vn -0.290545 -0.956846 0.000000
vn -0.290545 -0.956846 0.000000
vn -0.290545 -0.956846 0.000000
vn 0.290545 -0.956846 0.000000
vn 0.290545 -0.956846 0.000000
vn 0.290545 -0.956846 0.000000
vn 0.290545 -0.956846 0.000000
vn 0.789416 -0.613685 0.000000
vn 0.789416 -0.613685 0.000000
vn 0.789416 -0.613685 0.000000
vn 0.789416 -0.613685 0.000000
vn 1.000000 0.000000 0.000000
vn 1.000000 0.000000 0.000000
vn 1.000000 0.000000 0.000000
vn 1.000000 0.000000 0.000000
vn 0.789416 0.613685 0.000000
vn 0.789416 0.613685 0.000000
vn 0.789416 0.613685 0.000000
vn 0.789416 0.613685 0.000000
vn 0.290545 0.956846 0.000000
vn 0.290545 0.956846 0.000000
vn 0.290545 0.956846 0.000000
vn 0.290545 0.956846 0.000000
vn -0.290545 0.956846 0.000000
vn -0.290545 0.956846 0.000000
vn -0.290545 0.956846 0.000000
vn -0.290545 0.956846 0.000000
vn 0.000000 0.000000 -1.000000
vn 0.000000 0.000000 -1.000000
vn 0.000000 0.000000 -1.000000
vn 0.000000 0.000000 -1.000000
vn 0.000000 0.000000 -1.000000
vn 0.000000 0.000000 -1.000000
vn 0.000000 0.000000 -1.000000
vn 0.000000 0.000000 -1.000000
vn 0.000000 0.000000 -1.000000
vn 0.000000 0.000000 -1.000000
vn 0.000000 0.000000 -1.000000
vn 0.000000 0.000000 -1.000000
vn 0.000000 0.000000 -1.000000
vn 0.000000 0.000000 -1.000000
vn 0.000000 0.000000 -1.000000
vn 0.000000 0.000000 -1.000000
vn 0.000000 0.000000 -1.000000
vn 0.000000 0.000000 -1.000000
vn 0.000000 0.000000 -1.000000
vn 0.000000 0.000000 -1.000000
vn 0.000000 0.000000 -1.000000
vn 0.000000 0.000000 -1.000000
vn 0.000000 0.000000 -1.000000
vn 0.000000 0.000000 -1.000000
vn 0.000000 0.000000 -1.000000
vn 0.000000 0.000000 -1.000000
vn 0.000000 0.000000 -1.000000
vn 0.000000 0.000000 -1.000000
vn 0.000000 0.000000 -1.000000
vn 0.000000 0.000000 -1.000000
vn 0.000000 0.000000 1.000000
vn 0.000000 0.000000 1.000000
vn 0.000000 0.000000 1.000000
vn 0.000000 0.000000 1.000000
vn 0.000000 0.000000 1.000000
vn 0.000000 0.000000 1.000000
vn 0.000000 0.000000 1.000000
vn 0.000000 0.000000 1.000000
vn 0.000000 0.000000 1.000000
vn 0.000000 0.000000 1.000000
vn 0.000000 0.000000 1.000000
vn 0.000000 0.000000 1.000000
vn 0.000000 0.000000 1.000000
vn 0.000000 0.000000 1.000000
vn 0.000000 0.000000 1.000000
vn 0.000000 0.000000 1.000000
vn 0.000000 0.000000 1.000000
vn 0.000000 0.000000 1.000000
vn 0.000000 0.000000 1.000000
vn 0.000000 0.000000 1.000000
vn 0.000000 0.000000 1.000000
vn 0.000000 0.000000 1.000000
vn 0.000000 0.000000 1.000000
vn 0.000000 0.000000 1.000000
vn 0.000000 0.000000 1.000000
vn 0.000000 0.000000 1.000000
vn 0.000000 0.000000 1.000000
vn 0.000000 0.000000 1.000000
vn 0.000000 0.000000 1.000000
vn 0.000000 0.000000 1.000000
vn 0.000000 0.587774 -0.808948
vn 0.000000 0.587774 -0.808948
vn 0.000000 0.587774 -0.808948
vn 0.000000 0.587774 -0.808948
vn 0.000000 0.000000 -1.000000
vn 0.000000 0.000000 -1.000000
vn 0.000000 0.000000 -1.000000
vn 0.000000 0.000000 -1.000000
vn 0.000000 -0.587774 -0.808948
vn 0.000000 -0.587774 -0.808948
vn 0.000000 -0.587774 -0.808948
vn 0.000000 -0.587774 -0.808948
vn 0.000000 -0.951047 -0.308948
vn 0.000000 -0.951047 -0.308948
vn 0.000000 -0.951047 -0.308948
vn 0.000000 -0.951047 -0.308948
vn 0.000000 -0.951047 0.308948
vn 0.000000 -0.951047 0.308948
vn 0.000000 -0.951047 0.308948
vn 0.000000 -0.951047 0.308948
vn 0.000000 -0.587774 0.808948
vn 0.000000 -0.587774 0.808948
vn 0.000000 -0.587774 0.808948
vn 0.000000 -0.587774 0.808948
vn 0.000000 0.000000 1.000000
vn 0.000000 0.000000 1.000000
vn 0.000000 0.000000 1.000000
vn 0.000000 0.000000 1.000000
vn 0.000000 0.587774 0.808948
vn 0.000000 0.587774 0.808948
vn 0.000000 0.587774 0.808948
vn 0.000000 0.587774 0.808948
vn 0.000000 0.951047 0.308948
vn 0.000000 0.951047 0.308948
vn 0.000000 0.951047 0.308948
vn 0.000000 0.951047 0.308948
vn 0.000000 0.951047 -0.308948
vn 0.000000 0.951047 -0.308948
vn 0.000000 0.951047 -0.308948
vn 0.000000 0.951047 -0.308948
vn 1.000000 0.000000 0.000000
vn 1.000000 0.000000 0.000000
vn 1.000000 0.000000 0.000000
vn 1.000000 0.000000 0.000000
vn 1.000000 0.000000 0.000000
vn 1.000000 0.000000 0.000000
vn 1.000000 0.000000 0.000000
vn 1.000000 0.000000 0.000000
vn 1.000000 0.000000 0.000000
vn 1.000000 0.000000 0.000000
vn 1.000000 0.000000 0.000000
vn 1.000000 0.000000 0.000000
vn 1.000000 0.000000 0.000000
vn 1.000000 0.000000 0.000000
vn 1.000000 0.000000 0.000000
vn 1.000000 0.000000 0.000000
vn 1.000000 0.000000 0.000000
vn 1.000000 0.000000 0.000000
vn 1.000000 0.000000 0.000000
vn 1.000000 0.000000 0.000000
vn 1.000000 0.000000 0.000000
vn 1.000000 0.000000 0.000000
vn 1.000000 0.000000 0.000000
vn 1.000000 0.000000 0.000000
vn 1.000000 0.000000 0.000000
vn 1.000000 0.000000 0.000000
vn 1.000000 0.000000 0.000000
vn 1.000000 0.000000 0.000000
vn 1.000000 0.000000 0.000000
vn 1.000000 0.000000 0.000000
vn -1.000000 0.000000 0.000000
vn -1.000000 0.000000 0.000000
vn -1.000000 0.000000 0.000000
vn -1.000000 0.000000 0.000000
vn -1.000000 0.000000 0.000000
vn -1.000000 0.000000 0.000000
vn -1.000000 0.000000 0.000000
vn -1.000000 0.000000 0.000000
vn -1.000000 0.000000 0.000000
vn -1.000000 0.000000 0.000000
vn -1.000000 0.000000 0.000000
vn -1.000000 0.000000 0.000000
vn -1.000000 0.000000 0.000000
vn -1.000000 0.000000 0.000000
vn -1.000000 0.000000 0.000000
vn -1.000000 0.000000 0.000000
vn -1.000000 0.000000 0.000000
vn -1.000000 0.000000 0.000000
vn -1.000000 0.000000 0.000000
vn -1.000000 0.000000 0.000000
vn -1.000000 0.000000 0.000000
vn -1.000000 0.000000 0.000000
vn -1.000000 0.000000 0.000000
vn -1.000000 0.000000 0.000000
vn -1.000000 0.000000 0.000000
vn -1.000000 0.000000 0.000000
vn -1.000000 0.000000 0.000000
vn -1.000000 0.000000 0.000000
vn -1.000000 0.000000 0.000000
vn -1.000000 0.000000 0.000000
vn 0.000000 0.587774 -0.808948
vn 0.000000 0.587774 -0.808948
vn 0.000000 0.587774 -0.808948
vn 0.000000 0.587774 -0.808948
vn 0.000000 0.000000 -1.000000
vn 0.000000 0.000000 -1.000000
vn 0.000000 0.000000 -1.000000
vn 0.000000 0.000000 -1.000000
vn 0.000000 -0.587774 -0.808948
vn 0.000000 -0.587774 -0.808948
vn 0.000000 -0.587774 -0.808948
vn 0.000000 -0.587774 -0.808948
vn 0.000000 -0.951047 -0.308948
vn 0.000000 -0.951047 -0.308948
vn 0.000000 -0.951047 -0.308948
vn 0.000000 -0.951047 -0.308948
vn 0.000000 -0.951047 0.308948
vn 0.000000 -0.951047 0.308948
vn 0.000000 -0.951047 0.308948
vn 0.000000 -0.951047 0.308948
vn 0.000000 -0.587774 0.808948
vn 0.000000 -0.587774 0.808948
vn 0.000000 -0.587774 0.808948
vn 0.000000 -0.587774 0.808948
vn 0.000000 0.000000 1.000000
vn 0.000000 0.000000 1.000000
vn 0.000000 0.000000 1.000000
vn 0.000000 0.000000 1.000000
vn 0.000000 0.587774 0.808948
vn 0.000000 0.587774 0.808948
vn 0.000000 0.587774 0.808948
vn 0.000000 0.587774 0.808948
vn 0.000000 0.951047 0.308948
vn 0.000000 0.951047 0.308948
vn 0.000000 0.951047 0.308948
vn 0.000000 0.951047 0.308948
vn 0.000000 0.951047 -0.308948
vn 0.000000 0.951047 -0.308948
vn 0.000000 0.951047 -0.308948
vn 0.000000 0.951047 -0.308948
vn -1.000000 0.000000 0.000000
vn -1.000000 0.000000 0.000000
vn -1.000000 0.000000 0.000000
vn -1.000000 0.000000 0.000000
vn -1.000000 0.000000 0.000000
vn -1.000000 0.000000 0.000000
vn -1.000000 0.000000 0.000000
vn -1.000000 0.000000 0.000000
vn -1.000000 0.000000 0.000000
vn -1.000000 0.000000 0.000000
vn -1.000000 0.000000 0.000000
vn -1.000000 0.000000 0.000000
vn -1.000000 0.000000 0.000000
vn -1.000000 0.000000 0.000000
vn -1.000000 0.000000 0.000000
vn -1.000000 0.000000 0.000000
vn -1.000000 0.000000 0.000000
vn -1.000000 0.000000 0.000000
vn -1.000000 0.000000 0.000000
vn -1.000000 0.000000 0.000000
vn -1.000000 0.000000 0.000000
vn -1.000000 0.000000 0.000000
vn -1.000000 0.000000 0.000000
vn -1.000000 0.000000 0.000000
vn -1.000000 0.000000 0.000000
vn -1.000000 0.000000 0.000000
vn -1.000000 0.000000 0.000000
vn -1.000000 0.000000 0.000000
vn -1.000000 0.000000 0.000000
vn -1.000000 0.000000 0.000000
vn 1.000000 0.000000 0.000000
vn 1.000000 0.000000 0.000000
vn 1.000000 0.000000 0.000000
vn 1.000000 0.000000 0.000000
vn 1.000000 0.000000 0.000000
vn 1.000000 0.000000 0.000000
vn 1.000000 0.000000 0.000000
vn 1.000000 0.000000 0.000000
vn 1.000000 0.000000 0.000000
vn 1.000000 0.000000 0.000000
vn 1.000000 0.000000 0.000000
vn 1.000000 0.000000 0.000000
vn 1.000000 0.000000 0.000000
vn 1.000000 0.000000 0.000000
vn 1.000000 0.000000 0.000000
vn 1.000000 0.000000 0.000000
vn 1.000000 0.000000 0.000000
vn 1.000000 0.000000 0.000000
vn 1.000000 0.000000 0.000000
vn 1.000000 0.000000 0.000000
vn 1.000000 0.000000 0.000000
vn 1.000000 0.000000 0.000000
vn 1.000000 0.000000 0.000000
vn 1.000000 0.000000 0.000000
vn 1.000000 0.000000 0.000000
vn 1.000000 0.000000 0.000000
vn 1.000000 0.000000 0.000000
vn 1.000000 0.000000 0.000000
vn 1.000000 0.000000 0.000000
vn 1.000000 0.000000 0.000000
vn 0.900903 0.000000 -0.433803
vn 0.623421 0.000000 -0.781755
vn 0.623421 0.000000 -0.781755
vn 0.900903 0.000000 -0.433803
vn 0.222517 0.000000 -0.974852
vn 0.222517 0.000000 -0.974852
vn -0.222517 0.000000 -0.974852
vn -0.222517 0.000000 -0.974852
vn -0.623421 0.000000 -0.781755
vn -0.623421 0.000000 -0.781755
vn -0.900903 0.000000 -0.433803
vn -0.900903 0.000000 -0.433803
vn -1.000000 0.000000 0.000000
vn -1.000000 0.000000 0.000000
vn -0.900903 0.000000 0.433803
vn -0.900903 0.000000 0.433803
vn -0.623421 0.000000 0.781755
vn -0.623421 0.000000 0.781755
vn -0.222517 0.000000 0.974852
vn -0.222517 0.000000 0.974852
vn 0.222517 0.000000 0.974852
vn 0.222517 0.000000 0.974852
vn 0.623421 0.000000 0.781755
vn 0.623421 0.000000 0.781755
vn 0.900903 0.000000 0.433803
vn 0.900903 0.000000 0.433803
vn 1.000000 0.000000 0.000000
vn 1.000000 0.000000 0.000000
vn 0.000000 -1.000000 0.000000
vn 0.000000 -1.000000 0.000000
vn 0.000000 -1.000000 0.000000
vn 0.000000 -1.000000 0.000000
vn 0.000000 -1.000000 0.000000
vn 0.000000 -1.000000 0.000000
vn 0.000000 -1.000000 0.000000
vn 0.000000 -1.000000 0.000000
vn 0.000000 -1.000000 0.000000
vn 0.000000 -1.000000 0.000000
vn 0.000000 -1.000000 0.000000
vn 0.000000 -1.000000 0.000000
vn 0.000000 -1.000000 0.000000
vn 0.000000 -1.000000 0.000000
vn 0.000000 -1.000000 0.000000
vn 0.000000 1.000000 0.000000
vn 0.000000 1.000000 0.000000
vn 0.000000 1.000000 0.000000
vn 0.000000 1.000000 0.000000
vn 0.000000 1.000000 0.000000
vn 0.000000 1.000000 0.000000
vn 0.000000 1.000000 0.000000
vn 0.000000 1.000000 0.000000
vn 0.000000 1.000000 0.000000
vn 0.000000 1.000000 0.000000
vn 0.000000 1.000000 0.000000
vn 0.000000 1.000000 0.000000
vn 0.000000 1.000000 0.000000
vn 0.000000 1.000000 0.000000
vn 0.000000 1.000000 0.000000
vn 0.644754 0.723097 0.247391
vn 0.307300 0.904169 0.296618
vn 0.235732 0.920436 0.311512
vn 0.665598 0.669566 0.329488
vn 0.661600 0.749832 0.000000
vn 0.283495 0.958921 0.000000
vn 0.238693 0.947934 0.210432
vn 0.650522 0.737350 0.181652
vn 0.798907 0.599799 -0.042453
vn 0.258652 0.963071 -0.073674
vn 0.283495 0.958921 0.000000
vn 0.797931 0.602698 0.000000
vn 0.254990 -0.889153 -0.379753
vn 0.188519 -0.768937 -0.610847
vn 0.824239 -0.514100 -0.236983
vn 0.193707 -0.922755 -0.332967
vn 0.675456 -0.691021 -0.257218
vn 0.621803 -0.783098 0.000000
vn 0.257126 -0.966337 0.000000
vn 0.257126 -0.966337 0.000000
vn 0.621803 -0.783098 0.000000
vn 0.483550 -0.669749 0.563419
vn 0.128700 -0.721876 0.679851
vn 0.248825 -0.967161 0.050510
vn 0.620186 -0.783892 0.027254
vn 0.000000 0.950894 0.309437
vn 0.000000 0.961607 0.274187
vn 0.000000 1.000000 0.000000
vn 0.000000 0.984862 0.172923
vn 0.000000 0.995514 -0.094458
vn 0.000000 1.000000 0.000000
vn 0.000000 -0.939480 -0.342489
vn 0.000000 -0.916316 -0.400293
vn 0.000000 -1.000000 0.000000
vn 0.000000 -1.000000 0.000000
vn 0.000000 -0.716047 0.697949
vn 0.000000 -0.997711 0.067356
vn 0.211500 0.801807 -0.558780
vn 0.000000 0.837545 -0.546329
vn 0.520143 0.000000 -0.853964
vn 0.000000 0.000000 -1.000000
vn 0.996368 0.000000 -0.084173
vn 1.000000 0.000000 0.000000
vn 0.212721 0.959897 0.182171
vn 0.995819 0.089147 0.018220
vn 0.998627 0.050632 0.000000
vn 0.293475 0.955899 0.000000
vn 0.413264 0.000000 0.910486
vn 0.413264 0.000000 0.910486
vn 0.084447 0.000000 0.996338
vn 0.121712 0.000000 0.992492
vn 0.413264 0.000000 0.910486
vn 0.413264 0.000000 0.910486
vn 0.000000 0.000000 1.000000
vn 0.000000 0.000000 1.000000
vn 0.000000 -0.803943 -0.594580
vn 0.000000 0.996399 0.083959
vn 0.000000 0.996399 0.083959
vn 0.000000 0.961607 0.274187
vn 0.000000 0.961607 0.274187
vn 0.000000 -0.916316 -0.400293
vn 0.000000 -0.803943 -0.594580
vn 0.000000 0.000000 -1.000000
vn 0.000000 0.837545 -0.546329
vn 0.000000 0.995514 -0.094458
vn 0.000000 1.000000 0.000000
vn 0.000000 1.000000 0.000000
vn 0.000000 1.000000 0.000000
vn 0.000000 -1.000000 0.000000
vn 0.000000 -1.000000 0.000000
vn 0.000000 -0.939480 -0.342489
vn 0.257126 -0.966337 0.000000
vn 0.621803 -0.783098 0.000000
vn 0.293109 0.955991 0.000000
vn 0.993957 0.040133 -0.102057
vn 0.949124 0.013673 -0.314442
vn 0.293109 0.955991 0.000000
vn 0.283495 0.958921 0.000000
vn 0.661600 0.749832 0.000000
vn 0.000000 1.000000 0.000000
vn 1.000000 0.000000 0.000000
vn 1.000000 0.000000 0.000000
vn 1.000000 0.000000 0.000000
vn 1.000000 0.000000 0.000000
vn 1.000000 0.000000 0.000000
vn 1.000000 0.000000 0.000000
vn 1.000000 0.000000 0.000000
vn 1.000000 0.000000 0.000000
vn 1.000000 0.000000 0.000000
vn 1.000000 0.000000 0.000000
vn 1.000000 0.000000 0.000000
vn 1.000000 0.000000 0.000000
vn 1.000000 0.000000 0.000000
vn 1.000000 0.000000 0.000000
vn 1.000000 0.000000 0.000000
vn 1.000000 0.000000 0.000000
vn 1.000000 0.000000 0.000000
vn 1.000000 0.000000 0.000000
vn 1.000000 0.000000 0.000000
vn 1.000000 0.000000 0.000000
vn 0.000000 1.000000 0.000000
vn 0.000000 0.981353 0.191754
vn 0.000000 -1.000000 0.000000
vn 0.000000 -1.000000 0.000000
vn 0.270860 -0.962583 0.000000
vn 0.242599 -0.970121 -0.001221
vn 0.270250 0.918910 0.287035
vn 0.000000 0.951962 0.305896
vn 0.000000 0.142343 0.989807
vn 0.377342 0.109992 0.919459
vn 0.000000 1.000000 0.000000
vn 0.000000 1.000000 0.000000
vn 0.291003 -0.956540 -0.017121
vn 0.000000 -1.000000 0.000000
vn 0.000000 -1.000000 0.000000
vn 0.259171 -0.872520 -0.414057
vn 0.488250 0.036715 -0.871849
vn 0.000000 0.057468 -0.998260
vn 0.000000 0.591802 -0.806049
vn 0.040743 0.591314 -0.805316
vn 0.998321 -0.056461 -0.000275
vn 0.998535 -0.052707 0.000000
vn 0.331289 -0.121071 0.935604
vn 0.218245 -0.975432 0.027132
vn 0.997558 -0.062931 0.029451
vn 0.998962 0.035006 0.026460
vn 0.000000 -0.997711 0.067356
vn 0.000000 -1.000000 0.000000
vn 1.000000 0.000000 0.000000
vn 1.000000 0.000000 0.000000
vn 0.000000 -0.999390 0.034151
vn 0.000000 1.000000 0.000000
vn 0.993255 -0.047061 -0.105689
vn 0.000000 -1.000000 0.000000
vn 1.000000 0.000000 0.000000
vn 1.000000 0.000000 0.000000
vn 1.000000 0.000000 0.000000
vn 0.000000 -0.145456 0.989349
vn 0.503968 -0.059788 -0.861533
vn 0.000000 -0.624275 -0.781176
vn 0.000000 -0.057834 -0.998260
vn 1.000000 0.000000 0.000000
vn 1.000000 0.000000 0.000000
vn 0.998505 0.000000 -0.053440
vn 0.549991 0.000000 -0.835164
vn 0.000000 0.000000 -1.000000
vn -1.000000 0.000000 0.000000
vn -1.000000 0.000000 0.000000
vn -1.000000 0.000000 0.000000
vn -1.000000 0.000000 0.000000
vn -1.000000 0.000000 0.000000
vn -1.000000 0.000000 0.000000
vn -1.000000 0.000000 0.000000
vn -1.000000 0.000000 0.000000
vn -1.000000 0.000000 0.000000
vn -1.000000 0.000000 0.000000
vn 0.000000 0.000000 1.000000
vn 0.000000 0.000000 1.000000
vn 0.000000 0.000000 1.000000
vn 0.000000 0.000000 1.000000
vn 0.000000 0.000000 1.000000
vn 0.000000 0.000000 0.000000
vn 0.000000 0.000000 1.000000
vn 0.000000 0.000000 1.000000
vn 0.000000 0.000000 1.000000
vn 0.000000 -0.716047 0.697949
vn 0.000000 0.997589 0.069065
vn 0.000000 0.997589 0.069065
vn 0.000000 0.000000 -1.000000
vn -0.644754 0.723097 0.247391
vn -0.665598 0.669566 0.329488
vn -0.235732 0.920436 0.311512
vn -0.307300 0.904169 0.296618
vn -0.661600 0.749832 0.000000
vn -0.650522 0.737350 0.181652
vn -0.238693 0.947934 0.210432
vn -0.283495 0.958921 0.000000
vn -0.798907 0.599799 -0.042453
vn -0.797931 0.602698 0.000000
vn -0.283495 0.958921 0.000000
vn -0.258652 0.963071 -0.073674
vn -0.254990 -0.889153 -0.379753
vn -0.824239 -0.514100 -0.236983
vn -0.188519 -0.768937 -0.610847
vn -0.193707 -0.922755 -0.332967
vn -0.675456 -0.691021 -0.257218
vn -0.621803 -0.783098 0.000000
vn -0.621803 -0.783098 0.000000
vn -0.257126 -0.966337 0.000000
vn -0.257126 -0.966337 0.000000
vn -0.483550 -0.669749 0.563419
vn -0.620186 -0.783892 0.027254
vn -0.248825 -0.967161 0.050510
vn -0.128700 -0.721876 0.679851
vn 0.000000 0.961607 0.274187
vn 0.000000 0.950894 0.309437
vn 0.000000 0.984862 0.172923
vn 0.000000 1.000000 0.000000
vn 0.000000 1.000000 0.000000
vn 0.000000 0.995514 -0.094458
vn 0.000000 -0.939480 -0.342489
vn 0.000000 -0.916316 -0.400293
vn 0.000000 -1.000000 0.000000
vn 0.000000 -1.000000 0.000000
vn 0.000000 -0.716047 0.697949
vn 0.000000 -0.997711 0.067356
vn -0.211500 0.801807 -0.558780
vn 0.000000 0.837545 -0.546329
vn -0.520143 0.000000 -0.853964
vn 0.000000 0.000000 -1.000000
vn -0.996368 0.000000 -0.084173
vn -1.000000 0.000000 0.000000
vn -0.212721 0.959897 0.182171
vn -0.293475 0.955899 0.000000
vn -0.998627 0.050632 0.000000
vn -0.995819 0.089147 0.018220
vn -0.413264 0.000000 0.910486
vn -0.413264 0.000000 0.910486
vn -0.413264 0.000000 0.910486
vn -0.121712 0.000000 0.992492
vn -0.084447 0.000000 0.996338
vn -0.413264 0.000000 0.910486
vn 0.000000 0.000000 1.000000
vn 0.000000 0.000000 1.000000
vn 0.000000 -0.803943 -0.594580
vn 0.000000 0.996399 0.083959
vn 0.000000 0.961607 0.274187
vn 0.000000 -1.000000 0.000000
vn -0.257126 -0.966337 0.000000
vn -0.621803 -0.783098 0.000000
vn -0.293109 0.955991 0.000000
vn -0.293109 0.955991 0.000000
vn -0.949124 0.013673 -0.314442
vn -0.993957 0.040133 -0.102057
vn -0.661600 0.749832 0.000000
vn -0.283495 0.958921 0.000000
vn 0.000000 1.000000 0.000000
vn -1.000000 0.000000 0.000000
vn -1.000000 0.000000 0.000000
vn -1.000000 0.000000 0.000000
vn -1.000000 0.000000 0.000000
vn -1.000000 0.000000 0.000000
vn -1.000000 0.000000 0.000000
vn -1.000000 0.000000 0.000000
vn -1.000000 0.000000 0.000000
vn -1.000000 0.000000 0.000000
vn -1.000000 0.000000 0.000000
vn -1.000000 0.000000 0.000000
vn -1.000000 0.000000 0.000000
vn -1.000000 0.000000 0.000000
vn -1.000000 0.000000 0.000000
vn -1.000000 0.000000 0.000000
vn -1.000000 0.000000 0.000000
vn -1.000000 0.000000 0.000000
vn -1.000000 0.000000 0.000000
vn -1.000000 0.000000 0.000000
vn -1.000000 0.000000 0.000000
vn 0.000000 1.000000 0.000000
vn 0.000000 0.981353 0.191754
vn 0.000000 -1.000000 0.000000
vn -0.242599 -0.970121 -0.001221
vn -0.270860 -0.962583 0.000000
vn 0.000000 -1.000000 0.000000
vn -0.270250 0.918910 0.287035
vn -0.377342 0.109992 0.919459
vn 0.000000 0.142343 0.989807
vn 0.000000 0.951962 0.305896
vn 0.000000 1.000000 0.000000
vn 0.000000 1.000000 0.000000
vn -0.291003 -0.956540 -0.017121
vn -0.259171 -0.872520 -0.414057
vn 0.000000 -1.000000 0.000000
vn 0.000000 -1.000000 0.000000
vn -0.488250 0.036715 -0.871849
vn -0.040743 0.591314 -0.805316
vn 0.000000 0.591802 -0.806049
vn 0.000000 0.057468 -0.998260
vn -0.998321 -0.056461 -0.000275
vn -0.998535 -0.052707 0.000000
vn -0.331289 -0.121071 0.935604
vn -0.997558 -0.062931 0.029451
vn -0.218245 -0.975432 0.027132
vn -0.998962 0.035006 0.026460
vn -1.000000 0.000000 0.000000
vn -1.000000 0.000000 0.000000
vn 0.000000 -0.999390 0.034151
vn -0.993255 -0.047061 -0.105689
vn -1.000000 0.000000 0.000000
vn -1.000000 0.000000 0.000000
vn -1.000000 0.000000 0.000000
vn 0.000000 -0.145456 0.989349
vn -0.503968 -0.059788 -0.861533
vn 0.000000 -0.624275 -0.781176
vn 0.000000 -0.057834 -0.998260
vn -1.000000 0.000000 0.000000
vn -1.000000 0.000000 0.000000
vn -0.998505 0.000000 -0.053440
vn -0.549991 0.000000 -0.835164
vn 0.000000 0.000000 -1.000000
vn 1.000000 0.000000 0.000000
vn 1.000000 0.000000 0.000000
vn 1.000000 0.000000 0.000000
vn 1.000000 0.000000 0.000000
vn 1.000000 0.000000 0.000000
vn 1.000000 0.000000 0.000000
vn 1.000000 0.000000 0.000000
vn 1.000000 0.000000 0.000000
vn 1.000000 0.000000 0.000000
vn 1.000000 0.000000 0.000000
vn 0.000000 0.000000 1.000000
vn 0.000000 0.000000 1.000000
vn 0.000000 0.000000 1.000000
vn 0.000000 0.000000 1.000000
vn 0.000000 0.000000 0.000000
vn 0.000000 0.997589 0.069065
vn 0.000000 0.000000 1.000000
vn 0.000000 0.000000 1.000000
vn 0.000000 0.000000 1.000000
vn 0.000000 0.000000 1.000000
vn 0.000000 0.000000 1.000000
vn 0.000000 0.000000 1.000000
vn 0.000000 0.801441 0.597876
vn -0.101050 0.797351 0.594885
vn -0.101050 0.797351 0.594885
vn 0.000000 0.801441 0.597876
vn 0.101050 0.797351 0.594885
vn 0.101050 0.797351 0.594885
vn 0.000000 1.000000 0.000000
vn 0.000000 1.000000 0.000000
vn 0.000000 1.000000 0.000000
vn 0.000000 1.000000 0.000000
vn -1.000000 0.000000 0.000000
vn -1.000000 0.000000 0.000000
vn -1.000000 0.000000 0.000000
vn -1.000000 0.000000 0.000000
vn 0.125801 -0.992034 -0.005005
vn 0.125801 -0.992034 -0.005005
vn 0.125801 -0.992034 -0.005005
vn 0.125801 -0.992034 -0.005005
vn 0.000000 1.000000 0.000000
vn 0.000000 1.000000 0.000000
vn 0.000000 1.000000 0.000000
vn 0.000000 1.000000 0.000000
vn -0.125801 -0.992034 -0.005005
vn -0.125801 -0.992034 -0.005005
vn -0.125801 -0.992034 -0.005005
vn -0.125801 -0.992034 -0.005005
vn 1.000000 0.000000 0.000000
vn 1.000000 0.000000 0.000000
vn 1.000000 0.000000 0.000000
vn 1.000000 0.000000 0.000000
# 698 uv coords
vt 0.855178 0.229863
vt 0.855178 0.229863
vt 0.890398 0.147803
vt 0.962737 0.161633
vt 0.968128 0.029685
vt 0.968128 0.029685
vt 0.890564 0.041142
vt 0.890564 0.041142
vt 0.782093 0.402665
vt 0.782093 0.394310
vt 0.782093 0.384195
vt 0.782093 0.376184
vt 0.782093 0.373338
vt 0.782093 0.376743
vt 0.782093 0.385098
vt 0.782093 0.395212
vt 0.782093 0.403223
vt 0.782093 0.406070
vt 0.787612 0.402665
vt 0.787612 0.394310
vt 0.787612 0.384195
vt 0.787612 0.376184
vt 0.787612 0.373338
vt 0.787612 0.376743
vt 0.787612 0.385098
vt 0.787612 0.395212
vt 0.787612 0.403223
vt 0.787612 0.406070
vt 0.782093 0.389704
vt 0.787612 0.389704
vt 0.782093 0.402665
vt 0.782093 0.394310
vt 0.782093 0.384195
vt 0.782093 0.376184
vt 0.782093 0.373338
vt 0.782093 0.376743
vt 0.782093 0.385098
vt 0.782093 0.395212
vt 0.782093 0.403223
vt 0.782093 0.406070
vt 0.776574 0.402665
vt 0.776574 0.394310
vt 0.776574 0.384195
vt 0.776574 0.376184
vt 0.776574 0.373338
vt 0.776574 0.376743
vt 0.776574 0.385098
vt 0.776574 0.395212
vt 0.776574 0.403223
vt 0.776574 0.406070
vt 0.782093 0.389704
vt 0.776574 0.389704
vt 0.856545 0.381152
vt 0.856545 0.381152
vt 0.318113 0.374159
vt 0.483966 0.534155
vt 0.603079 0.537814
vt 0.599583 0.346765
vt 0.480122 0.349313
vt 0.783567 0.542372
vt 0.604919 0.511277
vt 0.484655 0.509831
vt 0.480782 0.374109
vt 0.339010 0.378044
vt 0.746858 0.544992
vt 0.755241 0.350523
vt 0.750333 0.520569
vt 0.479263 0.310812
vt 0.600090 0.308545
vt 0.756573 0.312264
vt 0.785365 0.580767
vt 0.746696 0.582260
vt 0.601417 0.576629
vt 0.539760 0.309454
vt 0.540544 0.348002
vt 0.541342 0.372792
vt 0.544472 0.510614
vt 0.543325 0.536367
vt 0.540703 0.574556
vt 0.959059 0.665051
vt 0.959064 0.605476
vt 0.854252 0.609536
vt 0.853209 0.665065
vt 0.853439 0.703173
vt 0.958036 0.486669
vt 0.342876 0.470620
vt 0.341991 0.496841
vt 0.587542 0.576174
vt 0.589553 0.537449
vt 0.590833 0.511167
vt 0.853398 0.694943
vt 0.958629 0.695583
vt 0.588188 0.371791
vt 0.586673 0.347130
vt 0.586278 0.308621
vt 0.339168 0.383603
vt 0.950558 0.605583
vt 0.950585 0.664877
vt 0.950416 0.694599
vt 0.950355 0.708848
vt 0.602823 0.380955
vt 0.749653 0.431527
vt 0.789564 0.435336
vt 0.828049 0.434360
vt 0.341010 0.465808
vt 0.896502 0.477650
vt 0.862705 0.609275
vt 0.862389 0.665318
vt 0.862399 0.695592
vt 0.236060 0.489049
vt 0.142507 0.399206
vt 0.940466 0.290296
vt 0.940466 0.325403
vt 0.843582 0.015503
vt 0.843582 0.032749
vt 0.003900 0.032749
vt 0.003900 0.015503
vt 0.843582 0.049364
vt 0.003900 0.049364
vt 0.843582 0.065577
vt 0.003900 0.065577
vt 0.843582 0.082191
vt 0.003900 0.082191
vt 0.843582 0.099433
vt 0.003900 0.099433
vt 0.843582 0.116675
vt 0.003900 0.116675
vt 0.843582 0.133290
vt 0.003900 0.133290
vt 0.843582 0.149503
vt 0.003900 0.149503
vt 0.843582 0.166119
vt 0.003900 0.166119
vt 0.843582 0.183364
vt 0.003900 0.183364
vt 0.909871 0.067577
vt 0.891057 0.072678
vt 0.872056 0.065733
vt 0.921311 0.052377
vt 0.860124 0.049396
vt 0.921004 0.032887
vt 0.859818 0.029906
vt 0.909073 0.016551
vt 0.871258 0.014708
vt 0.890071 0.009606
vt 0.860124 0.049396
vt 0.859818 0.029906
vt 0.871258 0.014708
vt 0.872056 0.065733
vt 0.890071 0.009606
vt 0.891057 0.072678
vt 0.909073 0.016551
vt 0.909871 0.067577
vt 0.921004 0.032887
vt 0.921311 0.052377
vt 0.995052 0.019846
vt 0.994783 0.036913
vt 0.984336 0.051219
vt 0.985034 0.006535
vt 0.967696 0.057300
vt 0.968559 0.002069
vt 0.951221 0.052833
vt 0.951920 0.008150
vt 0.941203 0.039522
vt 0.941472 0.022455
vt 0.775793 0.628324
vt 0.790009 0.628324
vt 0.790009 0.746742
vt 0.775793 0.746742
vt 0.804578 0.628324
vt 0.804578 0.746742
vt 0.761225 0.628324
vt 0.761225 0.746742
vt 0.819699 0.628324
vt 0.819699 0.746742
vt 0.746106 0.628324
vt 0.746106 0.746742
vt 0.730987 0.628324
vt 0.730987 0.746742
vt 0.716419 0.628324
vt 0.716419 0.746742
vt 0.702203 0.628324
vt 0.702203 0.746742
vt 0.687634 0.628324
vt 0.687634 0.746742
vt 0.672513 0.628324
vt 0.672513 0.746742
vt 0.951221 0.052833
vt 0.941203 0.039522
vt 0.941472 0.022455
vt 0.967696 0.057300
vt 0.951920 0.008150
vt 0.984336 0.051219
vt 0.968559 0.002069
vt 0.994783 0.036913
vt 0.985034 0.006535
vt 0.995052 0.019846
vt 0.073900 0.579785
vt 0.073777 0.593970
vt 0.037057 0.593650
vt 0.037181 0.579464
vt 0.073648 0.608693
vt 0.036929 0.608373
vt 0.074021 0.565942
vt 0.037302 0.565622
vt 0.073520 0.623416
vt 0.036800 0.623095
vt 0.074145 0.551758
vt 0.037425 0.551437
vt 0.073396 0.637601
vt 0.036676 0.637281
vt 0.074273 0.537037
vt 0.037554 0.536717
vt 0.073275 0.651444
vt 0.036555 0.651123
vt 0.073151 0.665628
vt 0.036432 0.665308
vt 0.073023 0.680350
vt 0.036303 0.680029
vt 0.889811 0.185382
vt 0.867391 0.179305
vt 0.853759 0.161192
vt 0.912454 0.177107
vt 0.854123 0.137968
vt 0.926672 0.157640
vt 0.868341 0.118499
vt 0.927037 0.134414
vt 0.890984 0.110224
vt 0.913403 0.116301
vt 0.887801 0.101453
vt 0.887864 0.103026
vt 0.881362 0.091561
vt 0.881840 0.089916
vt 0.887322 0.104471
vt 0.880333 0.093094
vt 0.888419 0.099571
vt 0.882541 0.088378
vt 0.893427 0.102639
vt 0.885449 0.090721
vt 0.889843 0.097861
vt 0.883355 0.087332
vt 0.897490 0.097965
vt 0.889812 0.087042
vt 0.892105 0.097192
vt 0.884693 0.087036
vt 0.896003 0.097892
vt 0.888199 0.087270
vt 0.894369 0.097379
vt 0.886496 0.087082
vt 0.984544 0.169601
vt 0.976430 0.180382
vt 0.963086 0.183999
vt 0.984326 0.155778
vt 0.949610 0.179074
vt 0.975863 0.144192
vt 0.941147 0.167487
vt 0.962387 0.139267
vt 0.940930 0.153664
vt 0.949043 0.142885
vt 0.925057 0.120451
vt 0.916928 0.098691
vt 0.932719 0.098825
vt 0.937557 0.111776
vt 0.923698 0.077058
vt 0.936748 0.085950
vt 0.944982 0.134025
vt 0.949415 0.119855
vt 0.942782 0.063815
vt 0.948106 0.078068
vt 0.969089 0.134230
vt 0.963763 0.119977
vt 0.966888 0.064020
vt 0.962454 0.078191
vt 0.988172 0.120986
vt 0.975121 0.112095
vt 0.986811 0.077593
vt 0.974312 0.086269
vt 0.994941 0.099352
vt 0.979150 0.099220
vt 0.840651 0.414154
vt 0.827904 0.403989
vt 0.820832 0.389302
vt 0.856546 0.417783
vt 0.820833 0.373002
vt 0.872441 0.414153
vt 0.827906 0.358314
vt 0.885184 0.403989
vt 0.840652 0.348150
vt 0.892257 0.389302
vt 0.856546 0.344523
vt 0.892257 0.373002
vt 0.872442 0.348152
vt 0.885186 0.358317
vt 0.762321 0.777294
vt 0.777285 0.777293
vt 0.777286 0.818047
vt 0.762324 0.818048
vt 0.792249 0.777294
vt 0.792248 0.818047
vt 0.807212 0.777294
vt 0.807213 0.818047
vt 0.822174 0.777293
vt 0.822178 0.818047
vt 0.837138 0.777291
vt 0.837142 0.818044
vt 0.852105 0.777290
vt 0.852104 0.818044
vt 0.867069 0.777291
vt 0.867067 0.818044
vt 0.882034 0.777291
vt 0.882032 0.818045
vt 0.896997 0.777291
vt 0.896997 0.818045
vt 0.911961 0.777292
vt 0.911961 0.818046
vt 0.926924 0.777293
vt 0.926924 0.818047
vt 0.941889 0.777293
vt 0.941888 0.818047
vt 0.956851 0.777294
vt 0.956851 0.818047
vt 0.971814 0.777293
vt 0.971815 0.818047
vt 0.872441 0.348151
vt 0.885186 0.358317
vt 0.892257 0.373002
vt 0.856546 0.344523
vt 0.892257 0.389303
vt 0.840652 0.348150
vt 0.885185 0.403989
vt 0.827906 0.358314
vt 0.872441 0.414153
vt 0.820833 0.373001
vt 0.856546 0.417782
vt 0.820832 0.389302
vt 0.840650 0.414154
vt 0.827905 0.403989
vt 0.093090 0.664199
vt 0.087971 0.664127
vt 0.093293 0.650585
vt 0.088174 0.650504
vt 0.093520 0.636969
vt 0.088402 0.636883
vt 0.093752 0.623349
vt 0.088634 0.623268
vt 0.093953 0.609721
vt 0.088833 0.609659
vt 0.094084 0.596088
vt 0.088965 0.596054
vt 0.094134 0.582453
vt 0.089014 0.582450
vt 0.094107 0.568822
vt 0.088987 0.568843
vt 0.094024 0.555195
vt 0.088903 0.555230
vt 0.092912 0.677815
vt 0.093913 0.541574
vt 0.087792 0.677747
vt 0.088793 0.541615
vt 0.867683 0.191372
vt 0.887920 0.206074
vt 0.895650 0.229865
vt 0.842671 0.191373
vt 0.887919 0.253654
vt 0.822436 0.206075
vt 0.867683 0.268355
vt 0.814706 0.229865
vt 0.842672 0.268354
vt 0.822437 0.253655
vt 0.822436 0.206075
vt 0.842671 0.191373
vt 0.867683 0.191372
vt 0.814706 0.229865
vt 0.887920 0.206074
vt 0.822437 0.253655
vt 0.895650 0.229865
vt 0.842672 0.268354
vt 0.887919 0.253654
vt 0.867683 0.268355
vt 0.822436 0.206075
vt 0.842671 0.191373
vt 0.855178 0.229863
vt 0.867683 0.191372
vt 0.814706 0.229865
vt 0.887920 0.206074
vt 0.822437 0.253655
vt 0.895650 0.229865
vt 0.842672 0.268354
vt 0.887919 0.253654
vt 0.867683 0.268355
vt 0.867683 0.191372
vt 0.887920 0.206074
vt 0.855178 0.229863
vt 0.895650 0.229865
vt 0.842671 0.191373
vt 0.887919 0.253654
vt 0.822436 0.206075
vt 0.867683 0.268355
vt 0.814706 0.229865
vt 0.842672 0.268354
vt 0.822437 0.253655
vt 0.093520 0.636969
vt 0.093293 0.650585
vt 0.088174 0.650504
vt 0.088402 0.636883
vt 0.093752 0.623349
vt 0.088634 0.623268
vt 0.093090 0.664199
vt 0.087971 0.664127
vt 0.093953 0.609721
vt 0.088833 0.609659
vt 0.092912 0.677815
vt 0.087792 0.677747
vt 0.094084 0.596088
vt 0.088965 0.596054
vt 0.094134 0.582453
vt 0.089014 0.582450
vt 0.094107 0.568822
vt 0.088987 0.568843
vt 0.094024 0.555195
vt 0.088903 0.555230
vt 0.088793 0.541615
vt 0.093913 0.541574
vt 0.902442 0.327650
vt 0.904064 0.289569
vt 0.903883 0.207899
vt 0.940468 0.207928
vt 0.976868 0.289569
vt 0.978490 0.327650
vt 0.940467 0.437671
vt 0.904338 0.438085
vt 0.977054 0.207901
vt 0.976595 0.438085
vt 0.280292 0.373959
vt 0.179504 0.239695
vt 0.051578 0.261118
vt 0.621349 0.764645
vt 0.469228 0.666905
vt 0.599156 0.764362
vt 0.460498 0.706161
vt 0.407549 0.653179
vt 0.579205 0.853832
vt 0.597858 0.770021
vt 0.571881 0.885411
vt 0.454763 0.731421
vt 0.398885 0.692498
vt 0.360079 0.642840
vt 0.576317 0.858376
vt 0.418873 0.894671
vt 0.959544 0.858065
vt 0.393011 0.717720
vt 0.351820 0.682198
vt 0.345950 0.639946
vt 0.959463 0.912386
vt 0.357632 0.884838
vt 0.352536 0.924485
vt 0.830803 0.851147
vt 0.345238 0.707145
vt 0.338672 0.679192
vt 0.184937 0.611829
vt 0.828066 0.955967
vt 0.310069 0.876525
vt 0.304241 0.916594
vt 0.830765 0.859644
vt 0.771210 0.851943
vt 0.178499 0.651281
vt 0.828219 0.947530
vt 0.314112 0.849345
vt 0.772512 0.957755
vt 0.289941 0.914235
vt 0.296140 0.874143
vt 0.771482 0.860424
vt 0.740689 0.852713
vt 0.086819 0.722349
vt 0.772143 0.948621
vt 0.299663 0.846587
vt 0.742350 0.958341
vt 0.147424 0.852240
vt 0.140002 0.890441
vt 0.741774 0.860930
vt 0.328379 0.713548
vt 0.167694 0.735410
vt 0.126038 0.731182
vt 0.741933 0.949163
vt 0.148837 0.826520
vt 0.110361 0.842085
vt 0.100703 0.881043
vt 0.660122 0.772157
vt 0.361704 0.858229
vt 0.423123 0.869622
vt 0.726277 0.948532
vt 0.727520 0.861091
vt 0.048599 0.222740
vt 0.190865 0.212212
vt 0.234937 0.263854
vt 0.202545 0.289681
vt 0.215388 0.349450
vt 0.073679 0.343503
vt 0.041117 0.261271
vt 0.038231 0.223885
vt 0.062959 0.342816
vt 0.316923 0.282760
vt 0.287559 0.310466
vt 0.204639 0.312741
vt 0.240953 0.302787
vt 0.251265 0.339250
vt 0.148624 0.370105
vt 0.260166 0.459038
vt 0.268081 0.465830
vt 0.244614 0.495075
vt 0.171345 0.544614
vt 0.050973 0.469601
vt 0.095287 0.427488
vt 0.083103 0.387889
vt 0.180585 0.550093
vt 0.027096 0.440940
vt 0.056178 0.416649
vt 0.080551 0.445350
vt 0.013358 0.396708
vt 0.004735 0.357267
vt 0.885350 0.486896
vt 0.892769 0.486981
vt 0.951691 0.475633
vt 0.951491 0.486051
vt 0.835301 0.606991
vt 0.866136 0.482488
vt 0.894509 0.458800
vt 0.950867 0.455944
vt 0.886109 0.481172
vt 0.977426 0.486243
vt 0.978604 0.605476
vt 0.957231 0.477033
vt 0.833566 0.664649
vt 0.882479 0.461027
vt 0.976989 0.476229
vt 0.978548 0.665285
vt 0.862598 0.711464
vt 0.861912 0.704898
vt 0.833788 0.695448
vt 0.978025 0.695816
vt 0.951949 0.727592
vt 0.863409 0.731083
vt 0.856027 0.711530
vt 0.834472 0.705050
vt 0.977923 0.704979
vt 0.958109 0.705405
vt 0.961178 0.725977
vt 0.835980 0.714583
vt 0.949839 0.849937
vt 0.950137 0.856662
vt 0.950125 0.916019
vt 0.950329 0.923421
vt 0.830502 0.831613
vt 0.949573 0.830397
vt 0.956121 0.922750
vt 0.956147 0.849839
vt 0.978405 0.856770
vt 0.978404 0.913751
vt 0.954976 0.942573
vt 0.830867 0.974877
vt 0.773354 0.977351
vt 0.770737 0.832456
vt 0.976442 0.925873
vt 0.976625 0.846473
vt 0.742922 0.977932
vt 0.733344 0.958631
vt 0.733048 0.949648
vt 0.727174 0.957420
vt 0.706915 0.948524
vt 0.708743 0.859749
vt 0.740232 0.833318
vt 0.733903 0.978153
vt 0.707256 0.958011
vt 0.710251 0.850500
vt 0.730870 0.853323
vt 0.731077 0.833517
vt 0.301046 0.835276
vt 0.151804 0.805803
vt 0.340684 0.731886
vt 0.320060 0.823369
vt 0.111188 0.797035
vt 0.168920 0.729890
vt 0.330363 0.703664
vt 0.324192 0.832448
vt 0.348049 0.725865
vt 0.071978 0.788199
vt 0.127201 0.726024
vt 0.333641 0.834445
vt 0.147873 0.821021
vt 0.357522 0.728017
vt 0.032164 0.779229
vt 0.047004 0.713382
vt 0.087979 0.717200
vt 0.365008 0.840933
vt 0.107110 0.838885
vt 0.388942 0.735065
vt 0.048163 0.708232
vt 0.423321 0.852902
vt 0.095176 0.879334
vt 0.167850 0.674657
vt 0.450695 0.748839
vt 0.558120 0.846765
vt 0.297960 0.956974
vt 0.283280 0.954590
vt 0.132536 0.930117
vt 0.092372 0.921113
vt 0.086728 0.919660
vt 0.137123 0.645318
vt 0.353368 0.599899
vt 0.368223 0.602877
vt 0.574013 0.776465
vt 0.569234 0.841402
vt 0.346589 0.964642
vt 0.143381 0.605190
vt 0.191839 0.571677
vt 0.416207 0.613270
vt 0.603475 0.738048
vt 0.597916 0.763361
vt 0.582076 0.783267
vt 0.596870 0.878178
vt 0.578812 0.856076
vt 0.583214 0.884926
vt 0.573236 0.925780
vt 0.416613 0.933836
vt 0.409442 0.974257
vt 0.150163 0.564804
vt 0.478072 0.627052
vt 0.612209 0.698816
vt 0.621981 0.750031
vt 0.636378 0.886470
vt 0.584628 0.925181
vt 0.621083 0.658983
vt 0.662859 0.757037
vt 0.699999 0.780350
vt 0.695002 0.804719
vt 0.655060 0.796451
vt 0.703019 0.765329
vt 0.751422 0.500614
vt 0.605734 0.500394
vt 0.602808 0.371303
vt 0.749533 0.426112
vt 0.791217 0.499963
vt 0.590102 0.485658
vt 0.587839 0.395879
vt 0.789437 0.430275
vt 0.582047 0.388849
vt 0.829700 0.498981
vt 0.584523 0.493415
vt 0.827921 0.429306
vt 0.572750 0.389100
vt 0.867121 0.433361
vt 0.868772 0.497983
vt 0.752267 0.515583
vt 0.575275 0.493522
vt 0.866992 0.428306
vt 0.541921 0.389843
vt 0.787219 0.539971
vt 0.544602 0.493753
vt 0.481347 0.391232
vt 0.760869 0.374471
vt 0.790875 0.580192
vt 0.487595 0.494087
vt 0.360357 0.394117
vt 0.586102 0.269565
vt 0.600614 0.269545
vt 0.795217 0.352662
vt 0.791284 0.619647
vt 0.785713 0.619960
vt 0.746304 0.620923
vt 0.600138 0.615777
vt 0.585898 0.615272
vt 0.362137 0.463116
vt 0.340359 0.377337
vt 0.339871 0.352525
vt 0.539091 0.270353
vt 0.351512 0.398995
vt 0.757604 0.273259
vt 0.796847 0.313802
vt 0.538784 0.613388
vt 0.352703 0.455999
vt 0.339005 0.314048
vt 0.478408 0.271726
vt 0.340961 0.467990
vt 0.319865 0.485367
vt 0.320255 0.360313
vt 0.798031 0.274603
vt 0.477951 0.610670
vt 0.478767 0.571362
vt 0.333169 0.534503
vt 0.331437 0.494266
vt 0.338116 0.274976
vt 0.281210 0.485763
vt 0.280550 0.359244
vt 0.322581 0.531811
vt 0.280502 0.397720
vt 0.241441 0.398014
vt 0.241306 0.374191
vt 0.241279 0.359520
# 490 polygons
usemtl initialShadingGroup
s off
g pCylinder31
f 1/340/1 2/338/2 12/339/3 11/341/4
f 2/338/5 3/356/6 13/358/7 12/339/8
f 3/357/9 4/354/10 14/355/11 13/359/12
f 4/354/13 5/352/14 15/353/15 14/355/16
f 5/352/17 6/350/18 16/351/19 15/353/20
f 6/350/21 7/348/22 17/349/23 16/351/24
f 7/348/25 8/346/26 18/347/27 17/349/28
f 8/346/29 9/344/30 19/345/31 18/347/32
f 9/344/33 10/342/34 20/343/35 19/345/36
f 10/342/37 1/340/38 11/341/39 20/343/40
f 2/378/41 1/379/42 21/1/43
f 3/376/44 2/378/45 21/1/46
f 4/374/47 3/376/48 21/1/49
f 5/372/50 4/374/51 21/1/52
f 6/371/53 5/372/54 21/1/55
f 7/370/56 6/371/57 21/1/58
f 8/373/59 7/370/60 21/1/61
f 9/375/62 8/373/63 21/1/64
f 10/377/65 9/375/66 21/1/67
f 1/379/68 10/377/69 21/1/70
f 11/366/71 12/368/72 22/2/73
f 12/368/74 13/369/75 22/2/76
f 13/369/77 14/367/78 22/2/79
f 14/367/80 15/365/81 22/2/82
f 15/365/83 16/363/84 22/2/85
f 16/363/86 17/360/87 22/2/88
f 17/360/89 18/361/90 22/2/91
f 18/361/92 19/362/93 22/2/94
f 19/362/95 20/364/96 22/2/97
f 20/364/98 11/366/99 22/2/100
f 23/404/101 33/403/102 34/408/103 24/409/104
f 24/409/105 34/408/106 35/412/107 25/413/108
f 25/422/109 35/423/110 36/420/111 26/421/112
f 26/421/113 36/420/114 37/418/115 27/419/116
f 27/419/117 37/418/118 38/416/119 28/417/120
f 28/417/121 38/416/122 39/414/123 29/415/124
f 29/415/125 39/414/126 40/410/127 30/411/128
f 30/411/129 40/410/130 41/406/131 31/407/132
f 31/407/133 41/406/134 42/402/135 32/405/136
f 32/405/137 42/402/138 33/403/139 23/404/140
f 24/400/141 43/393/142 23/398/143
f 25/401/144 43/393/145 24/400/146
f 26/399/147 43/393/148 25/401/149
f 27/397/150 43/393/151 26/399/152
f 28/395/153 43/393/154 27/397/155
f 29/391/156 43/393/157 28/395/158
f 30/392/159 43/393/160 29/391/161
f 31/394/162 43/393/163 30/392/164
f 32/396/165 43/393/166 31/394/167
f 23/398/168 43/393/169 32/396/170
f 33/390/171 44/382/172 34/389/173
f 34/389/174 44/382/175 35/387/176
f 35/387/177 44/382/178 36/385/179
f 36/385/180 44/382/181 37/383/182
f 37/383/183 44/382/184 38/381/185
f 38/381/186 44/382/187 39/380/188
f 39/380/189 44/382/190 40/384/191
f 40/384/192 44/382/193 41/386/194
f 41/386/195 44/382/196 42/388/197
f 42/388/198 44/382/199 33/390/200
g pCylinder21 Turret2
f 45/206/201 46/210/202 56/211/203 55/207/204
f 46/210/205 47/214/206 57/215/207 56/211/208
f 47/214/209 48/216/210 58/217/211 57/215/212
f 48/216/213 49/218/214 59/219/215 58/217/216
f 49/212/217 50/208/218 60/209/219 59/213/220
f 50/208/221 51/204/222 61/205/223 60/209/224
f 51/204/225 52/198/226 62/201/227 61/205/228
f 52/198/229 53/199/230 63/200/231 62/201/232
f 53/199/233 54/202/234 64/203/235 63/200/236
f 54/202/237 45/206/238 55/207/239 64/203/240
f 46/227/241 45/225/242 65/3/243
f 47/229/244 46/227/245 65/3/246
f 48/228/247 47/229/248 65/3/249
f 49/226/250 48/228/251 65/3/252
f 50/224/253 49/226/254 65/3/255
f 51/222/256 50/224/257 65/3/258
f 52/221/259 51/222/260 65/3/261
f 53/220/262 52/221/263 65/3/264
f 54/223/265 53/220/266 65/3/267
f 45/225/268 54/223/269 65/3/270
f 76/256/271 77/258/272 78/4/273
f 77/258/274 79/259/275 78/4/276
f 79/259/277 80/257/278 78/4/279
f 80/257/280 81/255/281 78/4/282
f 81/255/283 82/253/284 78/4/285
f 82/253/286 83/250/287 78/4/288
f 83/250/289 84/251/290 78/4/291
f 84/251/292 85/252/293 78/4/294
f 85/252/295 86/254/296 78/4/297
f 86/254/298 76/256/299 78/4/300
f 55/260/301 56/261/302 67/262/303 66/263/304
f 56/261/305 57/264/306 68/265/307 67/262/308
f 57/264/309 58/268/310 69/269/311 68/265/312
f 58/268/313 59/272/314 70/273/315 69/269/316
f 59/272/317 60/276/318 71/277/319 70/273/320
f 60/276/321 61/278/322 72/279/323 71/277/324
f 61/278/325 62/274/326 73/275/327 72/279/328
f 62/274/329 63/270/330 74/271/331 73/275/332
f 63/270/333 64/266/334 75/267/335 74/271/336
f 64/266/337 55/260/338 66/263/339 75/267/340
f 66/238/341 67/242/342 77/243/343 76/239/344
f 67/242/345 68/246/346 79/247/347 77/243/348
f 68/246/349 69/248/350 80/249/351 79/247/352
f 69/248/353 70/244/354 81/245/355 80/249/356
f 70/244/357 71/240/358 82/241/359 81/245/360
f 71/240/361 72/236/362 83/237/363 82/241/364
f 72/236/365 73/230/366 84/233/367 83/237/368
f 73/230/369 74/231/370 85/232/371 84/233/372
f 74/231/373 75/234/374 86/235/375 85/232/376
f 75/234/377 66/238/378 76/239/379 86/235/380
g pCylinder19 Turret2
f 87/184/381 88/182/382 98/183/383 97/185/384
f 88/182/385 89/180/386 99/181/387 98/183/388
f 89/180/389 90/178/390 100/179/391 99/181/392
f 90/178/393 91/176/394 101/177/395 100/179/396
f 91/176/397 92/172/398 102/173/399 101/177/400
f 92/172/401 93/166/402 103/169/403 102/173/404
f 93/166/405 94/167/406 104/168/407 103/169/408
f 94/167/409 95/170/410 105/171/411 104/168/412
f 95/170/413 96/174/414 106/175/415 105/171/416
f 96/186/417 87/184/418 97/185/419 106/187/420
f 88/156/421 87/157/422 107/5/423
f 89/159/424 88/156/425 107/5/426
f 90/161/427 89/159/428 107/5/429
f 91/163/430 90/161/431 107/5/432
f 92/165/433 91/163/434 107/5/435
f 93/164/436 92/165/437 107/5/438
f 94/162/439 93/164/440 107/5/441
f 95/160/442 94/162/443 107/5/444
f 96/158/445 95/160/446 107/5/447
f 87/157/448 96/158/449 107/5/450
f 97/196/451 98/197/452 108/6/453
f 98/197/454 99/195/455 108/6/456
f 99/195/457 100/193/458 108/6/459
f 100/193/460 101/191/461 108/6/462
f 101/191/463 102/188/464 108/6/465
f 102/188/466 103/189/467 108/6/468
f 103/189/469 104/190/470 108/6/471
f 104/190/472 105/192/473 108/6/474
f 105/192/475 106/194/476 108/6/477
f 106/194/478 97/196/479 108/6/480
g pCylinder20 Turret2
f 109/115/481 110/118/482 120/119/483 119/116/484
f 110/118/485 111/120/486 121/121/487 120/119/488
f 111/120/489 112/122/490 122/123/491 121/121/492
f 112/122/493 113/124/494 123/125/495 122/123/496
f 113/124/497 114/126/498 124/127/499 123/125/500
f 114/126/501 115/128/502 125/129/503 124/127/504
f 115/128/505 116/130/506 126/131/507 125/129/508
f 116/130/509 117/132/510 127/133/511 126/131/512
f 117/132/513 118/134/514 128/135/515 127/133/516
f 118/114/517 109/115/518 119/116/519 128/117/520
f 110/138/521 109/140/522 129/7/523
f 111/137/524 110/138/525 129/7/526
f 112/136/527 111/137/528 129/7/529
f 113/139/530 112/136/531 129/7/532
f 114/141/533 113/139/534 129/7/535
f 115/143/536 114/141/537 129/7/538
f 116/145/539 115/143/540 129/7/541
f 117/144/542 116/145/543 129/7/544
f 118/142/545 117/144/546 129/7/547
f 109/140/548 118/142/549 129/7/550
f 119/146/551 120/147/552 130/8/553
f 120/147/554 121/148/555 130/8/556
f 121/148/557 122/150/558 130/8/559
f 122/150/560 123/152/561 130/8/562
f 123/152/563 124/154/564 130/8/565
f 124/154/566 125/155/567 130/8/568
f 125/155/569 126/153/570 130/8/571
f 126/153/572 127/151/573 130/8/574
f 127/151/575 128/149/576 130/8/577
f 128/149/578 119/146/579 130/8/580
g pCylinder12 Turret2
f 131/9/581 132/10/582 142/20/583 141/19/584
f 132/10/585 133/11/586 143/21/587 142/20/588
f 133/11/589 134/12/590 144/22/591 143/21/592
f 134/12/593 135/13/594 145/23/595 144/22/596
f 135/13/597 136/14/598 146/24/599 145/23/600
f 136/14/601 137/15/602 147/25/603 146/24/604
f 137/15/605 138/16/606 148/26/607 147/25/608
f 138/16/609 139/17/610 149/27/611 148/26/612
f 139/17/613 140/18/614 150/28/615 149/27/616
f 140/18/617 131/9/618 141/19/619 150/28/620
f 132/10/621 131/9/622 151/29/623
f 133/11/624 132/10/625 151/29/626
f 134/12/627 133/11/628 151/29/629
f 135/13/630 134/12/631 151/29/632
f 136/14/633 135/13/634 151/29/635
f 137/15/636 136/14/637 151/29/638
f 138/16/639 137/15/640 151/29/641
f 139/17/642 138/16/643 151/29/644
f 140/18/645 139/17/646 151/29/647
f 131/9/648 140/18/649 151/29/650
f 141/19/651 142/20/652 152/30/653
f 142/20/654 143/21/655 152/30/656
f 143/21/657 144/22/658 152/30/659
f 144/22/660 145/23/661 152/30/662
f 145/23/663 146/24/664 152/30/665
f 146/24/666 147/25/667 152/30/668
f 147/25/669 148/26/670 152/30/671
f 148/26/672 149/27/673 152/30/674
f 149/27/675 150/28/676 152/30/677
f 150/28/678 141/19/679 152/30/680
f 153/31/681 163/41/682 164/42/683 154/32/684
f 154/32/685 164/42/686 165/43/687 155/33/688
f 155/33/689 165/43/690 166/44/691 156/34/692
f 156/34/693 166/44/694 167/45/695 157/35/696
f 157/35/697 167/45/698 168/46/699 158/36/700
f 158/36/701 168/46/702 169/47/703 159/37/704
f 159/37/705 169/47/706 170/48/707 160/38/708
f 160/38/709 170/48/710 171/49/711 161/39/712
f 161/39/713 171/49/714 172/50/715 162/40/716
f 162/40/717 172/50/718 163/41/719 153/31/720
f 154/32/721 173/51/722 153/31/723
f 155/33/724 173/51/725 154/32/726
f 156/34/727 173/51/728 155/33/729
f 157/35/730 173/51/731 156/34/732
f 158/36/733 173/51/734 157/35/735
f 159/37/736 173/51/737 158/36/738
f 160/38/739 173/51/740 159/37/741
f 161/39/742 173/51/743 160/38/744
f 162/40/745 173/51/746 161/39/747
f 153/31/748 173/51/749 162/40/750
f 163/41/751 174/52/752 164/42/753
f 164/42/754 174/52/755 165/43/756
f 165/43/757 174/52/758 166/44/759
f 166/44/760 174/52/761 167/45/762
f 167/45/763 174/52/764 168/46/765
f 168/46/766 174/52/767 169/47/768
f 169/47/769 174/52/770 170/48/771
f 170/48/772 174/52/773 171/49/774
f 171/49/775 174/52/776 172/50/777
f 172/50/778 174/52/779 163/41/780
s 1
g pCylinder14 Turret2
f 175/302/781 176/304/782 190/305/783 189/303/784
f 176/304/782 177/306/785 191/307/786 190/305/783
f 177/306/785 178/308/787 192/309/788 191/307/786
f 178/308/787 179/310/789 193/311/790 192/309/788
f 179/310/789 180/312/791 194/313/792 193/311/790
f 180/312/791 181/314/793 195/315/794 194/313/792
f 181/314/793 182/316/795 196/317/796 195/315/794
f 182/316/795 183/318/797 197/319/798 196/317/796
f 183/318/797 184/320/799 198/321/800 197/319/798
f 184/320/799 185/322/801 199/323/802 198/321/800
f 185/294/801 186/295/803 200/296/804 199/297/802
f 186/295/803 187/298/805 201/299/806 200/296/804
f 187/298/805 188/300/807 202/301/808 201/299/806
f 188/300/807 175/302/781 189/303/784 202/301/808
s 2
f 176/286/809 175/288/810 203/53/811
f 177/284/812 176/286/809 203/53/811
f 178/282/813 177/284/812 203/53/811
f 179/281/814 178/282/813 203/53/811
f 180/280/815 179/281/814 203/53/811
f 181/283/816 180/280/815 203/53/811
f 182/285/817 181/283/816 203/53/811
f 183/287/818 182/285/817 203/53/811
f 184/289/819 183/287/818 203/53/811
f 185/291/820 184/289/819 203/53/811
f 186/293/821 185/291/820 203/53/811
f 187/292/822 186/293/821 203/53/811
f 188/290/823 187/292/822 203/53/811
f 175/288/810 188/290/823 203/53/811
s 3
f 189/330/824 190/332/825 204/54/826
f 190/332/825 191/334/827 204/54/826
f 191/334/827 192/336/828 204/54/826
f 192/336/828 193/337/829 204/54/826
f 193/337/829 194/335/830 204/54/826
f 194/335/830 195/333/831 204/54/826
f 195/333/831 196/331/832 204/54/826
f 196/331/832 197/329/833 204/54/826
f 197/329/833 198/327/834 204/54/826
f 198/327/834 199/324/835 204/54/826
f 199/324/835 200/325/836 204/54/826
f 200/325/836 201/326/837 204/54/826
f 201/326/837 202/328/838 204/54/826
f 202/328/838 189/330/824 204/54/826
s 1
g pCube12 Turret2
f 258/86/839 259/87/840 206/690/841 214/683/842
f 236/77/843 237/78/844 207/56/845 213/62/846
f 222/67/847 219/65/848 208/57/849 212/61/850
f 220/66/851 215/666/852 221/660/853
f 209/58/854 220/66/851 221/660/853 216/640/855
f 217/63/856 210/59/857 234/75/858 235/76/859
f 218/64/860 205/55/861 252/685/862 253/673/863
f 259/87/840 260/689/864 224/694/865 206/690/841
f 237/78/844 238/79/866 223/688/867 207/56/845
f 219/65/848 231/72/868 232/73/869 208/57/849
f 227/69/870 228/70/871 220/66/851 209/58/854
f 226/68/872 233/74/873 234/75/858 210/59/857
f 225/434/874 251/693/875 252/685/862 205/55/861
f 211/60/876 230/71/877 231/72/868 219/65/848
f 211/60/876 219/65/848 222/67/847
f 296/657/878 297/661/879 230/71/877 211/60/876
f 295/653/880 296/657/878 211/60/876 222/67/847
f 294/639/881 295/653/880 222/67/847 212/61/850
s 7
f 247/82/882 288/107/883 289/108/884 248/83/885
s 8
f 284/105/886 214/683/887 206/684/888 205/55/889 218/64/890 271/96/891
f 206/684/888 224/692/892 225/434/893 205/55/889
s 1
f 220/66/851 228/70/871 229/678/894 215/666/852
s 9
f 298/110/895 317/508/896 318/509/897 299/510/898
s 1
f 229/678/894 228/70/871 303/677/899 304/686/900
f 230/71/877 297/661/879 316/667/901 305/668/902
f 231/72/868 230/71/877 305/668/902 309/669/903
f 232/73/869 231/72/868 309/669/903 306/670/904
f 238/79/866 311/679/905 307/687/906 223/688/867
f 270/95/907 314/664/908 308/665/909 227/69/870
f 269/94/910 270/95/907 227/69/870 209/58/854
f 268/93/911 269/94/910 209/58/854 216/640/855
s 7
f 265/91/912 290/109/913 291/538/914 249/84/915
s 1
f 212/61/850 208/57/849 262/89/916 263/90/917
f 232/73/869 261/88/918 262/89/916 208/57/849
f 236/77/919 213/62/920 241/662/921 240/658/922
f 217/63/923 235/76/924 239/656/925 242/659/926
f 257/672/927 258/86/928 214/683/929 284/105/930 285/680/931
f 212/61/850 263/90/932 264/654/933 243/648/934
f 267/650/935 268/93/936 216/640/855 244/646/937
f 293/643/938 294/639/881 212/61/850 243/648/934
s 7
f 240/533/939 241/525/940 247/82/882 248/83/885
f 242/531/941 239/536/942 245/80/943 246/81/944
f 256/529/945 257/534/946 285/527/947 286/106/948
f 243/544/949 264/539/950 265/91/912 249/84/915
f 266/92/951 267/540/952 244/545/953 250/546/954
f 292/543/955 293/548/956 243/544/957 249/84/958
f 275/97/959 246/81/944 245/80/943 276/98/960
f 273/532/961 255/85/962 274/524/963
f 256/529/945 286/106/948 287/522/964
f 291/538/914 292/543/955 249/84/958
s 1
f 251/681/875 312/691/965 302/682/966 226/68/872
f 252/674/862 251/681/875 226/68/872 210/59/857
f 253/673/863 252/674/862 210/59/857 217/63/856
f 254/663/967 253/673/968 217/63/923 242/659/926
s 7
f 255/85/962 254/530/969 242/531/941 246/81/944
f 255/85/962 246/81/944 275/97/959 274/524/963
f 256/521/945 287/522/964 288/107/883 247/82/882
f 241/525/940 257/526/946 256/521/945 247/82/882
s 1
f 213/62/920 258/86/928 257/672/927 241/662/921
f 207/56/845 259/87/840 258/86/839 213/62/846
f 223/688/867 260/689/864 259/87/840 207/56/845
f 261/88/918 313/671/970 311/679/905 238/79/866
f 262/89/916 261/88/918 238/79/866 237/78/844
f 263/90/917 262/89/916 237/78/844 236/77/843
f 264/654/933 263/90/932 236/77/919 240/658/922
s 7
f 265/91/912 264/539/950 240/533/939 248/83/885
f 248/83/885 289/108/884 290/109/913 265/91/912
f 276/98/960 245/80/943 266/92/951 277/99/971
f 239/536/942 267/540/952 266/92/951 245/80/943
s 1
f 235/76/924 268/93/936 267/650/935 239/656/925
f 235/76/859 234/75/858 269/94/910 268/93/911
f 234/75/858 233/74/873 270/95/907 269/94/910
f 233/74/873 310/675/972 314/664/908 270/95/907
f 272/676/973 271/96/974 218/64/975 253/673/968 254/663/967
s 7
f 273/532/961 272/535/976 254/530/969 255/85/962
f 250/546/954 278/100/977 277/99/971 266/92/951
f 244/547/978 279/541/979 278/100/977 250/546/954
s 1
f 216/640/855 280/101/980 279/644/981 244/646/937
f 221/641/853 281/102/982 280/101/980 216/640/855
f 215/645/852 282/103/983 281/102/982 221/641/853
f 215/645/852 229/649/894 283/104/984 282/103/983
f 285/680/931 284/105/930 271/96/974 272/676/973
s 7
f 286/106/948 285/527/947 272/528/976 273/523/961
f 286/106/948 273/523/961 274/524/963 287/522/964
f 288/107/883 287/522/964 274/524/963 275/97/959
f 275/97/959 276/98/960 289/108/884 288/107/883
f 276/98/960 277/99/971 290/109/913 289/108/884
f 277/99/971 278/100/977 292/537/955 291/538/914 290/109/913
f 278/100/977 279/541/979 293/542/956 292/537/955
s 1
f 279/644/981 280/101/980 294/639/881 293/643/938
f 280/101/980 281/102/982 295/638/880 294/639/881
f 281/102/982 282/103/983 296/642/878 295/638/880
f 282/103/983 283/104/984 297/647/879 296/642/878
s off
f 224/515/985 260/511/986 298/110/987 299/510/988
f 260/511/989 223/512/990 421/518/991 418/513/992 300/111/993 298/110/994
s 16
f 223/512/995 307/516/996 420/517/997 421/518/998
s 17
f 225/434/999 224/692/1000 299/695/1001 318/696/1002 301/697/1003
s 1
f 301/697/1004 312/698/965 251/693/875 225/434/874
f 302/682/966 310/675/972 233/74/873 226/68/872
f 308/665/909 303/677/899 228/70/871 227/69/870
f 306/670/904 313/671/970 261/88/918 232/73/869
s 9
f 319/507/1005 317/508/896 298/110/895 300/111/1006
s 1
f 304/655/900 315/651/1007 283/104/984 229/649/894
f 315/651/1007 316/652/901 297/647/879 283/104/984
f 373/448/1008 329/621/1009 321/622/1010 374/444/1011
f 351/489/1012 328/490/1013 322/449/1014 352/455/1015
f 337/485/1016 327/476/1017 323/471/1018 334/478/1019
f 335/466/1020 336/600/1021 330/608/1022
f 324/459/1023 331/583/1024 336/600/1021 335/466/1020
f 332/445/1025 350/451/1026 349/446/1027 325/440/1028
f 333/439/1029 368/618/1030 367/629/1031 320/437/1032
f 374/444/1011 321/622/1010 339/631/1033 375/623/1034
f 352/455/1015 322/449/1014 338/624/1035 353/456/1036
f 334/478/1019 323/471/1018 347/470/1037 346/479/1038
f 342/453/1039 324/459/1023 335/466/1020 343/460/1040
f 341/438/1041 325/440/1028 349/446/1027 348/441/1042
f 340/488/1043 320/437/1032 367/629/1031 366/633/1044
f 326/486/1045 334/478/1019 346/479/1038 345/487/1046
f 326/486/1045 337/485/1016 334/478/1019
f 411/595/1047 326/486/1045 345/487/1046 412/599/1048
f 410/589/1049 337/485/1016 326/486/1045 411/595/1047
f 409/577/1050 327/476/1017 337/485/1016 410/589/1049
s 22
f 362/461/1051 363/469/1052 404/475/1053 403/467/1054
s 23
f 399/442/1055 386/443/1056 333/439/1057 320/437/1058 321/620/1059 329/621/1060
f 321/620/1059 320/437/1058 340/488/1061 339/630/1062
s 1
f 335/466/1020 330/608/1022 344/614/1063 343/460/1040
s 9
f 413/436/1064 414/499/1065 318/500/897 317/493/896
s 1
f 344/614/1063 304/626/900 303/615/899 343/460/1040
f 345/487/1046 305/606/902 316/607/901 412/599/1048
f 346/479/1038 309/605/903 305/606/902 345/487/1046
f 347/470/1037 306/604/904 309/605/903 346/479/1038
f 353/456/1036 338/624/1035 307/625/906 311/613/905
f 385/447/1066 342/453/1039 308/609/909 314/610/908
f 384/452/1067 324/459/1023 342/453/1039 385/447/1066
f 383/458/1068 331/583/1024 324/459/1023 384/452/1067
s 22
f 380/477/1069 364/566/1070 406/567/1071 405/484/1072
s 1
f 327/476/1017 378/468/1073 377/462/1074 323/471/1018
f 347/470/1037 323/471/1018 377/462/1074 376/463/1075
f 351/489/1076 355/594/1077 356/598/1078 328/490/1079
f 332/445/1080 357/601/1081 354/596/1082 350/451/1083
f 372/602/1084 400/612/1085 399/442/1086 329/621/1087 373/448/1088
f 327/476/1017 358/584/1089 379/588/1090 378/468/1091
f 382/590/1092 359/585/1093 331/583/1024 383/458/1094
f 408/580/1095 358/584/1089 327/476/1017 409/577/1050
s 22
f 355/561/1096 363/469/1052 362/461/1051 356/560/1097
f 357/553/1098 361/457/1099 360/465/1100 354/562/1101
f 371/555/1102 401/454/1103 400/558/1104 372/563/1105
f 358/572/1106 364/566/1070 380/477/1069 379/565/1107
f 381/473/1108 365/575/1109 359/576/1110 382/571/1111
f 407/491/1112 364/568/1113 358/573/1114 408/569/1115
f 390/464/1116 391/472/1117 360/465/1100 361/457/1099
f 388/450/1118 389/550/1119 370/556/1120
f 371/555/1102 402/551/1121 401/454/1103
f 406/567/1071 364/568/1113 407/491/1112
s 1
f 366/628/1044 341/438/1041 302/627/966 312/632/965
f 367/617/1031 325/440/1028 341/438/1041 366/628/1044
f 368/618/1030 332/445/1025 325/440/1028 367/617/1031
f 369/611/1122 357/601/1081 332/445/1080 368/618/1123
s 22
f 370/549/1120 361/457/1099 357/553/1098 369/554/1124
f 370/549/1120 389/550/1119 390/464/1116 361/457/1099
f 371/552/1102 362/461/1051 403/467/1054 402/551/1121
f 356/560/1097 362/461/1051 371/552/1102 372/559/1105
s 1
f 328/490/1079 356/598/1078 372/602/1084 373/448/1088
f 322/449/1014 328/490/1013 373/448/1008 374/444/1011
f 338/624/1035 322/449/1014 374/444/1011 375/623/1034
f 376/463/1075 353/456/1036 311/613/905 313/603/970
f 377/462/1074 352/455/1015 353/456/1036 376/463/1075
f 378/468/1073 351/489/1012 352/455/1015 377/462/1074
f 379/588/1090 355/594/1077 351/489/1076 378/468/1091
s 22
f 380/477/1069 363/469/1052 355/561/1096 379/565/1107
f 363/469/1052 380/477/1069 405/484/1072 404/475/1053
f 391/472/1117 392/480/1125 381/473/1108 360/465/1100
f 354/562/1101 360/465/1100 381/473/1108 382/571/1111
s 1
f 350/451/1083 354/596/1082 382/590/1092 383/458/1094
f 350/451/1026 383/458/1068 384/452/1067 349/446/1027
f 349/446/1027 384/452/1067 385/447/1066 348/441/1042
f 348/441/1042 385/447/1066 314/610/908 310/616/972
f 387/619/1126 369/611/1122 368/618/1123 333/439/1127 386/443/1128
s 22
f 388/450/1118 370/556/1120 369/564/1124 387/557/1129
f 365/575/1109 381/473/1108 392/480/1125 393/492/1130
f 359/574/1131 365/575/1109 393/492/1130 394/570/1132
s 1
f 331/583/1024 359/585/1093 394/579/1133 395/481/1134
f 336/582/1021 331/583/1024 395/481/1134 396/482/1135
f 330/587/1022 336/582/1021 396/482/1135 397/483/1136
f 330/587/1022 397/483/1136 398/474/1137 344/593/1063
f 400/612/1085 387/619/1126 386/443/1128 399/442/1086
s 22
f 401/454/1103 388/450/1118 387/557/1129 400/558/1104
f 401/454/1103 402/551/1121 389/550/1119 388/450/1118
f 403/467/1054 390/464/1116 389/550/1119 402/551/1121
f 390/464/1116 403/467/1054 404/475/1053 391/472/1117
f 391/472/1117 404/475/1053 405/484/1072 392/480/1125
f 392/480/1125 405/484/1072 406/567/1071 407/491/1112 393/492/1130
f 393/492/1130 407/491/1112 408/569/1115 394/570/1132
s 1
f 394/579/1133 408/580/1095 409/577/1050 395/481/1134
f 395/481/1134 409/577/1050 410/578/1049 396/482/1135
f 396/482/1135 410/578/1049 411/581/1047 397/483/1136
f 397/483/1136 411/581/1047 412/586/1048 398/474/1137
s off
f 339/501/1138 414/499/1139 413/436/1140 375/498/1141
f 375/498/1142 413/436/1143 415/435/1144 416/496/1145 419/504/1146 338/497/1147
s 16
f 338/497/1148 419/504/1149 420/505/997 307/506/996
s 17
f 340/488/1150 301/634/1003 318/635/1002 414/636/1151 339/630/1152
s 1
f 301/634/1004 340/488/1043 366/633/1044 312/637/965
f 302/627/966 341/438/1041 348/441/1042 310/616/972
f 308/609/909 342/453/1039 343/460/1040 303/615/899
f 306/604/904 347/470/1037 376/463/1075 313/603/970
s 9
f 319/494/1005 415/435/1153 413/436/1064 317/493/896
s 1
f 304/597/900 344/593/1063 398/474/1137 315/592/1007
f 315/592/1007 398/474/1137 412/586/1048 316/591/901
s 34
f 417/495/1154 416/496/1155 415/435/1156 319/494/1157
f 418/513/1158 417/514/1154 319/507/1157 300/111/1159
s 35
f 423/112/1160 422/428/1161 424/429/1162 425/113/1163
f 426/425/1164 423/112/1160 425/113/1163 427/424/1165
s off
f 420/427/1166 419/432/1167 422/428/1168 423/112/1169
f 419/504/1170 416/496/1171 424/502/1172 422/503/1173
f 416/433/1174 417/430/1175 425/113/1176 424/429/1177
f 421/426/1178 420/427/1179 423/112/1180 426/425/1181
f 417/430/1182 418/431/1183 427/424/1184 425/113/1185
f 418/513/1186 421/518/1187 426/519/1188 427/520/1189
# totals: 427 698 1189 490
