# This file uses centimeters as units for non-parametric coordinates.

mtllib Monstr2.mtl
g default
v -4.246805 8.335019 9.846192
v -4.622480 8.710692 9.846192
v -3.871132 7.959344 9.846192
v -4.246805 7.843490 10.642163
v -3.871132 7.467815 10.642163
v -4.622480 8.219163 10.642163
v -2.550407 6.922077 9.739164
v -1.825854 6.787925 9.656321
v -3.143919 7.300276 9.972710
v -0.232369 6.787925 9.656321
v -4.152841 7.937454 10.642163
v -4.977590 10.813697 10.642163
v -4.152841 8.428985 9.846192
v -3.143919 7.545050 9.576328
v 1.085693 7.545050 9.576328
v -2.550407 7.166852 9.342782
v -4.977590 10.804468 9.846192
v -1.825854 7.032697 9.259939
v -3.918021 8.060832 10.442368
v 1.085693 7.300276 9.972710
v 0.492184 6.922077 9.739164
v -3.918021 8.305606 10.045987
v 1.859800 8.305606 10.045987
v -0.232369 7.032697 9.259939
v -5.321279 11.461942 9.846192
v -5.321174 11.470971 10.642163
v -5.520036 12.038499 9.846192
v -5.519620 12.047692 10.642163
v -5.539900 12.648033 9.846192
v 0.492184 7.166852 9.342782
v -2.034337 8.749158 10.457751
v -1.885163 8.898332 10.223112
v -2.308624 9.202453 10.430224
v -2.034337 8.749158 10.457751
v -2.308624 9.202453 10.430224
v -1.885163 8.898332 10.223112
v -1.581042 8.474870 10.430224
v -1.581042 8.474870 10.430224
v -5.538442 12.657314 10.642163
v -1.540620 8.749158 10.121522
v -2.034337 9.242875 10.121522
v -1.540620 8.749158 10.121522
v -2.034337 9.242875 10.121522
v -2.084249 8.699246 10.689682
v -2.084249 8.699246 10.689682
v -1.581042 9.202453 9.934727
v -1.581042 9.202453 9.934727
v -1.038239 8.382479 10.402696
v -2.401016 9.745255 10.402696
v -1.038239 8.382479 10.402696
v -2.401016 9.745255 10.402696
v -1.609413 8.410021 10.689682
v -2.373473 9.174082 10.689682
v -2.373473 9.174082 10.689682
v -1.609413 8.360786 10.689682
v -1.038239 8.675533 10.071383
v -1.038239 8.675533 10.071383
v -2.107962 9.745255 10.071383
v -2.107962 9.745255 10.071383
v -1.035328 9.209142 10.077489
v -1.035328 9.209142 10.077489
v -1.621463 9.745255 9.871807
v -1.621463 9.745255 9.871807
v -5.463222 13.299738 9.846192
v -5.463222 13.284286 10.642163
v -3.871132 12.540983 9.846192
v -4.622480 11.789633 9.846192
v -4.246805 12.165308 9.846192
v 1.859800 8.060832 10.442368
v -0.535858 8.749158 10.121522
v -2.034337 10.247636 10.121522
v -2.034337 10.247636 10.121522
v -0.535858 8.749158 10.121522
v -4.702839 12.537321 10.642163
v -4.152841 12.071342 9.846192
v -4.702839 12.552776 9.846192
v -5.008496 13.653964 9.916314
v -1.035328 9.590232 10.010637
v -1.035328 9.590232 10.010637
v -3.871132 12.049452 10.642163
v -4.246805 11.673777 10.642163
v -4.622480 11.298104 10.642163
v -4.152841 11.579813 10.642163
v -0.495437 8.474870 10.430224
v -2.308624 10.288058 10.430224
v -2.308624 10.288058 10.430224
v -0.495437 8.474870 10.430224
v -1.581042 10.288058 9.934727
v -0.665606 9.235554 10.140409
v -0.665606 9.235554 10.140409
v -1.581042 10.288058 9.934727
v -2.373476 10.316429 10.689682
v -2.373476 10.316429 10.689682
v -0.467066 8.410021 10.689682
v -0.467066 8.360786 10.689682
v -1.885163 10.592179 10.223112
v -0.191316 8.898332 10.223112
v -0.191316 8.898332 10.223112
v -1.885163 10.592179 10.223112
v -5.008503 14.385473 10.301930
v -5.008503 14.400927 10.207684
v -5.008496 13.638512 10.593298
v -0.638074 9.590232 10.077489
v -1.038239 10.328479 9.871807
v -1.038239 10.328479 9.871807
v -0.638074 9.590232 10.077489
v -2.034337 10.741353 10.457751
v -2.034337 10.741353 10.457751
v -0.042142 8.749158 10.457751
v -0.042142 8.749158 10.457751
v -0.042142 9.242875 10.121522
v -0.042142 9.242875 10.121522
v -1.540620 10.741353 10.121522
v -1.540620 10.741353 10.121522
v -0.495437 10.288058 9.934727
v -0.495437 10.288058 9.934727
v -2.084249 10.791265 10.689682
v -2.084249 10.791265 10.689682
v 0.007770 8.699246 10.689682
v 0.007770 8.699246 10.689682
v 0.232146 9.202453 10.430224
v -1.581042 11.015641 10.430224
v -1.581042 11.015641 10.430224
v 0.232146 9.202453 10.430224
v 0.031483 9.745255 10.071383
v 0.031483 9.745255 10.071383
v -1.038239 10.814978 10.071383
v -1.038239 10.814978 10.071383
v -0.535858 10.741353 10.121522
v -0.535858 10.741353 10.121522
v -0.042142 10.247636 10.121522
v -0.042142 10.247636 10.121522
v 0.324537 9.745255 10.402696
v 0.324537 9.745255 10.402696
v -1.038239 11.108034 10.402696
v -1.038239 11.108034 10.402696
v -1.609413 11.080489 10.689682
v 0.296995 9.174082 10.689682
v 0.296995 9.174082 10.689682
v -1.609413 11.129725 10.689682
v -0.191316 10.592179 10.223112
v -0.191316 10.592179 10.223112
v 2.188582 8.335019 9.846192
v 1.812907 7.959344 9.846192
v 2.564252 8.710689 9.846192
v 0.232146 10.288058 10.430224
v 0.232146 10.288058 10.430224
v -0.495437 11.015641 10.430224
v -0.495437 11.015641 10.430224
v 2.188582 7.843490 10.642163
v 2.564252 8.219161 10.642163
v 1.812907 7.467815 10.642163
v -0.042142 10.741353 10.457751
v -0.042142 10.741353 10.457751
v -0.467066 11.129725 10.689682
v -0.467066 11.080489 10.689682
v 0.296997 10.316429 10.689682
v 0.296997 10.316429 10.689682
v 0.007770 10.791265 10.689682
v 0.007770 10.791265 10.689682
v 2.094616 7.937454 10.642163
v 2.094616 8.428985 9.846192
v 2.919369 10.813697 10.642163
v 2.919369 10.804468 9.846192
v 2.188582 12.165308 9.846192
v 2.564252 11.789637 9.846192
v 1.812907 12.540983 9.846192
v 2.188582 11.673777 10.642163
v 1.812907 12.049452 10.642163
v 2.564252 11.298107 10.642163
v 2.094616 11.579813 10.642163
v 2.644616 12.537319 10.642163
v 2.094616 12.071342 9.846192
v 2.644616 12.552776 9.846192
v 3.461813 12.038499 9.846192
v 3.262953 11.470971 10.642163
v 3.263056 11.461942 9.846192
v 3.461397 12.047692 10.642163
v 2.950273 13.653962 9.916316
v 3.481677 12.648033 9.846192
v 3.404999 13.299738 9.846192
v 3.480221 12.657316 10.642163
v 2.950273 13.638510 10.593300
v 3.404999 13.284282 10.642163
v 2.950278 14.400927 10.207686
v 2.950278 14.385470 10.301930
v -4.622480 8.710692 9.526822
v -3.871132 7.959344 9.526822
v -3.550683 8.308442 9.485610
v -4.152391 8.910149 9.485610
v -4.152841 8.428985 9.846192
v -4.152841 7.937454 10.642163
v -3.871132 7.467815 10.867605
v -4.622480 8.219163 10.867605
v -3.156495 9.044557 5.340381
v -2.746649 8.651387 5.340381
v -3.550683 7.816913 10.908815
v -4.152391 8.701185 10.908815
v -3.550683 7.816913 10.689682
v -4.152391 8.701185 10.689682
v -4.622480 11.789633 9.526822
v -4.152391 11.590175 9.485610
v -3.156495 10.795741 5.340381
v -4.622480 11.298104 10.867605
v -4.152841 12.071342 9.846192
v -4.152841 11.579813 10.642163
v -4.152391 10.816082 10.908815
v -4.152391 10.816082 10.689682
v 1.492460 8.308442 9.485610
v 1.812907 7.959344 9.526822
v 0.688426 8.651387 5.340381
v 1.812907 7.467815 10.867605
v 2.094616 8.428985 9.846192
v -3.871132 12.540983 9.526822
v -3.550683 12.191883 9.485610
v 1.492460 7.816913 10.908815
v 2.094616 7.937454 10.642163
v 1.492460 7.816913 10.689682
v -2.746649 11.188911 5.340381
v -1.038239 8.311548 10.689682
v -2.471947 9.745255 10.689682
v -2.471947 9.745255 10.689682
v -1.038239 8.360783 10.689682
v -3.875850 12.146900 9.846192
v -3.961486 12.210631 9.846192
v -3.875850 12.146900 9.749828
v -3.961486 12.210631 9.749828
v -3.871132 12.049452 10.867605
v -3.619124 12.465423 9.846192
v -3.619124 12.465423 9.749828
v -3.550683 11.700354 10.908815
v -3.550683 11.700354 10.689682
v 2.094168 8.910149 9.485610
v 2.564252 8.710689 9.526822
v 1.098270 9.044557 5.340381
v 0.395468 9.745255 10.689682
v 0.395468 9.745255 10.689682
v -1.038239 11.178963 10.689682
v -1.038239 11.129727 10.689682
v 2.094168 8.701185 10.908815
v 2.094168 8.701185 10.689682
v 1.492460 12.191883 9.485610
v 0.688426 11.188911 5.340381
v 2.564252 8.219161 10.867605
v 1.812907 12.540983 9.526822
v 1.817628 12.146900 9.846192
v 1.817628 12.146900 9.749828
v 2.094616 12.071342 9.846192
v 2.094616 11.579813 10.642163
v 1.560906 12.465423 9.846192
v 1.560906 12.465423 9.749828
v 1.492460 11.700354 10.908815
v 1.492460 11.700354 10.689682
v 1.812907 12.049452 10.867605
v 2.094168 11.590177 9.485610
v 1.098270 10.795744 5.340381
v 2.564252 11.789637 9.526822
v 2.094168 10.816082 10.908815
v 2.094168 10.816082 10.689682
v 2.564252 11.298107 10.867605
v 1.903263 12.210631 9.846192
v 1.903263 12.210631 9.749828
v -2.373476 10.316429 11.044089
v -2.084249 10.791265 11.044089
v -2.471947 9.745255 11.044089
v -2.373473 9.174082 11.044089
v -2.084249 8.699246 11.044089
v -1.609413 8.360786 11.044089
v -1.038239 8.360783 11.044089
v -0.467066 8.360786 11.044089
v 0.007770 8.699246 11.044089
v 0.296995 9.174082 11.044089
v 0.395468 9.745255 11.044089
v 0.296997 10.316429 11.044089
v 0.007770 10.791265 11.044089
v -0.467066 11.129725 11.044089
v -1.038239 11.129727 11.044089
v -1.609413 11.129725 11.044089
v -2.149666 10.232466 11.044089
v -1.913377 10.620393 11.044089
v -2.233662 9.745255 11.044089
v -2.149664 9.258044 11.044089
v -1.913377 8.870118 11.044089
v -1.525450 8.633830 11.044089
v -1.038239 8.549832 11.044089
v -0.551028 8.633830 11.044089
v -0.163102 8.870118 11.044089
v 0.073186 9.258044 11.044089
v 0.157184 9.745255 11.044089
v 0.073188 10.232466 11.044089
v -0.163102 10.620393 11.044089
v -0.551028 10.856680 11.044089
v -1.038239 10.940678 11.044089
v -1.525450 10.856680 11.044089
v -2.149666 10.232466 10.574451
v -1.913377 10.620393 10.574451
v -2.233662 9.745255 10.574451
v -1.913377 8.870118 10.574451
v -1.525450 8.633830 10.574451
v -1.038239 8.549832 10.574451
v -0.551028 8.633830 10.574451
v -0.163102 8.870118 10.574451
v 0.157184 9.745255 10.574451
v 0.073188 10.232466 10.574451
v -0.163102 10.620393 10.574451
v -0.551028 10.856680 10.574451
v -1.525450 10.856680 10.574451
v -0.941197 10.164279 10.752644
v -0.941197 10.164279 10.623413
v -1.038239 10.153164 10.752644
v -1.135282 10.164279 10.752644
v -1.135282 10.164279 10.623413
v -1.649272 9.533293 10.792756
v -1.649272 9.533293 10.643333
v -1.616111 9.466782 10.792756
v -1.591988 9.413576 10.792756
v -1.591988 9.413576 10.643333
v -0.486056 9.406858 10.812412
v -0.486056 9.406858 10.662989
v -0.454904 9.477372 10.812412
v -0.425641 9.547535 10.812412
v -0.425641 9.547535 10.662989
v -3.512557 9.110252 10.908815
v -3.512557 10.407015 10.908815
v -3.512557 9.110252 10.689682
v -3.512557 10.407015 10.689682
v 1.454332 9.110252 10.908815
v 1.454332 10.407015 10.908815
v 1.454332 10.407015 10.689682
v 1.454332 9.110252 10.689682
v -3.917571 9.130022 10.908815
v -3.917571 10.387246 10.908815
v -3.747378 9.238832 10.908815
v -3.747378 10.278435 10.908815
v 1.859348 9.130022 10.908815
v 1.859348 10.387246 10.908815
v 1.689152 10.278435 10.908815
v 1.689152 9.238832 10.908815
v -3.917571 9.130022 11.143635
v -3.917571 10.387246 11.143635
v -3.747375 9.238832 11.143635
v -3.747375 10.278435 11.143635
v 1.859348 9.130022 11.143635
v 1.859348 10.387246 11.143635
v 1.689152 10.278435 11.143635
v 1.689152 9.238832 11.143635
v -1.038239 11.701971 10.892122
v -0.467066 11.701967 10.892122
v -0.467066 11.701967 10.609532
v -1.038239 11.701971 10.609532
v -1.609413 11.701967 10.609532
v -1.609413 11.701967 10.892122
v -1.038239 7.794962 10.897202
v -1.609413 7.794964 10.897202
v -1.609413 7.794964 10.612607
v -1.038239 7.794962 10.612607
v -0.467066 7.794964 10.612607
v -0.467066 7.794964 10.897202
v -1.639920 9.853724 10.588288
v -1.515030 10.050416 10.588288
v -1.684706 9.604515 10.588288
v -1.500443 9.121525 10.588288
v -1.309997 9.010247 10.588288
v -1.035328 8.964816 10.588288
v -0.760662 9.010247 10.588288
v -0.570216 9.121525 10.588288
v -0.385952 9.604515 10.588288
v -0.430738 9.853724 10.588288
v -0.555626 10.050416 10.588288
v -0.748347 10.163027 10.588288
v -1.322309 10.163027 10.588288
vt 0.175000 0.000000
vt 0.175000 0.040998
vt 0.175000 0.000000
vt 0.375002 0.960000
vt 0.401137 0.960000
vt 0.375000 0.960000
vt 0.375000 0.960000
vt 0.437494 0.960000
vt 0.375000 0.960000
vt 0.562506 0.960000
vt 0.335000 0.000000
vt 0.335000 0.000000
vt 0.175000 0.000000
vt 0.375000 0.800000
vt 0.625000 0.800000
vt 0.375000 0.800000
vt 0.175000 0.000000
vt 0.437494 0.800000
vt 0.375000 0.960000
vt 0.625000 0.960000
vt 0.625000 0.960000
vt 0.375000 0.800000
vt 0.625000 0.800000
vt 0.562506 0.800000
vt 0.175000 0.000000
vt 0.335000 0.000000
vt 0.175000 0.000000
vt 0.335000 0.000000
vt 0.175000 0.122564
vt 0.625000 0.800000
vt 0.187500 0.000000
vt 0.125000 0.000000
vt 0.187500 0.062500
vt 0.187500 0.000000
vt 0.187500 0.062500
vt 0.125000 0.000000
vt 0.375000 0.750000
vt 0.375000 0.812500
vt 0.437500 0.812500
vt 0.375000 0.750000
vt 0.437500 0.812500
vt 0.375000 0.812500
vt 0.335000 0.124987
vt 0.437500 0.750000
vt 0.125000 0.062500
vt 0.437500 0.750000
vt 0.125000 0.062500
vt 0.229869 0.000000
vt 0.375000 0.854869
vt 0.375000 0.854869
vt 0.229869 0.000000
vt 0.437500 0.687500
vt 0.437500 0.687500
vt 0.375000 0.687500
vt 0.375000 0.687500
vt 0.500000 0.812500
vt 0.187500 0.125000
vt 0.500000 0.812500
vt 0.187500 0.125000
vt 0.437500 0.856368
vt 0.231368 0.062500
vt 0.231368 0.062500
vt 0.437500 0.856368
vt 0.500000 0.750000
vt 0.500000 0.750000
vt 0.125000 0.125000
vt 0.125000 0.125000
vt 0.500000 0.687500
vt 0.500000 0.687500
vt 0.437500 0.625000
vt 0.437500 0.625000
vt 0.375000 0.625000
vt 0.375000 0.625000
vt 0.175000 0.250000
vt 0.335000 0.250000
vt 0.175000 0.250000
vt 0.175000 0.209002
vt 0.175000 0.250000
vt 0.625000 0.960000
vt 0.562500 0.750000
vt 0.125000 0.187500
vt 0.125000 0.187500
vt 0.562500 0.750000
vt 0.335000 0.250000
vt 0.175000 0.250000
vt 0.175000 0.250000
vt 0.175000 0.250000
vt 0.375000 0.562500
vt 0.375000 0.562500
vt 0.500000 0.625000
vt 0.500000 0.625000
vt 0.401137 0.290000
vt 0.375000 0.290000
vt 0.375000 0.290000
vt 0.335000 0.250000
vt 0.562500 0.812500
vt 0.187500 0.187500
vt 0.187500 0.187500
vt 0.562500 0.812500
vt 0.437500 0.562500
vt 0.562500 0.687500
vt 0.562500 0.687500
vt 0.437500 0.562500
vt 0.231368 0.187500
vt 0.231368 0.187500
vt 0.562500 0.856368
vt 0.562500 0.856368
vt 0.125000 0.250000
vt 0.625000 0.750000
vt 0.625000 0.750000
vt 0.125000 0.250000
vt 0.335000 0.250000
vt 0.175000 0.250000
vt 0.375000 0.500000
vt 0.375000 0.500000
vt 0.335000 0.250000
vt 0.562500 0.625000
vt 0.500000 0.562500
vt 0.500000 0.562500
vt 0.562500 0.625000
vt 0.187500 0.250000
vt 0.187500 0.250000
vt 0.625000 0.812500
vt 0.625000 0.812500
vt 0.625000 0.687500
vt 0.625000 0.687500
vt 0.437500 0.500000
vt 0.437500 0.500000
vt 0.562500 0.562500
vt 0.562500 0.562500
vt 0.229869 0.250000
vt 0.229869 0.250000
vt 0.625000 0.854869
vt 0.625000 0.854869
vt 0.812500 0.000000
vt 0.812500 0.062500
vt 0.875000 0.000000
vt 0.375000 0.437500
vt 0.437500 0.437500
vt 0.375000 0.437500
vt 0.437500 0.437500
vt 0.812500 0.000000
vt 0.875000 0.000000
vt 0.812500 0.062500
vt 0.875000 0.062500
vt 0.875000 0.062500
vt 0.625000 0.625000
vt 0.625000 0.625000
vt 0.500000 0.500000
vt 0.500000 0.500000
vt 0.375000 0.395131
vt 0.770131 0.000000
vt 0.375000 0.395131
vt 0.770131 0.000000
vt 0.562500 0.500000
vt 0.562500 0.500000
vt 0.625000 0.562500
vt 0.625000 0.562500
vt 0.812500 0.125000
vt 0.875000 0.125000
vt 0.812500 0.125000
vt 0.875000 0.125000
vt 0.500000 0.437500
vt 0.500000 0.437500
vt 0.875000 0.187500
vt 0.875000 0.187500
vt 0.437500 0.393632
vt 0.768632 0.062500
vt 0.768632 0.062500
vt 0.437500 0.393632
vt 0.625000 0.500000
vt 0.625000 0.500000
vt 0.625000 0.800000
vt 0.598863 0.800000
vt 0.625000 0.800000
vt 0.812500 0.187500
vt 0.812500 0.187500
vt 0.562500 0.437500
vt 0.562500 0.437500
vt 0.875000 0.250000
vt 0.875000 0.250000
vt 0.625000 0.960000
vt 0.625000 0.960000
vt 0.598863 0.960000
vt 0.625000 0.437500
vt 0.625000 0.437500
vt 0.812500 0.250000
vt 0.812500 0.250000
vt 0.562500 0.393632
vt 0.562500 0.393632
vt 0.768632 0.187500
vt 0.768632 0.187500
vt 0.625000 0.395131
vt 0.625000 0.395131
vt 0.770131 0.250000
vt 0.770131 0.250000
vt 0.665000 0.000000
vt 0.825000 0.000000
vt 0.665000 0.000000
vt 0.825000 0.000000
vt 0.825000 0.250000
vt 0.825000 0.209002
vt 0.825000 0.250000
vt 0.625000 0.290000
vt 0.598863 0.290000
vt 0.625000 0.290000
vt 0.665000 0.250000
vt 0.665000 0.250000
vt 0.825000 0.250000
vt 0.825000 0.250000
vt 0.825000 0.000000
vt 0.665000 0.000000
vt 0.825000 0.000000
vt 0.665000 0.000000
vt 0.825000 0.250000
vt 0.825000 0.122564
vt 0.825000 0.250000
vt 0.665000 0.124988
vt 0.665000 0.250000
vt 0.665000 0.250000
vt 0.825000 0.250000
vt 0.665000 0.250000
vt 0.140998 0.040998
vt 0.140998 0.000000
vt 0.403302 0.741800
vt 0.401137 0.765998
vt 0.375000 0.709002
vt 0.380227 0.705606
vt 0.175000 0.000000
vt 0.335000 0.000000
vt 0.401137 0.984002
vt 0.375000 0.984002
vt 0.380227 0.705606
vt 0.403302 0.741800
vt 0.375000 0.960000
vt 0.375000 0.800000
vt 0.401137 -0.000000
vt 0.403302 0.008200
vt 0.380227 0.044394
vt 0.359002 0.040998
vt 0.403302 0.008200
vt 0.380227 0.044394
vt 0.140998 0.209002
vt 0.125000 0.044394
vt 0.125000 0.205606
vt 0.380227 0.544394
vt 0.380227 0.544394
vt 0.359002 0.209002
vt 0.335000 0.209002
vt 0.335000 0.040998
vt 0.175000 0.250000
vt 0.335000 0.250000
vt 0.380227 0.205606
vt 0.380227 0.205606
vt 0.596698 0.741800
vt 0.598863 0.765998
vt 0.401137 0.800000
vt 0.596698 0.741800
vt 0.598863 0.984002
vt 0.625000 0.800000
vt 0.401137 0.484002
vt 0.403302 0.508200
vt 0.375000 0.540998
vt 0.596698 1.000000
vt 0.403301 1.000000
vt 0.625000 0.960000
vt 0.596698 0.008200
vt 0.596698 0.008200
vt 0.140998 0.250000
vt 0.403302 0.508200
vt 0.500000 0.857660
vt 0.232660 0.125000
vt 0.232660 0.125000
vt 0.500000 0.857660
vt 0.375002 0.450000
vt 0.375000 0.450000
vt 0.375000 0.450000
vt 0.375002 0.450000
vt 0.375000 0.450000
vt 0.375002 0.450000
vt 0.375000 0.241398
vt 0.401137 0.265998
vt 0.401137 0.450000
vt 0.401137 0.450000
vt 0.401137 0.450000
vt 0.403302 0.241800
vt 0.403302 0.241800
vt 0.619773 0.705606
vt 0.625000 0.738119
vt 0.619773 0.705606
vt 0.767340 0.125000
vt 0.767340 0.125000
vt 0.500000 0.392340
vt 0.500000 0.392340
vt 0.665000 0.000000
vt 0.825000 0.000000
vt 0.619772 0.044394
vt 0.619772 0.044394
vt 0.596698 0.508200
vt 0.596698 0.508200
vt 0.625000 0.984002
vt 0.598863 0.484002
vt 0.625000 1.000000
vt 0.601955 1.000000
vt 0.625000 0.450000
vt 0.625000 0.450000
vt 0.625000 0.450000
vt 0.375000 0.290000
vt 0.625000 0.290000
vt 0.598863 0.450000
vt 0.598863 0.450000
vt 0.598863 0.450000
vt 0.596698 0.241800
vt 0.596698 0.241800
vt 0.598863 0.265998
vt 0.619772 0.544394
vt 0.619772 0.544394
vt 0.859002 0.040998
vt 0.875000 0.044394
vt 0.875000 0.205606
vt 0.859002 0.209002
vt 0.825000 0.250000
vt 0.665000 0.250000
vt 0.825000 0.040998
vt 0.619773 0.205606
vt 0.619773 0.205606
vt 0.640998 0.209002
vt 0.640998 0.040998
vt 0.665000 0.040998
vt 0.665000 0.209002
vt 0.875000 0.209002
vt 0.875000 0.245151
vt 0.859002 0.250000
vt 0.625000 0.450000
vt 0.625000 0.450000
vt 0.625000 0.450000
vt 0.625000 0.241398
vt 0.335000 0.000000
vt 0.335000 0.250000
vt 0.375000 0.800000
vt 0.825000 0.000000
vt 0.665000 0.250000
vt 0.665000 0.000000
vt 0.499650 0.037954
vt 0.477746 0.043877
vt 0.459537 0.061275
vt 0.448446 0.089837
vt 0.444670 0.124195
vt 0.448446 0.158553
vt 0.459537 0.187116
vt 0.477746 0.204514
vt 0.499650 0.210437
vt 0.521553 0.204514
vt 0.539763 0.187116
vt 0.550854 0.158553
vt 0.554630 0.124195
vt 0.550854 0.089838
vt 0.539762 0.061275
vt 0.521553 0.043877
vt 0.448446 0.158553
vt 0.444670 0.124195
vt 0.448446 0.089837
vt 0.459537 0.061275
vt 0.477746 0.043877
vt 0.499650 0.037954
vt 0.521553 0.043877
vt 0.539762 0.061275
vt 0.550854 0.089838
vt 0.554630 0.124195
vt 0.550854 0.158553
vt 0.539763 0.187116
vt 0.521553 0.204514
vt 0.499650 0.210437
vt 0.477746 0.204514
vt 0.459537 0.187116
vt 0.459537 0.187116
vt 0.448446 0.158553
vt 0.444670 0.124195
vt 0.448446 0.089837
vt 0.459537 0.061275
vt 0.477746 0.043877
vt 0.499650 0.037954
vt 0.521553 0.043877
vt 0.539762 0.061275
vt 0.550854 0.089838
vt 0.554630 0.124195
vt 0.550854 0.158553
vt 0.539763 0.187116
vt 0.521553 0.204514
vt 0.499650 0.210437
vt 0.477746 0.204514
vt 0.459537 0.187116
vt 0.448446 0.158553
vt 0.444670 0.124195
vt 0.448446 0.089837
vt 0.459537 0.061275
vt 0.477746 0.043877
vt 0.499650 0.037954
vt 0.521553 0.043877
vt 0.539762 0.061275
vt 0.550854 0.089838
vt 0.554630 0.124195
vt 0.550854 0.158553
vt 0.539763 0.187116
vt 0.521553 0.204514
vt 0.499650 0.210437
vt 0.477746 0.204514
vt 0.459537 0.187116
vt 0.448446 0.158553
vt 0.444670 0.124195
vt 0.459537 0.061275
vt 0.477746 0.043877
vt 0.499650 0.037954
vt 0.521553 0.043877
vt 0.539762 0.061275
vt 0.554630 0.124195
vt 0.550854 0.158553
vt 0.539763 0.187116
vt 0.521553 0.204514
vt 0.477746 0.204514
vt 0.521553 0.204514
vt 0.521553 0.204514
vt 0.499650 0.210437
vt 0.477746 0.204514
vt 0.477746 0.204514
vt 0.444670 0.124195
vt 0.444670 0.124195
vt 0.448446 0.089837
vt 0.459537 0.061275
vt 0.459537 0.061275
vt 0.539762 0.061275
vt 0.539762 0.061275
vt 0.550854 0.089838
vt 0.554630 0.124195
vt 0.554630 0.124195
vt 0.380227 0.205606
vt 0.380227 0.044394
vt 0.380227 0.044394
vt 0.380227 0.205606
vt 0.619772 0.044394
vt 0.619773 0.205606
vt 0.619773 0.205606
vt 0.619772 0.044394
vt 0.380227 0.205606
vt 0.380227 0.044394
vt 0.380227 0.044394
vt 0.380227 0.205606
vt 0.619772 0.044394
vt 0.619773 0.205606
vt 0.619773 0.205606
vt 0.619772 0.044394
vt 0.380227 0.205606
vt 0.380227 0.044394
vt 0.380227 0.044394
vt 0.380227 0.205606
vt 0.619772 0.044394
vt 0.619773 0.205606
vt 0.619773 0.205606
vt 0.619772 0.044394
vt 0.499650 0.210437
vt 0.521553 0.204514
vt 0.521553 0.204514
vt 0.499650 0.210437
vt 0.477746 0.204514
vt 0.477746 0.204514
vt 0.499650 0.037954
vt 0.477746 0.043877
vt 0.477746 0.043877
vt 0.499650 0.037954
vt 0.521553 0.043877
vt 0.521553 0.043877
vt 0.459537 0.187116
vt 0.448446 0.158553
vt 0.444670 0.124195
vt 0.459537 0.061275
vt 0.477746 0.043877
vt 0.499650 0.037954
vt 0.521553 0.043877
vt 0.539762 0.061275
vt 0.554630 0.124195
vt 0.550854 0.158553
vt 0.539763 0.187116
vt 0.521553 0.204514
vt 0.477746 0.204514
vn -0.000000 0.000000 1.000000
vn -0.000001 0.000000 1.000000
vn 0.000000 0.000000 1.000000
vn 0.000000 0.000000 -1.000000
vn 0.000000 0.000000 -1.000000
vn 0.000000 0.000000 -1.000000
vn 0.000000 -0.525416 0.850846
vn 0.000000 -0.525413 0.850847
vn 0.000000 -0.525416 0.850846
vn 0.000000 -0.525412 0.850848
vn 0.000000 -0.525415 0.850846
vn 0.000000 -0.525420 0.850843
vn 0.000000 -0.525416 0.850846
vn 0.000000 -0.525411 0.850849
vn -0.950141 -0.298426 -0.090412
vn -0.950141 -0.298426 -0.090412
vn -0.950141 -0.298426 -0.090412
vn -0.950141 -0.298426 -0.090412
vn 0.000000 0.525413 -0.850848
vn 0.000000 0.525416 -0.850846
vn 0.000000 0.525413 -0.850847
vn -0.000000 0.525417 -0.850845
vn 0.000000 0.525417 -0.850845
vn 0.000001 0.525410 -0.850849
vn -0.000000 0.525414 -0.850847
vn -0.000003 0.525435 -0.850834
vn -0.983339 -0.181759 0.002832
vn -0.915306 -0.402731 0.004787
vn -0.915700 -0.401835 0.004778
vn -0.983726 -0.179652 0.002814
vn -0.998998 0.044721 0.001458
vn -0.998948 0.045837 0.001457
vn 0.816440 0.304290 0.490747
vn 0.623690 0.623690 0.471191
vn 0.487244 0.487244 0.724698
vn 0.545861 0.254489 0.798292
vn -0.487244 -0.487244 -0.724698
vn -0.624076 -0.612019 -0.485759
vn -0.816440 -0.304289 -0.490748
vn -0.545861 -0.254489 -0.798292
vn 0.304291 0.816441 0.490745
vn 0.183623 0.490125 0.852092
vn -0.294418 -0.811112 -0.505387
vn -0.183623 -0.490125 -0.852091
vn 0.679085 0.679087 0.278719
vn 0.905745 0.332813 0.262415
vn 0.332812 0.905745 0.262415
vn -0.718583 -0.683373 -0.128997
vn -0.431973 -0.884943 -0.174000
vn -0.932315 -0.344337 -0.110544
vn -0.094095 -0.202764 -0.974696
vn 0.094094 0.202764 0.974696
vn 0.000000 0.862423 0.506189
vn -0.052353 0.446924 0.893039
vn 0.862421 -0.000000 0.506191
vn 0.569999 0.000000 0.821646
vn 0.000000 -0.862129 -0.506688
vn 0.052353 -0.446924 -0.893039
vn -0.862421 0.000000 -0.506191
vn -0.569999 -0.000000 -0.821646
vn 0.000000 0.968362 0.249548
vn 0.968361 0.000000 0.249554
vn -0.994127 -0.000002 -0.108218
vn -0.000000 -0.969429 -0.245371
vn -0.147268 0.105442 0.983460
vn 0.147267 -0.105442 -0.983460
vn -0.123212 -0.045775 -0.991324
vn 0.123212 0.045775 0.991324
vn -0.993017 0.117962 0.001367
vn -0.993017 0.117962 0.001367
vn 0.000000 0.000000 0.000000
vn -0.000001 0.000000 1.000000
vn -0.000001 0.000000 1.000000
vn -0.211957 0.392083 0.895179
vn -0.304290 0.816441 0.490746
vn -0.545862 0.254489 -0.798292
vn -0.816439 0.304289 -0.490749
vn 0.545862 -0.254489 0.798292
vn 0.816439 -0.304289 0.490750
vn 0.211957 -0.392083 -0.895179
vn 0.294416 -0.811112 -0.505387
vn 0.780002 0.596270 0.189894
vn 0.780002 0.596270 0.189894
vn 0.780002 0.596270 0.189894
vn 0.780002 0.596270 0.189894
vn 0.001602 0.192213 -0.981352
vn 0.000082 0.009863 -0.999951
vn 0.000740 0.088778 -0.996051
vn 0.001602 0.192213 -0.981352
vn -0.089235 0.082189 0.992614
vn 0.089235 -0.082189 -0.992614
vn -0.172377 0.172377 -0.969831
vn 0.172377 -0.172377 0.969831
vn 0.142634 -0.140294 -0.979782
vn -0.142634 0.140294 0.979782
vn 0.000000 0.000000 -1.000000
vn 0.000000 0.000000 -1.000000
vn 0.000000 0.000000 -1.000000
vn 0.963568 0.267405 0.005610
vn 0.963568 0.267405 0.005610
vn 0.963568 0.267405 0.005610
vn 0.963568 0.267405 0.005610
vn 0.102699 -0.151991 -0.983032
vn 0.053169 0.103282 -0.993230
vn -0.102699 0.151991 0.983032
vn -0.053168 -0.103282 0.993230
vn 0.905743 -0.332811 0.262423
vn -0.932315 0.344337 -0.110546
vn -0.332812 0.905745 0.262415
vn 0.431973 -0.884942 -0.174000
vn -0.487244 0.487244 -0.724698
vn -0.624076 0.612019 -0.485760
vn -0.382873 0.382871 0.840725
vn -0.623691 0.623689 0.471193
vn 0.382873 -0.382871 -0.840725
vn 0.624077 -0.612018 -0.485759
vn 0.487244 -0.487244 0.724697
vn 0.623689 -0.623688 0.471195
vn -0.924262 0.381529 0.013248
vn -0.924262 0.381529 0.013248
vn -0.924262 0.381529 0.013248
vn -0.924262 0.381529 0.013248
vn 0.254491 -0.545863 0.798290
vn 0.369490 -0.209596 -0.905288
vn -0.369490 0.209596 0.905288
vn -0.254491 0.545863 -0.798291
vn -0.014541 0.081673 0.996553
vn -0.001850 0.010389 0.999944
vn -0.031327 0.175949 0.983901
vn -0.031327 0.175949 0.983901
vn -0.000000 -0.570000 0.821645
vn 0.000000 0.570000 -0.821645
vn -0.416353 0.060886 0.907162
vn 0.416353 -0.060887 -0.907162
vn -0.193884 -0.066992 0.978734
vn 0.193884 0.066991 -0.978734
vn 0.679083 -0.679084 0.278731
vn -0.718582 0.683374 -0.128999
vn -0.679086 0.679084 0.278722
vn 0.718584 -0.683372 -0.128996
vn -0.816440 0.304289 0.490748
vn 0.304292 -0.816441 0.490746
vn -0.294418 0.811112 -0.505386
vn 0.816441 -0.304289 -0.490747
vn 0.332812 -0.905745 0.262415
vn -0.905745 0.332812 0.262417
vn -0.431974 0.884942 -0.173999
vn 0.932316 -0.344336 -0.110543
vn 0.254490 0.545864 -0.798290
vn -0.254491 -0.545864 0.798290
vn 0.459201 0.154941 -0.874716
vn -0.459201 -0.154942 0.874716
vn -0.862421 0.000001 0.506191
vn 0.862421 -0.000001 -0.506191
vn -0.000000 -0.862424 0.506186
vn 0.000000 0.862131 -0.506685
vn -0.816440 -0.304288 0.490749
vn 0.816439 0.304288 -0.490750
vn -0.304291 -0.816442 0.490744
vn 0.294418 0.811112 -0.505386
vn -0.000000 -0.968364 0.249541
vn -0.968361 0.000003 0.249554
vn 0.994127 -0.000003 -0.108218
vn 0.000000 0.969431 -0.245363
vn -0.487244 -0.487242 0.724698
vn 0.487244 0.487242 -0.724698
vn 0.000001 0.000000 1.000000
vn 0.000000 0.000000 1.000000
vn 0.000001 0.000000 1.000000
vn -0.623690 -0.623689 0.471192
vn 0.624075 0.612017 -0.485762
vn -0.000000 0.000000 -1.000000
vn -0.000001 0.000000 -1.000000
vn 0.000000 0.000000 -1.000000
vn 0.431974 0.884942 -0.174000
vn -0.332813 -0.905746 0.262411
vn -0.905744 -0.332811 0.262421
vn 0.932315 0.344336 -0.110546
vn -0.679085 -0.679085 0.278724
vn 0.718582 0.683373 -0.129001
vn 0.950140 -0.298428 -0.090413
vn 0.950140 -0.298428 -0.090413
vn 0.950140 -0.298428 -0.090413
vn 0.950140 -0.298428 -0.090413
vn 0.000001 0.000000 1.000000
vn 0.000001 0.000000 1.000000
vn 0.000000 0.000000 -0.000000
vn -0.000000 0.000000 -1.000000
vn 0.000000 0.000000 -1.000000
vn -0.000001 0.000000 -1.000000
vn -0.779999 0.596273 0.189894
vn -0.780000 0.596273 0.189894
vn -0.779999 0.596273 0.189894
vn -0.780000 0.596273 0.189894
vn 0.915701 -0.401833 0.004777
vn 0.915307 -0.402729 0.004786
vn 0.983339 -0.181757 0.002830
vn 0.983727 -0.179649 0.002812
vn -0.963569 0.267403 0.005611
vn -0.963569 0.267403 0.005611
vn -0.963569 0.267403 0.005611
vn -0.963569 0.267403 0.005611
vn 0.998998 0.044721 0.001457
vn 0.998948 0.045837 0.001455
vn -0.000740 0.088779 -0.996051
vn -0.000082 0.009863 -0.999951
vn -0.001602 0.192214 -0.981352
vn -0.001602 0.192214 -0.981352
vn 0.993017 0.117963 0.001366
vn 0.993017 0.117963 0.001366
vn 0.031336 0.175948 0.983900
vn 0.001851 0.010389 0.999944
vn 0.014546 0.081672 0.996553
vn 0.031336 0.175948 0.983900
vn 0.924260 0.381532 0.013248
vn 0.924260 0.381532 0.013248
vn 0.924261 0.381532 0.013248
vn 0.924260 0.381532 0.013248
vn -0.707107 -0.707107 0.000000
vn -0.707107 -0.707107 0.000000
vn -0.707107 -0.707107 0.000000
vn -0.707107 -0.707107 0.000000
vn -0.061320 -0.061320 -0.996233
vn -0.061320 -0.061320 -0.996233
vn -0.061320 -0.061320 -0.996233
vn -0.061320 -0.061320 -0.996233
vn -0.699427 -0.608103 -0.375517
vn -0.415545 -0.773904 -0.477906
vn -0.415545 -0.773904 -0.477906
vn -0.699427 -0.608103 -0.375517
vn 0.000000 0.000000 0.000000
vn 0.000000 0.000000 0.000000
vn 0.000000 0.000000 0.000000
vn 0.000000 0.000000 0.000000
vn -0.755939 -0.557000 -0.343957
vn -0.755939 -0.557000 -0.343957
vn -0.067862 -0.848886 -0.524201
vn -0.067862 -0.848886 -0.524201
vn -0.707107 -0.707107 0.000000
vn -0.707107 -0.707107 0.000000
vn -0.707107 -0.707107 0.000000
vn -0.707107 -0.707107 0.000000
vn -0.688462 -0.700003 -0.189777
vn -0.688462 -0.700003 -0.189777
vn -0.688462 -0.700003 -0.189777
vn -0.688462 -0.700003 -0.189777
vn 0.000000 -0.850843 -0.525420
vn 0.000000 -0.850843 -0.525419
vn 0.000000 -0.850843 -0.525419
vn 0.000000 -0.850843 -0.525420
vn -0.055617 -0.046009 0.997392
vn -0.055617 -0.046009 0.997392
vn -0.055617 -0.046009 0.997392
vn -0.055617 -0.046009 0.997392
vn 0.826751 0.562568 0.000000
vn 0.826751 0.562568 0.000000
vn 0.826751 0.562568 0.000000
vn 0.826751 0.562568 0.000000
vn -1.000000 0.000000 0.000000
vn -1.000000 0.000000 0.000000
vn -1.000000 0.000000 0.000000
vn -1.000000 0.000000 0.000000
vn 0.067862 -0.848886 -0.524201
vn 0.067862 -0.848886 -0.524201
vn -0.087332 0.000000 -0.996179
vn -0.087332 0.000000 -0.996179
vn -0.087332 0.000000 -0.996179
vn -0.087332 0.000000 -0.996179
vn -0.972332 0.000000 -0.233603
vn -0.972332 0.000000 -0.233603
vn -0.972332 0.000000 -0.233603
vn -0.972332 0.000000 -0.233603
vn -1.000000 0.000000 0.000000
vn -1.000000 0.000000 0.000000
vn -1.000000 0.000000 0.000000
vn -1.000000 0.000000 0.000000
vn 0.000000 0.000000 0.000000
vn 0.000000 0.000000 0.000000
vn 0.000000 0.000000 0.000000
vn 0.000000 0.000000 0.000000
vn -0.886208 -0.463257 0.005372
vn -0.886208 -0.463257 0.005372
vn 0.000000 0.000000 0.000000
vn 0.000000 0.000000 0.000000
vn 0.000000 0.000000 0.000000
vn 0.000000 0.000000 0.000000
vn -0.080300 0.000000 0.996771
vn -0.087332 0.000000 0.996179
vn -0.087332 0.000000 0.996179
vn -0.080300 0.000000 0.996771
vn 0.000001 0.000000 -1.000000
vn 0.000001 0.000000 -1.000000
vn 0.000001 0.000000 -1.000000
vn 1.000000 0.000000 0.000000
vn 1.000000 0.000000 0.000000
vn 1.000000 0.000000 0.000000
vn 1.000000 0.000000 0.000000
vn 0.415546 -0.773904 -0.477906
vn 0.415546 -0.773904 -0.477906
vn 0.000000 -0.117238 -0.993104
vn 0.000000 -0.117238 -0.993104
vn 0.000000 -0.117238 -0.993104
vn 0.000000 -0.117238 -0.993104
vn 0.000000 -1.000000 0.000000
vn 0.000000 -1.000000 0.000000
vn 0.000000 -1.000000 0.000000
vn 0.000000 -1.000000 0.000000
vn -0.000001 0.000000 1.000000
vn -0.000001 0.000000 1.000000
vn -0.000001 0.000000 1.000000
vn 0.000000 -0.996595 -0.082451
vn 0.000000 -0.996595 -0.082451
vn 0.000000 -0.996595 -0.082451
vn 0.000000 -0.996595 -0.082451
vn 0.000000 -1.000000 0.000000
vn 0.000000 -1.000000 0.000000
vn 0.000000 -1.000000 0.000000
vn 0.000000 -1.000000 0.000000
vn 0.000000 -0.850844 -0.525419
vn 0.000000 -0.850844 -0.525419
vn -0.061320 0.061320 -0.996233
vn -0.061320 0.061320 -0.996233
vn -0.061320 0.061320 -0.996233
vn -0.061320 0.061320 -0.996233
vn 0.000000 -0.117236 0.993104
vn 0.000000 -0.117236 0.993104
vn 0.000000 -0.117236 0.993104
vn 0.000000 -0.117236 0.993104
vn 0.000000 -0.850843 -0.525419
vn 0.000000 -0.850843 -0.525419
vn 0.000000 1.000000 0.000000
vn 0.000000 1.000000 0.000000
vn 0.000000 1.000000 0.000000
vn 0.000000 1.000000 0.000000
vn -0.707108 0.707106 0.000000
vn -0.707108 0.707106 0.000000
vn -0.707108 0.707106 0.000000
vn -0.707108 0.707106 0.000000
vn -0.670363 0.681600 -0.293317
vn -0.670363 0.681600 -0.293317
vn -0.670363 0.681600 -0.293317
vn -0.670363 0.681600 -0.293317
vn 0.699426 -0.608103 -0.375517
vn 0.699426 -0.608103 -0.375517
vn 0.000000 0.000000 0.000000
vn 0.000000 0.000000 0.000000
vn 0.000000 0.000000 0.000000
vn 0.000000 0.000000 0.000000
vn 0.000001 0.000000 1.000000
vn 0.000001 0.000000 1.000000
vn 0.000001 0.000000 1.000000
vn 0.000001 0.000000 1.000000
vn 0.597036 0.802214 0.000000
vn 0.597036 0.802214 0.000000
vn 0.597036 0.802214 0.000000
vn 0.597036 0.802214 0.000000
vn -0.707107 0.707107 0.000000
vn -0.707107 0.707107 0.000000
vn -0.707107 0.707107 0.000000
vn -0.707107 0.707107 0.000000
vn 0.000002 0.000000 1.000000
vn 0.000002 0.000000 1.000000
vn 0.000002 0.000000 1.000000
vn 0.000002 0.000000 1.000000
vn 0.597025 -0.802222 0.000000
vn 0.597025 -0.802222 0.000000
vn 0.597025 -0.802222 0.000000
vn 0.597025 -0.802222 0.000000
vn 0.826751 -0.562568 0.000000
vn 0.826751 -0.562568 0.000000
vn 0.826751 -0.562568 0.000000
vn 0.826751 -0.562568 0.000000
vn -0.055617 0.046009 0.997392
vn -0.055617 0.046009 0.997392
vn -0.055617 0.046009 0.997392
vn -0.055617 0.046009 0.997392
vn 1.000000 0.000009 0.000000
vn 1.000000 0.000009 0.000000
vn 1.000000 0.000009 0.000000
vn 1.000000 0.000009 0.000000
vn 0.755937 -0.557003 -0.343958
vn 0.755937 -0.557003 -0.343958
vn 0.061319 -0.061320 -0.996233
vn 0.061319 -0.061320 -0.996233
vn 0.061319 -0.061320 -0.996233
vn 0.061319 -0.061320 -0.996233
vn 0.688462 -0.700003 -0.189777
vn 0.688462 -0.700003 -0.189777
vn 0.688462 -0.700003 -0.189777
vn 0.688462 -0.700003 -0.189777
vn 0.707107 -0.707107 0.000000
vn 0.707107 -0.707107 0.000000
vn 0.707107 -0.707107 0.000000
vn 0.707107 -0.707107 0.000000
vn 0.000000 0.000000 0.000000
vn 0.000000 0.000000 0.000000
vn 0.000000 0.000000 0.000000
vn 0.000000 0.000000 0.000000
vn -0.826751 0.562568 0.000000
vn -0.826751 0.562568 0.000000
vn -0.826751 0.562568 0.000000
vn -0.826751 0.562568 0.000000
vn 0.000000 0.971954 -0.235172
vn 0.000000 0.971954 -0.235172
vn 0.000000 0.971954 -0.235172
vn 0.000000 0.971954 -0.235172
vn 0.707107 -0.707107 0.000000
vn 0.707107 -0.707107 0.000000
vn 0.707107 -0.707107 0.000000
vn 0.707107 -0.707107 0.000000
vn 0.000000 0.117238 -0.993104
vn 0.000000 0.117238 -0.993104
vn 0.000000 0.117238 -0.993104
vn 0.000000 0.117238 -0.993104
vn 0.055618 -0.046009 0.997391
vn 0.055618 -0.046009 0.997391
vn 0.055618 -0.046009 0.997391
vn 0.055618 -0.046009 0.997391
vn 0.000000 1.000000 0.000000
vn 0.000000 1.000000 0.000000
vn 0.000000 1.000000 0.000000
vn 0.000000 1.000000 0.000000
vn 0.000000 0.000000 1.000000
vn 0.000000 0.000000 1.000000
vn 0.000000 0.000000 1.000000
vn 0.000000 0.000000 1.000000
vn 0.000000 0.850847 0.525414
vn 0.000000 0.850847 0.525414
vn 0.000000 0.850847 0.525414
vn 0.000000 0.850847 0.525414
vn 0.000000 1.000000 0.000000
vn 0.000000 1.000000 0.000000
vn 0.000000 1.000000 0.000000
vn 0.000000 1.000000 0.000000
vn 0.000000 -1.000000 0.000000
vn 0.000000 -1.000000 0.000000
vn 0.000000 -1.000000 0.000000
vn 0.000000 -1.000000 0.000000
vn 0.000000 0.000000 1.000000
vn 0.000000 0.000000 1.000000
vn 0.000000 0.000000 1.000000
vn 0.000000 0.000000 1.000000
vn 0.000000 -1.000000 0.000000
vn 0.000000 -1.000000 0.000000
vn 0.000000 -1.000000 0.000000
vn 0.000000 -1.000000 0.000000
vn 0.000000 0.117236 0.993104
vn 0.000000 0.117236 0.993104
vn 0.000000 0.117236 0.993104
vn 0.000000 0.117236 0.993104
vn 0.000000 1.000000 0.000000
vn 0.000000 1.000000 0.000000
vn 0.000000 1.000000 0.000000
vn 0.000000 1.000000 0.000000
vn 0.972332 0.000000 -0.233604
vn 0.972332 0.000000 -0.233604
vn 0.972332 0.000000 -0.233604
vn 0.972332 0.000000 -0.233604
vn 0.087333 0.000000 -0.996179
vn 0.087333 0.000000 -0.996179
vn 0.087333 0.000000 -0.996179
vn 0.087333 0.000000 -0.996179
vn 0.000000 0.000000 0.000000
vn 0.000000 0.000000 0.000000
vn 0.000000 0.000000 0.000000
vn 0.000000 0.000000 0.000000
vn 0.000000 0.000000 0.000000
vn 0.000000 0.000000 0.000000
vn 0.000000 0.000000 0.000000
vn 0.000000 0.000000 0.000000
vn 1.000000 0.000000 0.000000
vn 1.000000 0.000000 0.000000
vn 1.000000 0.000000 0.000000
vn 1.000000 0.000000 0.000000
vn -1.000000 0.000000 0.000000
vn -1.000000 0.000000 0.000000
vn -1.000000 0.000000 0.000000
vn -1.000000 0.000000 0.000000
vn 0.087333 0.000000 0.996179
vn 0.080301 0.000000 0.996771
vn 0.080301 0.000000 0.996771
vn 0.087333 0.000000 0.996179
vn 1.000000 0.000000 0.000000
vn 1.000000 0.000000 0.000000
vn 1.000000 0.000000 0.000000
vn 1.000000 0.000000 0.000000
vn -0.000001 0.000000 -1.000000
vn -0.000001 0.000000 -1.000000
vn -0.000001 0.000000 -1.000000
vn 0.670362 0.681602 -0.293315
vn 0.670362 0.681602 -0.293315
vn 0.670362 0.681602 -0.293315
vn 0.670362 0.681602 -0.293315
vn 0.061319 0.061321 -0.996233
vn 0.061319 0.061321 -0.996233
vn 0.061319 0.061321 -0.996233
vn 0.061319 0.061321 -0.996233
vn 0.000000 0.000000 1.000000
vn 0.000000 0.000000 1.000000
vn 0.000000 0.000000 1.000000
vn -0.597036 0.802214 0.000000
vn -0.597036 0.802214 0.000000
vn -0.597036 0.802214 0.000000
vn -0.597036 0.802214 0.000000
vn -0.597033 -0.802217 0.000000
vn -0.597033 -0.802217 0.000000
vn -0.597033 -0.802217 0.000000
vn -0.597033 -0.802217 0.000000
vn -0.826751 -0.562568 0.000000
vn -0.826751 -0.562568 0.000000
vn -0.826751 -0.562568 0.000000
vn -0.826751 -0.562568 0.000000
vn -0.000003 0.000000 1.000000
vn -0.000003 0.000000 1.000000
vn -0.000003 0.000000 1.000000
vn -0.000003 0.000000 1.000000
vn 0.707107 0.707107 0.000000
vn 0.707107 0.707107 0.000000
vn 0.707107 0.707107 0.000000
vn 0.707107 0.707107 0.000000
vn -0.000003 0.000000 1.000000
vn -0.000003 0.000000 1.000000
vn -0.000003 0.000000 1.000000
vn -0.000003 0.000000 1.000000
vn 0.000000 0.000000 0.000000
vn 0.000000 0.000000 0.000000
vn 0.000000 0.000000 0.000000
vn 0.000000 0.000000 0.000000
vn 0.055618 0.046009 0.997391
vn 0.055618 0.046009 0.997392
vn 0.055618 0.046009 0.997392
vn 0.055618 0.046009 0.997392
vn 0.886208 -0.463257 0.005370
vn 0.886208 -0.463257 0.005370
vn 0.707107 0.707107 0.000000
vn 0.707107 0.707107 0.000000
vn 0.707107 0.707107 0.000000
vn 0.707107 0.707107 0.000000
vn -1.000000 0.000009 0.000000
vn -1.000000 0.000009 0.000000
vn -1.000000 0.000009 0.000000
vn -1.000000 0.000009 0.000000
vn -0.000000 0.000000 1.000000
vn -0.000001 0.000000 1.000000
vn 0.000000 0.000000 -1.000000
vn 0.000000 0.000000 -1.000000
vn -0.000001 0.000000 -1.000000
vn -0.000001 0.000000 -1.000000
vn -0.000001 0.000000 -1.000000
vn 0.000000 0.000000 1.000000
vn -0.000000 0.000000 -1.000000
vn 0.000001 0.000000 1.000000
vn 0.000001 0.000000 1.000000
vn 0.000001 0.000000 1.000000
vn 0.000000 0.000000 1.000000
vn 0.000000 0.000000 1.000000
vn 0.000000 0.000000 1.000000
vn 0.000000 0.000000 1.000000
vn 0.000000 0.000000 1.000000
vn 0.000000 0.000000 1.000000
vn -0.000000 0.000000 -1.000000
vn 0.000001 0.000000 1.000000
vn 0.000001 0.000000 -1.000000
vn 0.000001 0.000000 -1.000000
vn 0.000001 0.000000 -1.000000
vn 0.000001 0.000000 1.000000
vn 0.000001 0.000000 1.000000
vn 0.000001 0.000000 1.000000
vn 0.000002 0.000000 -1.000000
vn 0.000000 0.000000 -1.000000
vn 0.000000 0.000000 -1.000000
vn -0.000001 0.000000 -1.000000
vn -0.000000 0.000000 -1.000000
vn -0.000000 0.000000 -1.000000
vn 0.000002 0.000000 -1.000000
vn 0.000000 0.000000 -1.000000
vn -0.000000 0.000000 1.000000
vn 0.000001 0.000000 1.000000
vn 0.000000 0.000000 1.000000
vn -0.000000 0.000000 1.000000
vn 0.000000 0.000000 1.000000
vn -0.000000 0.000000 1.000000
vn -0.000001 0.000000 1.000000
vn -0.000001 0.000000 1.000000
vn 0.000001 0.000000 1.000000
vn 0.000000 0.000000 1.000000
vn 0.000000 0.000000 1.000000
vn 0.000000 0.000000 1.000000
vn 0.000002 0.000000 1.000000
vn 0.000000 0.000000 1.000000
vn 0.000000 0.000000 1.000000
vn 0.000001 0.000000 1.000000
vn -0.000000 0.000000 1.000000
vn -0.000000 0.000000 1.000000
vn 0.000000 0.000000 1.000000
vn -0.000000 0.000000 1.000000
vn 0.000000 0.000000 1.000000
vn -0.000000 0.000000 1.000000
vn -0.000001 0.000000 1.000000
vn 0.000001 0.000000 1.000000
vn -0.021751 -0.014594 0.999657
vn -0.007684 -0.022918 0.999708
vn -0.021797 -0.004872 0.999751
vn 0.000012 -0.018251 0.999833
vn -0.015502 0.005246 0.999866
vn -0.010352 0.010011 0.999896
vn -0.002136 0.013239 0.999910
vn 0.002185 0.013466 0.999907
vn 0.006026 -0.017899 0.999822
vn 0.018958 -0.012691 0.999740
vn 0.011528 0.011129 0.999872
vn 0.018148 0.006128 0.999816
vn 0.024764 -0.005543 0.999678
vn -0.937665 0.347540 0.000000
vn -0.728821 0.684704 0.000000
vn -1.000000 -0.000003 0.000000
vn -0.937665 -0.347540 0.000000
vn -0.728823 -0.684702 0.000000
vn -0.580431 -0.814309 0.000000
vn 0.000000 -1.000000 0.000000
vn 0.000000 -1.000000 0.000000
vn 0.000000 -1.000000 0.000000
vn 0.000000 -1.000000 0.000000
vn 0.000000 -1.000000 0.000000
vn 0.000000 -1.000000 0.000000
vn 0.728823 -0.684702 0.000000
vn 0.580431 -0.814309 0.000000
vn 0.937665 -0.347540 0.000000
vn 1.000000 -0.000003 0.000000
vn 0.937665 0.347540 0.000000
vn 0.728821 0.684704 0.000000
vn 0.580431 0.814309 0.000000
vn 0.000000 1.000000 0.000000
vn 0.000000 1.000000 0.000000
vn 0.000000 1.000000 0.000000
vn 0.000000 1.000000 0.000000
vn 0.000000 1.000000 0.000000
vn 0.000000 1.000000 0.000000
vn -0.580431 0.814309 0.000000
vn -0.000001 0.000000 1.000000
vn -0.000000 0.000000 1.000000
vn -0.000000 0.000000 1.000000
vn -0.000001 0.000000 1.000000
vn 0.000000 0.000000 1.000000
vn 0.124053 0.026248 0.991928
vn -0.000000 0.000000 1.000000
vn 0.201391 0.076777 0.976497
vn -0.000000 0.000000 1.000000
vn 0.100258 0.059184 0.993200
vn 0.000000 -0.156646 0.987655
vn 0.000000 0.000000 1.000000
vn 0.000000 -0.184386 0.982854
vn 0.000000 0.000000 1.000000
vn 0.000000 -0.156646 0.987655
vn 0.000000 0.000000 1.000000
vn 0.000001 0.000000 1.000000
vn -0.095420 0.055665 0.993879
vn 0.000000 0.000000 1.000000
vn -0.188061 0.071297 0.979566
vn -0.000000 0.000000 1.000000
vn -0.116147 0.023602 0.992952
vn 0.000000 0.000000 1.000000
vn 0.000000 0.000000 1.000000
vn 0.000000 0.000000 1.000000
vn 0.000000 0.000000 1.000000
vn 0.000001 0.160837 0.986981
vn -0.017979 -0.144130 0.989395
vn 0.000000 0.189041 0.981969
vn 0.000000 -0.220631 0.975357
vn -0.000001 0.160837 0.986981
vn 0.017979 -0.144130 0.989395
vn 0.707105 -0.707109 0.000000
vn 0.939084 -0.343687 0.000000
vn 0.939084 -0.343687 0.000000
vn 0.707105 -0.707109 0.000000
vn 0.985462 -0.169893 0.000000
vn 0.985462 -0.169893 0.000000
vn 0.902042 0.431630 -0.004036
vn 0.902042 0.431630 -0.004036
vn 0.902042 0.431630 -0.004036
vn 0.902042 0.431630 -0.004036
vn 0.902042 0.431630 -0.004036
vn 0.520199 0.854045 0.000000
vn 0.343688 0.939084 0.000000
vn 0.343688 0.939084 0.000000
vn 0.520199 0.854045 0.000000
vn -0.000000 1.000000 0.000000
vn -0.000000 1.000000 0.000000
vn -0.343688 0.939084 0.000000
vn -0.343688 0.939084 0.000000
vn -0.520202 0.854043 0.000000
vn -0.520202 0.854043 0.000000
vn -0.918847 0.394605 0.002672
vn -0.918847 0.394605 0.002672
vn -0.918847 0.394605 0.002672
vn -0.918847 0.394605 0.002672
vn -0.918847 0.394605 0.002672
vn -0.985462 -0.169898 0.000000
vn -0.939083 -0.343690 0.000000
vn -0.939083 -0.343690 0.000000
vn -0.985462 -0.169898 0.000000
vn -0.707107 -0.707107 0.000000
vn -0.707107 -0.707107 0.000000
vn -0.520202 -0.854043 0.000000
vn -0.520202 -0.854043 0.000000
vn 0.000000 -0.999076 -0.042966
vn 0.000000 -0.999076 -0.042966
vn 0.000000 -0.999076 -0.042966
vn 0.000000 -0.999076 -0.042966
vn 0.000000 -0.999076 -0.042966
vn 0.520199 -0.854045 0.000000
vn 0.520199 -0.854045 0.000000
vn 0.871202 -0.490925 0.000000
vn 0.871202 -0.490925 0.000000
vn 0.871202 -0.490925 0.000000
vn 0.871202 -0.490925 0.000000
vn 0.000000 -0.356299 0.934372
vn -0.044401 -0.355947 0.933451
vn 0.044401 -0.355947 0.933451
vn -0.871203 -0.490923 0.000000
vn -0.871203 -0.490923 0.000000
vn -0.871203 -0.490923 0.000000
vn -0.871203 -0.490923 0.000000
vn 0.000000 -0.070538 -0.997509
vn 0.000000 -0.070538 -0.997509
vn 0.000000 -0.070538 -0.997509
vn 0.000000 -0.070538 -0.997509
vn 0.340972 0.940073 0.000000
vn 0.340972 0.940073 0.000000
vn 0.340972 0.940073 0.000000
vn 0.340972 0.940073 0.000000
vn 0.381678 0.147862 0.912392
vn 0.408761 0.086489 0.908534
vn 0.352971 0.208366 0.912138
vn 0.860749 -0.509030 0.000000
vn 0.860749 -0.509030 0.000000
vn 0.860749 -0.509030 0.000000
vn 0.860749 -0.509030 0.000000
vn 0.132203 0.050175 -0.989952
vn 0.132203 0.050175 -0.989952
vn 0.132203 0.050175 -0.989952
vn 0.132203 0.050175 -0.989952
vn -0.856853 -0.515561 0.000000
vn -0.856853 -0.515561 0.000000
vn -0.856853 -0.515561 0.000000
vn -0.856853 -0.515561 0.000000
vn -0.358042 0.134656 0.923945
vn -0.331196 0.193208 0.923569
vn -0.382497 0.077726 0.920682
vn -0.321262 0.946990 0.000000
vn -0.321262 0.946990 0.000000
vn -0.321262 0.946990 0.000000
vn -0.321262 0.946990 0.000000
vn -0.168642 0.063204 -0.983649
vn -0.168642 0.063204 -0.983649
vn -0.168642 0.063204 -0.983649
vn -0.168642 0.063204 -0.983649
vn 0.000001 0.000000 1.000000
vn 0.000001 0.000000 1.000000
vn 0.000001 0.000000 1.000000
vn 0.000001 0.000000 1.000000
vn 0.538655 -0.842527 0.000000
vn 0.538655 -0.842527 0.000000
vn 0.538655 -0.842527 0.000000
vn 0.538655 -0.842527 0.000000
vn -0.000001 0.000000 -1.000000
vn -0.000001 0.000000 -1.000000
vn -0.000001 0.000000 -1.000000
vn -0.000001 0.000000 -1.000000
vn 0.538655 0.842527 0.000000
vn 0.538655 0.842527 0.000000
vn 0.538655 0.842527 0.000000
vn 0.538655 0.842527 0.000000
vn -0.000001 0.000000 1.000000
vn -0.000001 0.000000 1.000000
vn -0.000001 0.000000 1.000000
vn -0.000001 0.000000 1.000000
vn -0.538653 0.842528 0.000000
vn -0.538653 0.842528 0.000000
vn -0.538653 0.842528 0.000000
vn -0.538653 0.842528 0.000000
vn 0.000001 0.000000 -1.000000
vn 0.000001 0.000000 -1.000000
vn 0.000001 0.000000 -1.000000
vn 0.000001 0.000000 -1.000000
vn -0.538653 -0.842528 0.000000
vn -0.538653 -0.842528 0.000000
vn -0.538653 -0.842528 0.000000
vn -0.538653 -0.842528 0.000000
vn -0.000002 0.000000 1.000000
vn -0.000002 0.000000 1.000000
vn -0.000001 0.000000 1.000000
vn -0.000001 0.000000 1.000000
vn -0.000001 0.000000 1.000000
vn -0.000001 0.000000 1.000000
vn 0.000002 0.000000 1.000000
vn 0.000002 0.000000 1.000000
vn 0.000001 0.000000 1.000000
vn 0.000001 0.000000 1.000000
vn 0.000001 0.000000 1.000000
vn 0.000001 0.000000 1.000000
vn -1.000000 0.000000 0.000000
vn -1.000000 0.000000 0.000000
vn -1.000000 0.000000 0.000000
vn -1.000000 0.000000 0.000000
vn 0.538652 -0.842528 -0.000007
vn 0.538652 -0.842528 -0.000007
vn 0.538652 -0.842528 -0.000007
vn 0.538652 -0.842528 -0.000007
vn 1.000000 0.000000 -0.000010
vn 1.000000 0.000000 -0.000010
vn 1.000000 0.000000 -0.000010
vn 1.000000 0.000000 -0.000010
vn 0.538652 0.842528 -0.000002
vn 0.538652 0.842528 -0.000002
vn 0.538652 0.842528 -0.000002
vn 0.538652 0.842528 -0.000002
vn 1.000000 0.000000 0.000000
vn 1.000000 0.000000 0.000000
vn 1.000000 0.000000 0.000000
vn 1.000000 0.000000 0.000000
vn -0.538652 0.842528 0.000000
vn -0.538652 0.842528 0.000000
vn -0.538652 0.842528 0.000000
vn -0.538652 0.842528 0.000000
vn -1.000000 0.000000 0.000000
vn -1.000000 0.000000 0.000000
vn -1.000000 0.000000 0.000000
vn -1.000000 0.000000 0.000000
vn -0.538652 -0.842528 0.000000
vn -0.538652 -0.842528 0.000000
vn -0.538652 -0.842528 0.000000
vn -0.538652 -0.842528 0.000000
vn 0.000002 0.256667 0.966500
vn 0.000000 0.256667 0.966500
vn 1.000000 0.000004 0.000000
vn 1.000000 0.000004 0.000000
vn 1.000000 0.000004 0.000000
vn 1.000000 0.000004 0.000000
vn 0.000000 -0.138709 -0.990333
vn 0.000000 -0.138708 -0.990333
vn 0.000000 -0.138708 -0.990333
vn 0.000000 -0.138709 -0.990333
vn 0.000000 -0.138708 -0.990333
vn 0.000000 -0.138708 -0.990333
vn -1.000000 -0.000002 0.000000
vn -1.000000 -0.000002 0.000000
vn -1.000000 -0.000002 0.000000
vn -1.000000 -0.000002 0.000000
vn -0.000002 0.256667 0.966500
vn 0.000000 -0.251271 0.967917
vn 0.000000 -0.251271 0.967917
vn -1.000000 0.000000 0.000000
vn -1.000000 0.000000 0.000000
vn -1.000000 0.000000 0.000000
vn -1.000000 0.000000 0.000000
vn 0.000000 0.134971 -0.990850
vn 0.000000 0.134971 -0.990849
vn 0.000000 0.134971 -0.990849
vn 0.000000 0.134971 -0.990850
vn 0.000000 0.134972 -0.990849
vn 0.000000 0.134972 -0.990849
vn 1.000000 0.000000 0.000000
vn 1.000000 0.000000 0.000000
vn 1.000000 0.000000 0.000000
vn 1.000000 0.000000 0.000000
vn 0.000000 -0.251271 0.967917
vn -0.013675 0.014706 0.999798
vn -0.020689 0.008611 0.999749
vn -0.025774 -0.002813 0.999664
vn -0.024779 -0.014625 0.999586
vn -0.011514 -0.030226 0.999477
vn -0.000028 -0.033425 0.999441
vn 0.011523 -0.030397 0.999471
vn 0.025018 -0.014813 0.999577
vn 0.026053 -0.002829 0.999657
vn 0.020860 0.008701 0.999745
vn 0.013732 0.014806 0.999796
vn 0.003139 0.019076 0.999813
vn -0.003161 0.019043 0.999814
s 1
g polySurface2
usemtl lambert1SG
f 1/1/1 2/2/2 3/3/3
s 2
f 4/4/4 5/5/5 6/6/6
s 3
f 69/79/7 19/19/8 20/20/9
f 19/19/8 9/9/10 20/20/9
f 9/9/10 7/7/11 20/20/9
f 7/7/11 8/8/12 20/20/9
f 8/8/12 10/10/13 20/20/9
f 10/10/13 21/21/14 20/20/9
s off
f 13/13/15 11/11/16 12/12/17 17/17/18
s 4
f 22/22/19 23/23/20 14/14/21
f 23/23/20 15/15/22 14/14/21
f 14/14/21 15/15/22 16/16/23
f 16/16/23 15/15/22 18/18/24
f 18/18/24 15/15/22 24/24/25
f 24/24/25 15/15/22 30/30/26
s 5
f 27/27/27 25/25/28 26/26/29 28/28/30
f 29/29/31 27/27/27 28/28/30 39/43/32
s 6
f 33/33/33 31/31/34 32/32/35 41/45/36
s 7
f 36/36/37 34/34/38 35/35/39 43/47/40
s 6
f 32/37/35 31/38/34 37/39/41 40/44/42
s 7
f 38/41/43 34/42/38 36/40/37 42/46/44
s 6
f 44/48/45 31/31/34 33/33/33 53/61/46
f 31/38/34 44/49/45 52/60/47 37/39/41
s 7
f 45/50/48 34/42/38 38/41/43 55/63/49
f 34/34/38 45/51/48 54/62/50 35/35/39
f 46/52/51 42/46/44 36/40/37 43/55/40
s 6
f 32/37/35 40/44/42 47/53/52 41/54/36
f 40/44/42 37/39/41 48/56/53 57/65/54
f 49/57/55 33/33/33 41/45/36 59/67/56
s 7
f 50/58/57 38/41/43 42/46/44 56/64/58
f 43/47/40 35/35/39 51/59/59 58/66/60
s 6
f 37/39/41 52/60/47 220/271/61 48/56/53
f 53/61/46 33/33/33 49/57/55 221/272/62
s 7
f 35/35/39 54/62/50 222/273/63 51/59/59
f 55/63/49 38/41/43 50/58/57 223/274/64
s 6
f 60/68/65 47/53/52 40/44/42 57/65/54
s 7
f 42/46/44 46/52/51 61/69/66 56/64/58
f 62/70/67 46/52/51 43/55/40 58/73/60
s 6
f 41/54/36 47/53/52 63/71/68 59/72/56
s 5
f 65/75/69 64/74/70 29/29/31 39/43/32
s 1
f 66/76/71 67/77/72 68/78/73
s 6
f 70/80/74 57/65/54 48/56/53 84/96/75
s 7
f 71/81/76 58/66/60 51/59/59 86/98/77
s 6
f 49/57/55 59/67/56 72/82/78 85/97/79
s 7
f 50/58/57 56/64/58 73/83/80 87/99/81
s off
f 75/85/82 76/86/83 74/84/84 83/95/85
s 8
f 77/87/86 76/86/87 64/74/88 101/113/89
s 6
f 60/68/65 57/65/54 70/80/74 90/102/90
s 7
f 73/83/80 56/64/58 61/69/66 89/101/91
f 62/70/67 58/73/60 71/88/76 88/100/92
s 6
f 72/89/78 59/72/56 63/71/68 91/103/93
s 7
f 78/90/94 61/69/66 46/52/51 62/70/67
s 6
f 47/53/52 60/68/65 79/91/95 63/71/68
s 2
f 80/92/96 81/93/97 82/94/98
s off
f 74/84/99 76/86/100 77/87/101 102/116/102
s 7
f 89/101/91 61/69/66 78/90/94 106/120/103
f 78/90/94 62/70/67 88/100/92 104/118/104
s 6
f 79/91/95 60/68/65 90/102/90 103/117/105
f 91/103/93 63/71/68 79/91/95 105/119/106
f 85/97/79 92/104/107 221/272/62 49/57/55
s 7
f 93/105/108 86/98/77 51/59/59 222/273/63
s 6
f 94/106/109 84/96/75 48/56/53 220/271/61
s 7
f 87/99/81 95/107/110 223/274/64 50/58/57
f 96/108/111 71/81/76 86/98/77 108/122/112
s 6
f 97/109/113 70/80/74 84/96/75 110/124/114
s 7
f 87/99/81 73/83/80 98/110/115 109/123/116
s 6
f 85/97/79 72/82/78 99/111/117 107/121/118
s off
f 64/74/119 65/75/120 100/112/121 101/113/122
s 6
f 99/114/117 72/89/78 91/103/93 113/127/123
s 7
f 98/110/115 73/83/80 89/101/91 111/125/124
s 6
f 90/102/90 70/80/74 97/109/113 112/126/125
s 7
f 88/100/92 71/88/76 96/115/111 114/128/126
s 10
f 65/75/127 74/84/128 102/116/129 100/112/130
s 6
f 113/127/123 91/103/93 105/119/106 128/150/131
s 7
f 104/118/104 88/100/92 114/128/126 127/149/132
s 6
f 103/117/105 90/102/90 112/126/125 126/148/133
s 7
f 111/125/124 89/101/91 106/120/103 125/147/134
s 6
f 115/129/135 105/119/106 79/91/95 103/117/105
s 7
f 116/130/136 106/120/103 78/90/94 104/118/104
s 6
f 107/121/118 117/131/137 92/104/107 85/97/79
s 7
f 118/132/138 108/122/112 86/98/77 93/105/108
s 6
f 119/133/139 110/124/114 84/96/75 94/106/109
s 7
f 109/123/116 120/134/140 95/107/110 87/99/81
s 6
f 97/137/113 110/135/114 121/136/141 112/146/125
f 122/139/142 107/138/118 99/114/117 113/127/123
s 7
f 96/115/111 108/140/112 123/141/143 114/128/126
f 124/144/144 109/142/116 98/143/115 111/145/124
s 6
f 117/151/137 107/138/118 122/139/142 137/167/145
f 110/135/114 119/152/139 138/168/146 121/136/141
s 7
f 108/140/112 118/153/138 140/170/147 123/141/143
f 120/154/140 109/142/116 124/144/144 139/169/148
f 129/155/149 116/130/136 104/118/104 127/149/132
s 6
f 105/119/106 115/129/135 130/156/150 128/150/131
s 7
f 106/120/103 116/130/136 131/157/151 125/147/134
s 6
f 132/158/152 115/129/135 103/117/105 126/148/133
f 133/159/153 126/160/133 112/146/125 121/136/141
s 7
f 111/145/124 125/162/134 134/161/154 124/144/144
s 6
f 113/127/123 128/150/131 135/163/155 122/139/142
s 7
f 136/164/156 127/149/132 114/128/126 123/141/143
s 6
f 132/165/152 126/160/133 133/159/153 147/177/157
s 7
f 134/161/154 125/162/134 131/166/151 146/176/158
s 6
f 135/163/155 128/150/131 130/156/150 148/178/159
s 7
f 129/155/149 127/149/132 136/164/156 149/179/160
s 6
f 137/167/145 122/139/142 135/163/155 238/293/161
f 121/136/141 138/168/146 237/292/162 133/159/153
s 7
f 139/169/148 124/144/144 134/161/154 236/291/163
f 123/141/143 140/170/147 239/294/164 136/164/156
s 6
f 115/129/135 132/158/152 141/171/165 130/156/150
s 7
f 116/130/136 129/155/149 142/172/166 131/157/151
s 1
f 143/173/167 144/174/168 145/175/169
s 6
f 141/180/165 132/165/152 147/177/157 154/188/170
s 7
f 146/176/158 131/166/151 142/181/166 153/187/171
s 6
f 148/178/159 130/156/150 141/171/165 154/186/170
s 7
f 142/172/166 129/155/149 149/179/160 153/185/171
s 2
f 150/182/172 151/183/173 152/184/174
s 7
f 155/189/175 149/179/160 136/164/156 239/294/164
s 6
f 148/178/159 156/190/176 238/293/161 135/163/155
f 157/191/177 147/177/157 133/159/153 237/292/162
s 7
f 146/176/158 158/192/178 236/291/163 134/161/154
s 6
f 154/186/170 159/193/179 156/190/176 148/178/159
s 7
f 160/194/180 153/185/171 149/179/160 155/189/175
s 6
f 159/195/179 154/188/170 147/177/157 157/191/177
s 7
f 153/187/171 160/196/180 158/192/178 146/176/158
s off
f 163/199/181 161/197/182 162/198/183 164/200/184
s 1
f 165/201/185 166/202/186 167/203/187
s 2
f 168/204/188 169/205/189 170/206/190
s off
f 173/209/191 171/207/192 172/208/193 174/210/194
s 12
f 176/212/195 177/213/196 175/211/197 178/214/198
s off
f 179/215/199 174/210/200 172/208/201 183/219/202
s 12
f 178/214/198 175/211/197 180/216/203 182/218/204
s 13
f 181/217/205 174/210/206 179/215/207 185/221/208
s 12
f 180/216/203 181/217/209 184/220/210 182/218/204
s 14
f 183/219/211 172/208/212 184/220/213 186/222/214
s off
f 186/222/215 184/220/216 181/217/217 185/221/218
f 187/223/219 188/224/220 3/3/221 2/2/222
f 189/225/223 188/226/224 187/227/225 190/228/226
s 15
f 14/14/227 16/16/228 7/7/229 9/9/230
s off
f 191/229/231 192/230/232 11/11/233 13/13/234
s 15
f 19/19/235 22/22/236 14/14/227 9/9/230
f 16/16/228 18/18/237 8/8/238 7/7/229
s off
f 193/231/239 194/232/240 6/6/241 5/5/242
f 189/225/243 190/228/244 195/233/245 196/234/246
s 16
f 192/235/247 191/236/248 22/22/249 19/19/250
s off
f 193/237/251 197/238/252 198/239/253 194/240/254
f 198/239/255 197/238/256 199/241/257 200/242/258
f 187/223/259 2/2/260 67/77/261 201/243/262
s 15
f 8/8/238 18/18/237 24/24/263 10/10/264
s off
f 190/244/265 187/223/266 201/243/267 202/245/268
f 190/228/269 202/246/270 203/247/271 195/233/272
f 204/248/273 82/249/274 6/250/275 194/240/276
f 205/251/277 191/229/278 13/13/279 75/85/280
s 5
f 17/17/281 12/12/282 26/26/29 25/25/28
s off
f 192/230/283 206/252/284 83/95/285 11/11/286
s 17
f 207/253/287 204/248/288 194/240/289 198/239/290
s 8
f 75/85/291 13/13/292 17/17/293 76/86/87
s off
f 324/436/294 323/437/295 325/438/296 326/439/297
s 15
f 24/24/263 30/30/298 21/21/299 10/10/264
s off
f 209/255/300 210/256/301 188/226/302 189/225/303
f 3/257/304 188/226/305 210/256/306 144/174/307
s 10
f 11/11/308 83/95/309 74/84/128 12/12/310
s off
f 209/255/311 189/225/312 196/234/313 211/258/314
f 193/231/315 5/5/316 152/184/317 212/259/318
s 16
f 191/236/248 213/260/319 23/23/320 22/22/249
s off
f 214/261/321 215/262/322 202/246/323 201/263/324
f 212/259/325 216/264/326 197/265/327 193/231/328
s 16
f 217/266/329 192/235/247 19/19/250 69/79/330
s off
f 197/238/331 216/267/332 218/268/333 199/241/334
f 214/269/335 201/243/336 67/77/337 66/76/338
f 202/246/339 215/262/340 219/270/341 203/247/342
s 15
f 30/30/298 15/15/343 20/20/344 21/21/299
s off
f 206/252/345 205/251/346 75/85/347 83/95/348
f 68/275/349 205/276/350 224/277/351 225/278/352
f 225/278/353 224/277/354 226/279/355 227/280/356
f 204/281/357 228/282/358 80/92/359 82/94/360
f 66/283/361 68/275/362 225/278/363 229/284/364
f 229/284/365 225/278/366 227/280/367 230/285/368
f 231/286/369 207/253/370 208/254/371 232/287/372
f 231/286/373 228/282/374 204/248/375 207/253/376
f 102/116/377 77/87/378 101/113/379 100/112/380
s 15
f 23/23/381 69/79/382 20/20/344 15/15/343
s off
f 210/256/383 209/255/384 233/288/385 234/289/386
f 233/288/387 209/255/388 211/258/389 235/290/390
f 210/256/391 234/289/392 145/175/393 144/174/394
s 16
f 213/260/319 217/266/329 69/79/330 23/23/320
s off
f 217/295/395 213/296/396 162/198/397 161/197/398
f 216/267/399 240/297/400 241/298/401 218/268/402
f 215/262/403 242/299/404 243/300/405 219/270/406
f 244/301/407 212/259/408 152/184/409 151/183/410
f 245/302/411 242/299/412 215/262/413 214/261/414
f 244/301/415 240/303/416 216/304/417 212/259/418
f 224/277/419 246/305/420 247/306/421 226/279/422
f 205/276/423 248/307/424 246/305/425 224/277/426
f 206/308/427 249/309/428 248/307/429 205/276/430
f 214/261/431 66/283/432 167/310/433 245/302/434
f 250/311/435 229/284/436 230/285/437 251/312/438
f 167/310/439 66/283/440 229/284/441 250/311/442
f 252/313/443 231/286/444 232/287/445 253/314/446
f 252/313/447 254/315/448 228/282/449 231/286/450
f 80/92/451 228/282/452 254/315/453 169/205/454
f 255/316/455 233/288/456 235/290/457 256/317/458
f 234/318/459 233/319/460 255/320/461 257/321/462
f 213/296/463 248/322/464 173/209/465 162/198/466
f 249/323/467 217/295/468 161/197/469 171/207/470
f 257/321/471 166/202/472 145/324/473 234/318/474
f 327/440/475 328/441/476 329/442/477 330/443/478
s 18
f 260/327/479 258/325/480 240/297/481 244/328/482
s off
f 244/328/483 151/329/484 170/330/485 260/327/486
s 13
f 162/198/487 173/209/488 174/210/206 164/200/489
s off
f 242/299/490 255/316/491 256/317/492 243/300/493
f 257/321/494 255/331/495 242/332/496 245/333/497
s 14
f 171/207/498 161/197/499 163/199/500 172/208/212
s off
f 246/305/501 261/334/502 262/335/503 247/306/504
f 261/334/505 250/311/506 251/312/507 262/335/508
f 258/325/509 252/313/510 253/314/511 259/326/512
f 248/307/513 165/336/514 261/334/515 246/305/516
f 257/321/517 245/333/518 167/203/519 166/202/520
f 165/336/521 167/310/522 250/311/523 261/334/524
f 248/322/525 249/323/526 171/207/527 173/209/528
f 254/315/529 252/313/530 258/325/531 260/337/532
s 12
f 163/199/533 164/200/534 177/213/196 176/212/195
s off
f 254/315/535 260/337/536 170/206/537 169/205/538
f 179/215/539 183/219/540 186/222/541 185/221/542
s 1
f 68/78/73 67/77/72 2/2/2 1/1/1 191/229/543 205/251/544
s 2
f 4/338/4 6/250/6 192/230/545
f 192/230/545 6/250/6 206/252/546
f 81/339/97 206/252/546 82/249/98
f 6/250/6 82/249/98 206/252/546
s 8
f 27/27/547 29/29/548 64/74/88 76/86/87 17/17/293 25/25/549
s 1
f 1/340/1 3/257/3 144/174/168 143/173/167 213/260/550 191/236/543
s 2
f 150/182/172 152/184/174 5/5/5 4/4/4 192/235/545 217/266/551
s 10
f 12/12/310 74/84/128 65/75/127 39/43/552 28/28/553 26/26/554
s 19
f 262/335/555 251/312/556 247/306/557
f 247/306/557 251/312/556 226/279/558
f 227/280/559 226/279/558 230/285/560
f 251/312/556 230/285/560 226/279/558
s 2
f 81/93/97 80/92/96 169/205/189 168/204/188 249/309/561 206/308/546
s 1
f 143/341/167 145/324/169 166/202/186 165/201/185 248/322/562 213/296/550
s 2
f 168/342/188 170/330/190 151/329/173 150/343/172 217/295/551 249/323/561
s 13
f 164/200/489 174/210/206 181/217/205 180/216/563 175/211/564 177/213/565
s 14
f 178/214/566 182/218/567 184/220/213 172/208/212 163/199/500 176/212/568
s 20
f 203/247/569 219/270/570 195/233/571
f 219/270/570 243/300/572 195/233/571
f 195/233/571 243/300/572 196/234/573
f 243/300/572 256/317/574 196/234/573
f 235/290/575 211/258/576 256/317/574
f 256/317/574 211/258/576 196/234/573
s 21
f 253/314/577 232/287/578 238/352/579
f 220/344/580 52/345/581 199/241/582
f 238/352/579 232/287/578 137/351/583
f 52/345/581 44/346/584 199/241/582
f 137/351/583 232/287/578 117/350/585
f 44/346/584 53/347/586 199/241/582
f 199/241/582 53/347/586 200/242/587
f 200/242/587 53/347/586 208/254/588
f 53/347/586 221/348/589 208/254/588
f 221/348/589 92/349/590 208/254/588
f 208/254/588 92/349/590 232/287/578
f 92/349/590 117/350/585 232/287/578
f 199/241/582 218/268/591 220/344/580
f 238/352/579 156/353/592 253/314/577
f 220/344/580 218/268/591 94/359/593
f 156/353/592 159/354/594 253/314/577
f 94/359/593 218/268/591 119/358/595
f 119/358/595 218/268/591 138/357/596
f 218/268/591 241/298/597 138/357/596
f 241/298/597 259/326/598 138/357/596
f 138/357/596 259/326/598 237/356/599
f 237/356/599 259/326/598 157/355/600
f 259/326/598 253/314/577 157/355/600
f 159/354/594 157/355/600 253/314/577
s 23
f 362/475/601 363/476/602 361/474/603
f 363/476/602 364/477/604 361/474/603
f 361/474/603 364/477/604 359/473/605
f 359/473/605 364/477/604 360/472/606
f 360/472/606 364/477/604 371/484/607
f 371/484/607 364/477/604 370/483/608
f 364/477/604 365/478/609 370/483/608
f 365/478/609 366/479/610 370/483/608
f 370/483/608 366/479/610 369/482/611
f 369/482/611 366/479/610 368/481/612
f 366/479/610 367/480/613 368/481/612
s 7
f 118/375/138 93/360/108 263/377/614 264/376/615
f 93/360/108 222/361/63 265/378/616 263/377/614
f 222/361/63 54/362/50 266/379/617 265/378/616
f 54/362/50 45/363/48 267/380/618 266/379/617
f 45/363/48 55/364/49 268/381/619 267/380/618
s off
f 353/466/620 354/467/621 355/468/622 356/469/623 357/470/624 358/471/625
s 7
f 95/366/110 120/367/140 271/384/626 270/383/627
f 120/367/140 139/368/148 272/385/628 271/384/626
f 139/368/148 236/369/163 273/386/629 272/385/628
f 236/369/163 158/370/178 274/387/630 273/386/629
f 158/370/178 160/371/180 275/388/631 274/387/630
f 160/371/180 155/372/175 276/389/632 275/388/631
s off
f 347/460/633 348/461/634 349/462/635 350/463/636 351/464/637 352/465/638
s 7
f 140/374/147 118/375/138 264/376/615 278/391/639
s 24
f 264/376/640 263/377/641 279/393/642 280/392/643
f 263/377/641 265/378/644 281/394/645 279/393/642
f 265/378/644 266/379/646 282/395/647 281/394/645
f 266/379/646 267/380/648 283/396/649 282/395/647
f 267/380/648 268/381/650 284/397/651 283/396/649
f 268/381/650 269/382/652 285/398/653 284/397/651
f 269/382/652 270/383/654 286/399/655 285/398/653
f 270/383/654 271/384/656 287/400/657 286/399/655
f 271/384/656 272/385/658 288/401/659 287/400/657
f 272/385/658 273/386/660 289/402/661 288/401/659
f 273/386/660 274/387/662 290/403/663 289/402/661
f 274/387/662 275/388/664 291/404/665 290/403/663
f 275/388/664 276/389/666 292/405/667 291/404/665
f 276/389/666 277/390/668 293/406/669 292/405/667
f 277/390/668 278/391/670 294/407/671 293/406/669
f 278/391/670 264/376/640 280/392/643 294/407/671
s 25
f 280/392/672 279/393/673 295/409/674 296/408/675
f 279/393/673 281/394/676 297/410/677 295/409/674
s off
f 314/426/678 313/427/679 315/428/680 316/429/681 317/430/682
s 26
f 283/396/683 284/397/684 299/412/685 298/411/686
f 284/397/684 285/398/687 300/413/688 299/412/685
f 285/398/687 286/399/689 301/414/690 300/413/688
f 286/399/689 287/400/691 302/415/692 301/414/690
s off
f 319/431/693 318/432/694 320/433/695 321/434/696 322/435/697
s 27
f 289/402/698 290/403/699 304/417/700 303/416/701
f 290/403/699 291/404/702 305/418/703 304/417/700
f 291/404/702 292/405/704 306/419/705 305/418/703
s off
f 309/421/706 308/422/707 310/423/708 311/424/709 312/425/710
s 25
f 294/407/711 280/392/672 296/408/675 307/420/712
s off
f 306/419/713 292/405/714 308/422/715 309/421/716
s 24
f 292/405/667 293/406/669 310/423/717 308/422/718
f 293/406/669 294/407/671 311/424/719 310/423/717
s off
f 294/407/720 307/420/721 312/425/722 311/424/723
f 307/420/724 306/419/725 309/421/726 312/425/727
f 297/410/728 281/394/729 313/427/730 314/426/731
s 24
f 281/394/645 282/395/647 315/428/732 313/427/733
f 282/395/647 283/396/649 316/429/734 315/428/732
s off
f 283/396/735 298/411/736 317/430/737 316/429/738
f 298/411/739 297/410/740 314/426/741 317/430/742
f 302/415/743 287/400/744 318/432/745 319/431/746
s 24
f 287/400/657 288/401/659 320/433/747 318/432/748
f 288/401/659 289/402/661 321/434/749 320/433/747
s off
f 289/402/750 303/416/751 322/435/752 321/434/753
f 303/416/754 302/415/755 319/431/756 322/435/757
f 340/452/758 339/453/759 341/454/760 342/455/761
f 198/239/762 200/242/763 325/438/764 323/437/765
f 200/242/766 208/254/767 326/439/768 325/438/769
f 208/254/770 207/253/771 324/436/772 326/439/773
f 343/456/774 344/457/775 345/458/776 346/459/777
f 258/325/778 259/326/779 329/442/780 328/441/781
f 259/326/782 241/298/783 330/443/784 329/442/785
f 241/298/786 240/297/787 327/440/788 330/443/789
s 17
f 207/253/287 198/239/290 331/445/790 332/444/791
f 198/239/290 323/437/792 333/446/793 331/445/790
f 323/437/792 324/436/794 334/447/795 333/446/793
f 324/436/794 207/253/287 332/444/791 334/447/795
s 18
f 240/297/481 258/325/480 336/449/796 335/448/797
f 258/325/480 328/441/798 337/450/799 336/449/796
f 328/441/798 327/440/800 338/451/801 337/450/799
f 327/440/800 240/297/481 335/448/797 338/451/801
s off
f 332/444/802 331/445/803 339/453/804 340/452/805
f 331/445/806 333/446/807 341/454/808 339/453/809
f 333/446/810 334/447/811 342/455/812 341/454/813
f 334/447/814 332/444/815 340/452/816 342/455/817
f 335/448/818 336/449/819 344/457/820 343/456/821
f 336/449/822 337/450/823 345/458/824 344/457/825
f 337/450/826 338/451/827 346/459/828 345/458/829
f 338/451/830 335/448/831 343/456/832 346/459/833
s 24
f 277/390/668 276/389/666 348/461/834 347/460/835
s off
f 276/389/836 155/372/837 349/462/838 348/461/839
s 28
f 155/372/840 239/373/841 350/463/842 349/462/843
f 239/373/841 140/374/844 351/464/845 350/463/842
s off
f 140/374/846 278/391/847 352/465/848 351/464/849
s 24
f 278/391/670 277/390/668 347/460/835 352/465/850
f 269/382/652 268/381/650 354/467/851 353/466/852
s off
f 268/381/853 55/364/854 355/468/855 354/467/856
s 29
f 55/364/857 223/365/858 356/469/859 355/468/860
f 223/365/858 95/366/861 357/470/862 356/469/859
s off
f 95/366/863 270/383/864 358/471/865 357/470/866
s 24
f 270/383/654 269/382/652 353/466/852 358/471/867
s 23
f 296/408/868 295/409/869 359/473/605 360/472/606
f 295/409/869 297/410/870 361/474/603 359/473/605
f 297/410/870 298/411/871 362/475/601 361/474/603
f 298/411/871 299/412/872 363/476/602 362/475/601
f 299/412/872 300/413/873 364/477/604 363/476/602
f 300/413/873 301/414/874 365/478/609 364/477/604
f 301/414/874 302/415/875 366/479/610 365/478/609
f 302/415/875 303/416/876 367/480/613 366/479/610
f 303/416/876 304/417/877 368/481/612 367/480/613
f 304/417/877 305/418/878 369/482/611 368/481/612
f 305/418/878 306/419/879 370/483/608 369/482/611
f 306/419/879 307/420/880 371/484/607 370/483/608
f 307/420/880 296/408/868 360/472/606 371/484/607
