# This file uses centimeters as units for non-parametric coordinates.

mtllib DronPlayer.mtl
g default
v 1.533996 0.434076 -3.310178
v 1.518103 0.465269 -3.310178
v 1.493348 0.490024 -3.310178
v 1.462156 0.505917 -3.310178
v 1.427578 0.511394 -3.310178
v 1.393001 0.505917 -3.310178
v 1.361808 0.490024 -3.310178
v 1.337053 0.465269 -3.310178
v 1.321159 0.434076 -3.310178
v 1.315684 0.399499 -3.310178
v 1.321159 0.364922 -3.310178
v 1.337053 0.333729 -3.310178
v 1.361808 0.308974 -3.310178
v 1.393001 0.293081 -3.310178
v 1.427578 0.287604 -3.310178
v 1.462156 0.293081 -3.310178
v 1.493348 0.308974 -3.310178
v 1.518103 0.333729 -3.310178
v 1.533996 0.364922 -3.310178
v 1.539472 0.399499 -3.310178
v 1.533125 0.433793 -1.098622
v 1.517362 0.464730 -1.098622
v 1.492809 0.489282 -1.098622
v 1.461872 0.505045 -1.098622
v 1.427578 0.510477 -1.098622
v 1.393284 0.505045 -1.098622
v 1.362348 0.489282 -1.098622
v 1.337795 0.464730 -1.098622
v 1.322031 0.433793 -1.098622
v 1.316601 0.399499 -1.098622
v 1.322031 0.365205 -1.098622
v 1.337795 0.334268 -1.098622
v 1.362348 0.309716 -1.098622
v 1.393284 0.293953 -1.098622
v 1.427578 0.288521 -1.098622
v 1.461872 0.293953 -1.098622
v 1.492809 0.309716 -1.098622
v 1.517361 0.334268 -1.098622
v 1.533124 0.365205 -1.098622
v 1.538556 0.399499 -1.098622
v 1.427578 0.399499 -3.310178
v 1.427578 0.399499 -1.098622
v 1.648492 0.471278 -1.319778
v 1.659861 0.399499 -1.319778
v 1.648492 0.327720 -1.319778
v 1.615499 0.262967 -1.319778
v 1.564111 0.211578 -1.319778
v 1.499358 0.178585 -1.319778
v 1.427578 0.167216 -1.319778
v 1.355799 0.178585 -1.319778
v 1.291046 0.211578 -1.319778
v 1.239658 0.262967 -1.319778
v 1.206664 0.327720 -1.319778
v 1.195295 0.399499 -1.319778
v 1.206664 0.471278 -1.319778
v 1.239658 0.536031 -1.319778
v 1.291046 0.587420 -1.319778
v 1.355799 0.620413 -1.319778
v 1.427578 0.631782 -1.319778
v 1.499358 0.620413 -1.319778
v 1.564111 0.587420 -1.319778
v 1.615499 0.536031 -1.319778
v 1.648492 0.471278 -3.111138
v 1.659861 0.399499 -3.111138
v 1.648492 0.327720 -3.111138
v 1.615499 0.262967 -3.111138
v 1.564111 0.211578 -3.111138
v 1.499358 0.178585 -3.111138
v 1.427578 0.167216 -3.111138
v 1.355799 0.178585 -3.111138
v 1.291046 0.211578 -3.111138
v 1.239658 0.262967 -3.111138
v 1.206664 0.327720 -3.111138
v 1.195295 0.399499 -3.111138
v 1.206664 0.471278 -3.111138
v 1.239658 0.536031 -3.111138
v 1.291046 0.587420 -3.111138
v 1.355799 0.620413 -3.111138
v 1.427578 0.631782 -3.111138
v 1.499358 0.620413 -3.111138
v 1.564111 0.587420 -3.111138
v 1.615499 0.536031 -3.111138
v 1.648492 0.471278 -1.396552
v 1.659861 0.399499 -1.396552
v 1.648492 0.327720 -1.396552
v 1.615499 0.262967 -1.396552
v 1.564111 0.211578 -1.396552
v 1.499358 0.178585 -1.396552
v 1.427578 0.167216 -1.396552
v 1.355799 0.178585 -1.396552
v 1.291046 0.211578 -1.396552
v 1.239658 0.262967 -1.396552
v 1.206664 0.327720 -1.396552
v 1.195295 0.399499 -1.396552
v 1.206664 0.471278 -1.396552
v 1.239658 0.536031 -1.396552
v 1.291046 0.587420 -1.396552
v 1.355799 0.620413 -1.396552
v 1.427578 0.631782 -1.396552
v 1.499358 0.620413 -1.396552
v 1.564111 0.587420 -1.396552
v 1.615499 0.536031 -1.396552
v 1.648492 0.471278 -3.038244
v 1.659861 0.399499 -3.038244
v 1.648492 0.327720 -3.038244
v 1.615499 0.262967 -3.038244
v 1.564111 0.211578 -3.038244
v 1.499358 0.178585 -3.038244
v 1.427578 0.167216 -3.038244
v 1.355799 0.178585 -3.038244
v 1.291046 0.211578 -3.038244
v 1.239658 0.262967 -3.038244
v 1.206664 0.327720 -3.038244
v 1.195295 0.399499 -3.038244
v 1.206664 0.471278 -3.038244
v 1.239658 0.536031 -3.038244
v 1.291046 0.587420 -3.038244
v 1.355799 0.620413 -3.038244
v 1.427578 0.631782 -3.038244
v 1.499358 0.620413 -3.038244
v 1.564111 0.587420 -3.038244
v 1.615499 0.536031 -3.038244
v 1.235351 0.337041 -3.038244
v 1.225459 0.399499 -3.038244
v 1.235351 0.337041 -1.396552
v 1.225459 0.399499 -1.396552
v 1.235351 0.461958 -3.038244
v 1.235351 0.461958 -1.396552
v 1.264060 0.518302 -3.038244
v 1.264060 0.518302 -1.396552
v 1.308776 0.563017 -3.038244
v 1.308776 0.563017 -1.396552
v 1.365120 0.591726 -3.038244
v 1.365120 0.591726 -1.396552
v 1.427578 0.601619 -3.038244
v 1.427578 0.601619 -1.396552
v 1.490037 0.591726 -3.038244
v 1.490037 0.591726 -1.396552
v 1.546382 0.563017 -3.038244
v 1.546382 0.563017 -1.396552
v 1.591097 0.518301 -3.038244
v 1.591097 0.518301 -1.396552
v 1.619806 0.461957 -3.038244
v 1.619806 0.461957 -1.396552
v 1.629697 0.399499 -3.038244
v 1.629697 0.399499 -1.396552
v 1.619806 0.337040 -3.038244
v 1.619806 0.337040 -1.396552
v 1.591097 0.280697 -3.038244
v 1.591097 0.280697 -1.396552
v 1.546382 0.235981 -3.038244
v 1.546382 0.235981 -1.396552
v 1.490037 0.207272 -3.038244
v 1.490037 0.207272 -1.396552
v 1.427578 0.197379 -3.038244
v 1.427578 0.197379 -1.396552
v 1.365120 0.207272 -3.038244
v 1.365120 0.207272 -1.396552
v 1.308776 0.235981 -3.038244
v 1.308776 0.235981 -1.396552
v 1.264060 0.280697 -3.038244
v 1.264060 0.280697 -1.396552
v -1.533996 0.434076 -3.310178
v -1.518103 0.465269 -3.310178
v -1.493348 0.490024 -3.310178
v -1.462156 0.505917 -3.310178
v -1.427578 0.511394 -3.310178
v -1.393001 0.505917 -3.310178
v -1.361808 0.490024 -3.310178
v -1.337053 0.465269 -3.310178
v -1.321159 0.434076 -3.310178
v -1.315684 0.399499 -3.310178
v -1.321159 0.364922 -3.310178
v -1.337053 0.333729 -3.310178
v -1.361808 0.308974 -3.310178
v -1.393001 0.293081 -3.310178
v -1.427578 0.287604 -3.310178
v -1.462156 0.293081 -3.310178
v -1.493348 0.308974 -3.310178
v -1.518103 0.333729 -3.310178
v -1.533996 0.364922 -3.310178
v -1.539472 0.399499 -3.310178
v -1.533125 0.433793 -1.098622
v -1.517362 0.464730 -1.098622
v -1.492809 0.489282 -1.098622
v -1.461872 0.505045 -1.098622
v -1.427578 0.510477 -1.098622
v -1.393284 0.505045 -1.098622
v -1.362348 0.489282 -1.098622
v -1.337795 0.464730 -1.098622
v -1.322031 0.433793 -1.098622
v -1.316600 0.399499 -1.098622
v -1.322031 0.365205 -1.098622
v -1.337795 0.334268 -1.098622
v -1.362348 0.309716 -1.098622
v -1.393284 0.293953 -1.098622
v -1.427578 0.288521 -1.098622
v -1.461872 0.293953 -1.098622
v -1.492809 0.309716 -1.098622
v -1.517361 0.334268 -1.098622
v -1.533124 0.365205 -1.098622
v -1.538556 0.399499 -1.098622
v -1.427578 0.399499 -3.310178
v -1.427578 0.399499 -1.098622
v -1.648492 0.471278 -1.319778
v -1.659860 0.399499 -1.319778
v -1.648492 0.327720 -1.319778
v -1.615498 0.262967 -1.319778
v -1.564111 0.211578 -1.319778
v -1.499358 0.178585 -1.319778
v -1.427578 0.167216 -1.319778
v -1.355799 0.178585 -1.319778
v -1.291046 0.211578 -1.319778
v -1.239658 0.262967 -1.319778
v -1.206664 0.327720 -1.319778
v -1.195295 0.399499 -1.319778
v -1.206664 0.471278 -1.319778
v -1.239658 0.536031 -1.319778
v -1.291046 0.587420 -1.319778
v -1.355799 0.620413 -1.319778
v -1.427578 0.631782 -1.319778
v -1.499358 0.620413 -1.319778
v -1.564111 0.587420 -1.319778
v -1.615498 0.536031 -1.319778
v -1.648492 0.471278 -3.111138
v -1.659860 0.399499 -3.111138
v -1.648492 0.327720 -3.111138
v -1.615498 0.262967 -3.111138
v -1.564111 0.211578 -3.111138
v -1.499358 0.178585 -3.111138
v -1.427578 0.167216 -3.111138
v -1.355799 0.178585 -3.111138
v -1.291046 0.211578 -3.111138
v -1.239658 0.262967 -3.111138
v -1.206664 0.327720 -3.111138
v -1.195295 0.399499 -3.111138
v -1.206664 0.471278 -3.111138
v -1.239658 0.536031 -3.111138
v -1.291046 0.587420 -3.111138
v -1.355799 0.620413 -3.111138
v -1.427578 0.631782 -3.111138
v -1.499358 0.620413 -3.111138
v -1.564111 0.587420 -3.111138
v -1.615498 0.536031 -3.111138
v -1.648492 0.471278 -1.396552
v -1.659860 0.399499 -1.396552
v -1.648492 0.327720 -1.396552
v -1.615498 0.262967 -1.396552
v -1.564111 0.211578 -1.396552
v -1.499358 0.178585 -1.396552
v -1.427578 0.167216 -1.396552
v -1.355799 0.178585 -1.396552
v -1.291046 0.211578 -1.396552
v -1.239658 0.262967 -1.396552
v -1.206664 0.327720 -1.396552
v -1.195295 0.399499 -1.396552
v -1.206664 0.471278 -1.396552
v -1.239658 0.536031 -1.396552
v -1.291046 0.587420 -1.396552
v -1.355799 0.620413 -1.396552
v -1.427578 0.631782 -1.396552
v -1.499358 0.620413 -1.396552
v -1.564111 0.587420 -1.396552
v -1.615498 0.536031 -1.396552
v -1.648492 0.471278 -3.038244
v -1.659860 0.399499 -3.038244
v -1.648492 0.327720 -3.038244
v -1.615498 0.262967 -3.038244
v -1.564111 0.211578 -3.038244
v -1.499358 0.178585 -3.038244
v -1.427578 0.167216 -3.038244
v -1.355799 0.178585 -3.038244
v -1.291046 0.211578 -3.038244
v -1.239658 0.262967 -3.038244
v -1.206664 0.327720 -3.038244
v -1.195295 0.399499 -3.038244
v -1.206664 0.471278 -3.038244
v -1.239658 0.536031 -3.038244
v -1.291046 0.587420 -3.038244
v -1.355799 0.620413 -3.038244
v -1.427578 0.631782 -3.038244
v -1.499358 0.620413 -3.038244
v -1.564111 0.587420 -3.038244
v -1.615498 0.536031 -3.038244
v -1.235351 0.337041 -3.038244
v -1.225459 0.399499 -3.038244
v -1.235351 0.337041 -1.396552
v -1.225459 0.399499 -1.396552
v -1.235351 0.461958 -3.038244
v -1.235351 0.461958 -1.396552
v -1.264060 0.518302 -3.038244
v -1.264060 0.518302 -1.396552
v -1.308776 0.563017 -3.038244
v -1.308776 0.563017 -1.396552
v -1.365120 0.591726 -3.038244
v -1.365120 0.591726 -1.396552
v -1.427578 0.601619 -3.038244
v -1.427578 0.601619 -1.396552
v -1.490037 0.591726 -3.038244
v -1.490037 0.591726 -1.396552
v -1.546382 0.563017 -3.038244
v -1.546382 0.563017 -1.396552
v -1.591097 0.518301 -3.038244
v -1.591097 0.518301 -1.396552
v -1.619806 0.461957 -3.038244
v -1.619806 0.461957 -1.396552
v -1.629697 0.399499 -3.038244
v -1.629697 0.399499 -1.396552
v -1.619806 0.337040 -3.038244
v -1.619806 0.337040 -1.396552
v -1.591097 0.280697 -3.038244
v -1.591097 0.280697 -1.396552
v -1.546382 0.235981 -3.038244
v -1.546382 0.235981 -1.396552
v -1.490037 0.207272 -3.038244
v -1.490037 0.207272 -1.396552
v -1.427578 0.197379 -3.038244
v -1.427578 0.197379 -1.396552
v -1.365120 0.207272 -3.038244
v -1.365120 0.207272 -1.396552
v -1.308776 0.235981 -3.038244
v -1.308776 0.235981 -1.396552
v -1.264060 0.280697 -3.038244
v -1.264060 0.280697 -1.396552
vt 0.648603 0.107966
vt 0.626409 0.064408
vt 0.591842 0.029841
vt 0.548284 0.007647
vt 0.500000 -0.000000
vt 0.451716 0.007647
vt 0.408159 0.029841
vt 0.373591 0.064409
vt 0.351397 0.107966
vt 0.343750 0.156250
vt 0.351397 0.204534
vt 0.373591 0.248091
vt 0.408159 0.282659
vt 0.451716 0.304853
vt 0.500000 0.312500
vt 0.548284 0.304853
vt 0.591841 0.282659
vt 0.626409 0.248091
vt 0.648603 0.204534
vt 0.656250 0.156250
vt 0.375000 0.312500
vt 0.387500 0.312500
vt 0.400000 0.312500
vt 0.412500 0.312500
vt 0.425000 0.312500
vt 0.437500 0.312500
vt 0.450000 0.312500
vt 0.462500 0.312500
vt 0.475000 0.312500
vt 0.487500 0.312500
vt 0.500000 0.312500
vt 0.512500 0.312500
vt 0.525000 0.312500
vt 0.537500 0.312500
vt 0.550000 0.312500
vt 0.562500 0.312500
vt 0.575000 0.312500
vt 0.587500 0.312500
vt 0.600000 0.312500
vt 0.612500 0.312500
vt 0.625000 0.312500
vt 0.375000 0.687500
vt 0.387500 0.687500
vt 0.400000 0.687500
vt 0.412500 0.687500
vt 0.425000 0.687500
vt 0.437500 0.687500
vt 0.450000 0.687500
vt 0.462500 0.687500
vt 0.475000 0.687500
vt 0.487500 0.687500
vt 0.500000 0.687500
vt 0.512500 0.687500
vt 0.525000 0.687500
vt 0.537500 0.687500
vt 0.550000 0.687500
vt 0.562500 0.687500
vt 0.575000 0.687500
vt 0.587500 0.687500
vt 0.600000 0.687500
vt 0.612500 0.687500
vt 0.625000 0.687500
vt 0.648603 0.795466
vt 0.626409 0.751908
vt 0.591842 0.717341
vt 0.548284 0.695147
vt 0.500000 0.687500
vt 0.451716 0.695147
vt 0.408159 0.717341
vt 0.373591 0.751909
vt 0.351397 0.795466
vt 0.343750 0.843750
vt 0.351397 0.892034
vt 0.373591 0.935591
vt 0.408159 0.970159
vt 0.451716 0.992353
vt 0.500000 1.000000
vt 0.548284 0.992353
vt 0.591841 0.970159
vt 0.626409 0.935591
vt 0.648603 0.892034
vt 0.656250 0.843750
vt 0.500000 0.156250
vt 0.500000 0.843750
vt 0.625000 0.650000
vt 0.375000 0.650000
vt 0.612500 0.650000
vt 0.600000 0.650000
vt 0.587500 0.650000
vt 0.575000 0.650000
vt 0.562500 0.650000
vt 0.550000 0.650000
vt 0.537500 0.650000
vt 0.525000 0.650000
vt 0.512500 0.650000
vt 0.500000 0.650000
vt 0.487500 0.650000
vt 0.475000 0.650000
vt 0.462500 0.650000
vt 0.450000 0.650000
vt 0.437500 0.650000
vt 0.425000 0.650000
vt 0.412500 0.650000
vt 0.400000 0.650000
vt 0.387500 0.650000
vt 0.625000 0.346250
vt 0.375000 0.346250
vt 0.612500 0.346250
vt 0.600000 0.346250
vt 0.587500 0.346250
vt 0.575000 0.346250
vt 0.562500 0.346250
vt 0.550000 0.346250
vt 0.537500 0.346250
vt 0.525000 0.346250
vt 0.512500 0.346250
vt 0.500000 0.346250
vt 0.487500 0.346250
vt 0.475000 0.346250
vt 0.462500 0.346250
vt 0.450000 0.346250
vt 0.437500 0.346250
vt 0.425000 0.346250
vt 0.412500 0.346250
vt 0.400000 0.346250
vt 0.387500 0.346250
vt 0.625000 0.636982
vt 0.375000 0.636982
vt 0.612500 0.636982
vt 0.600000 0.636982
vt 0.587500 0.636982
vt 0.575000 0.636982
vt 0.562500 0.636982
vt 0.550000 0.636982
vt 0.537500 0.636982
vt 0.525000 0.636982
vt 0.512500 0.636982
vt 0.500000 0.636982
vt 0.487500 0.636982
vt 0.475000 0.636982
vt 0.462500 0.636982
vt 0.450000 0.636982
vt 0.437500 0.636982
vt 0.425000 0.636982
vt 0.412500 0.636982
vt 0.400000 0.636982
vt 0.387500 0.636982
vt 0.625000 0.358610
vt 0.375000 0.358610
vt 0.612500 0.358610
vt 0.600000 0.358610
vt 0.587500 0.358610
vt 0.575000 0.358610
vt 0.562500 0.358610
vt 0.550000 0.358610
vt 0.537500 0.358610
vt 0.525000 0.358610
vt 0.512500 0.358610
vt 0.500000 0.358610
vt 0.487500 0.358610
vt 0.475000 0.358610
vt 0.462500 0.358610
vt 0.450000 0.358610
vt 0.437500 0.358610
vt 0.425000 0.358610
vt 0.412500 0.358610
vt 0.400000 0.358610
vt 0.387500 0.358610
vt 0.612500 0.358610
vt 0.625000 0.358610
vt 0.625000 0.636982
vt 0.612500 0.636982
vt 0.600000 0.358610
vt 0.600000 0.636982
vt 0.587500 0.358610
vt 0.587500 0.636982
vt 0.575000 0.358610
vt 0.575000 0.636982
vt 0.562500 0.358610
vt 0.562500 0.636982
vt 0.550000 0.358610
vt 0.550000 0.636982
vt 0.537500 0.358610
vt 0.537500 0.636982
vt 0.525000 0.358610
vt 0.525000 0.636982
vt 0.512500 0.358610
vt 0.512500 0.636982
vt 0.500000 0.358610
vt 0.500000 0.636982
vt 0.487500 0.358610
vt 0.487500 0.636982
vt 0.475000 0.358610
vt 0.475000 0.636982
vt 0.462500 0.358610
vt 0.462500 0.636982
vt 0.450000 0.358610
vt 0.450000 0.636982
vt 0.437500 0.358610
vt 0.437500 0.636982
vt 0.425000 0.358610
vt 0.425000 0.636982
vt 0.412500 0.358610
vt 0.412500 0.636982
vt 0.400000 0.358610
vt 0.400000 0.636982
vt 0.387500 0.358610
vt 0.387500 0.636982
vt 0.375000 0.358610
vt 0.375000 0.636982
vt 0.375000 0.312500
vt 0.387500 0.312500
vt 0.387500 0.346250
vt 0.375000 0.346250
vt 0.400000 0.312500
vt 0.400000 0.346250
vt 0.412500 0.312500
vt 0.412500 0.346250
vt 0.425000 0.312500
vt 0.425000 0.346250
vt 0.437500 0.312500
vt 0.437500 0.346250
vt 0.450000 0.312500
vt 0.450000 0.346250
vt 0.462500 0.312500
vt 0.462500 0.346250
vt 0.475000 0.312500
vt 0.475000 0.346250
vt 0.487500 0.312500
vt 0.487500 0.346250
vt 0.500000 0.312500
vt 0.500000 0.346250
vt 0.512500 0.312500
vt 0.512500 0.346250
vt 0.525000 0.312500
vt 0.525000 0.346250
vt 0.537500 0.312500
vt 0.537500 0.346250
vt 0.550000 0.312500
vt 0.550000 0.346250
vt 0.562500 0.312500
vt 0.562500 0.346250
vt 0.575000 0.312500
vt 0.575000 0.346250
vt 0.587500 0.312500
vt 0.587500 0.346250
vt 0.600000 0.312500
vt 0.600000 0.346250
vt 0.612500 0.312500
vt 0.612500 0.346250
vt 0.625000 0.312500
vt 0.625000 0.346250
vt 0.626409 0.064408
vt 0.648603 0.107966
vt 0.500000 0.156250
vt 0.591842 0.029841
vt 0.548284 0.007647
vt 0.500000 -0.000000
vt 0.451716 0.007647
vt 0.408159 0.029841
vt 0.373591 0.064409
vt 0.351397 0.107966
vt 0.343750 0.156250
vt 0.351397 0.204534
vt 0.373591 0.248091
vt 0.408159 0.282659
vt 0.451716 0.304853
vt 0.500000 0.312500
vt 0.548284 0.304853
vt 0.591841 0.282659
vt 0.626409 0.248091
vt 0.648603 0.204534
vt 0.656250 0.156250
vt 0.648603 0.892034
vt 0.626409 0.935591
vt 0.500000 0.843750
vt 0.591841 0.970159
vt 0.548284 0.992353
vt 0.500000 1.000000
vt 0.451716 0.992353
vt 0.408159 0.970159
vt 0.373591 0.935591
vt 0.351397 0.892034
vt 0.343750 0.843750
vt 0.351397 0.795466
vt 0.373591 0.751909
vt 0.408159 0.717341
vt 0.451716 0.695147
vt 0.500000 0.687500
vt 0.548284 0.695147
vt 0.591842 0.717341
vt 0.626409 0.751908
vt 0.648603 0.795466
vt 0.656250 0.843750
vt 0.612500 0.650000
vt 0.625000 0.650000
vt 0.625000 0.687500
vt 0.612500 0.687500
vt 0.600000 0.650000
vt 0.600000 0.687500
vt 0.587500 0.650000
vt 0.587500 0.687500
vt 0.575000 0.650000
vt 0.575000 0.687500
vt 0.562500 0.650000
vt 0.562500 0.687500
vt 0.550000 0.650000
vt 0.550000 0.687500
vt 0.537500 0.650000
vt 0.537500 0.687500
vt 0.525000 0.650000
vt 0.525000 0.687500
vt 0.512500 0.650000
vt 0.512500 0.687500
vt 0.500000 0.650000
vt 0.500000 0.687500
vt 0.487500 0.650000
vt 0.487500 0.687500
vt 0.475000 0.650000
vt 0.475000 0.687500
vt 0.462500 0.650000
vt 0.462500 0.687500
vt 0.450000 0.650000
vt 0.450000 0.687500
vt 0.437500 0.650000
vt 0.437500 0.687500
vt 0.425000 0.650000
vt 0.425000 0.687500
vt 0.412500 0.650000
vt 0.412500 0.687500
vt 0.400000 0.650000
vt 0.400000 0.687500
vt 0.387500 0.650000
vt 0.387500 0.687500
vt 0.375000 0.650000
vt 0.375000 0.687500
vt 0.625000 0.358610
vt 0.612500 0.358610
vt 0.600000 0.358610
vt 0.587500 0.358610
vt 0.575000 0.358610
vt 0.562500 0.358610
vt 0.550000 0.358610
vt 0.537500 0.358610
vt 0.525000 0.358610
vt 0.512500 0.358610
vt 0.500000 0.358610
vt 0.487500 0.358610
vt 0.475000 0.358610
vt 0.462500 0.358610
vt 0.450000 0.358610
vt 0.437500 0.358610
vt 0.425000 0.358610
vt 0.412500 0.358610
vt 0.400000 0.358610
vt 0.387500 0.358610
vt 0.375000 0.358610
vt 0.612500 0.636982
vt 0.625000 0.636982
vt 0.600000 0.636982
vt 0.587500 0.636982
vt 0.575000 0.636982
vt 0.562500 0.636982
vt 0.550000 0.636982
vt 0.537500 0.636982
vt 0.525000 0.636982
vt 0.512500 0.636982
vt 0.500000 0.636982
vt 0.487500 0.636982
vt 0.475000 0.636982
vt 0.462500 0.636982
vt 0.450000 0.636982
vt 0.437500 0.636982
vt 0.425000 0.636982
vt 0.412500 0.636982
vt 0.400000 0.636982
vt 0.387500 0.636982
vt 0.375000 0.636982
vt 0.612500 0.358610
vt 0.625000 0.358610
vt 0.625000 0.636982
vt 0.612500 0.636982
vt 0.600000 0.358610
vt 0.600000 0.636982
vt 0.587500 0.358610
vt 0.587500 0.636982
vt 0.575000 0.358610
vt 0.575000 0.636982
vt 0.562500 0.358610
vt 0.562500 0.636982
vt 0.550000 0.358610
vt 0.550000 0.636982
vt 0.537500 0.358610
vt 0.537500 0.636982
vt 0.525000 0.358610
vt 0.525000 0.636982
vt 0.512500 0.358610
vt 0.512500 0.636982
vt 0.500000 0.358610
vt 0.500000 0.636982
vt 0.487500 0.358610
vt 0.487500 0.636982
vt 0.475000 0.358610
vt 0.475000 0.636982
vt 0.462500 0.358610
vt 0.462500 0.636982
vt 0.450000 0.358610
vt 0.450000 0.636982
vt 0.437500 0.358610
vt 0.437500 0.636982
vt 0.425000 0.358610
vt 0.425000 0.636982
vt 0.412500 0.358610
vt 0.412500 0.636982
vt 0.400000 0.358610
vt 0.400000 0.636982
vt 0.387500 0.358610
vt 0.387500 0.636982
vt 0.375000 0.358610
vt 0.375000 0.636982
vn 0.813782 0.264408 -0.517540
vn 0.692243 0.502943 -0.517540
vn 0.753402 0.547378 -0.364367
vn 0.885678 0.287771 -0.364366
vn 0.502945 0.692241 -0.517540
vn 0.547380 0.753400 -0.364367
vn 0.264412 0.813780 -0.517541
vn 0.287773 0.885677 -0.364367
vn -0.000000 0.855659 -0.517541
vn -0.000000 0.931255 -0.364367
vn -0.264413 0.813780 -0.517541
vn -0.287774 0.885676 -0.364367
vn -0.502946 0.692241 -0.517540
vn -0.547380 0.753400 -0.364367
vn -0.692243 0.502945 -0.517538
vn -0.753402 0.547378 -0.364366
vn -0.813780 0.264416 -0.517539
vn -0.885676 0.287777 -0.364366
vn -0.855659 0.000000 -0.517539
vn -0.931256 -0.000000 -0.364366
vn -0.813780 -0.264416 -0.517539
vn -0.885676 -0.287777 -0.364366
vn -0.692243 -0.502945 -0.517539
vn -0.753402 -0.547378 -0.364366
vn -0.502946 -0.692241 -0.517540
vn -0.547380 -0.753400 -0.364367
vn -0.264413 -0.813780 -0.517540
vn -0.287774 -0.885676 -0.364367
vn -0.000000 -0.855659 -0.517540
vn 0.000000 -0.931255 -0.364367
vn 0.264413 -0.813780 -0.517541
vn 0.287773 -0.885677 -0.364367
vn 0.502946 -0.692241 -0.517540
vn 0.547381 -0.753400 -0.364367
vn 0.692243 -0.502944 -0.517540
vn 0.753401 -0.547378 -0.364367
vn 0.813782 -0.264408 -0.517540
vn 0.885678 -0.287771 -0.364366
vn 0.855659 0.000000 -0.517540
vn 0.931255 -0.000000 -0.364367
vn 0.000000 -0.000002 -1.000000
vn 0.000000 -0.000002 -1.000000
vn 0.000000 0.000000 -1.000000
vn 0.000000 -0.000000 -1.000000
vn 0.000000 -0.000000 -1.000000
vn 0.000000 -0.000000 -1.000000
vn 0.000000 -0.000000 -1.000000
vn 0.000000 -0.000000 -1.000000
vn 0.000000 -0.000000 -1.000000
vn 0.000000 -0.000000 -1.000000
vn 0.000000 -0.000000 -1.000000
vn 0.000000 0.000002 -1.000000
vn 0.000000 0.000002 -1.000000
vn 0.000000 -0.000000 -1.000000
vn 0.000000 -0.000000 -1.000000
vn 0.000000 -0.000000 -1.000000
vn 0.000000 -0.000000 -1.000000
vn 0.000000 -0.000000 -1.000000
vn 0.000000 -0.000000 -1.000000
vn 0.000000 -0.000000 -1.000000
vn 0.000000 -0.000000 -1.000000
vn 0.000000 0.000000 1.000000
vn 0.000000 0.000000 1.000000
vn 0.000000 0.000000 1.000000
vn 0.000000 0.000000 1.000000
vn 0.000000 0.000000 1.000000
vn 0.000000 0.000000 1.000000
vn 0.000000 0.000000 1.000000
vn 0.000000 0.000000 1.000000
vn 0.000000 0.000000 1.000000
vn 0.000000 0.000000 1.000000
vn 0.000000 0.000000 1.000000
vn 0.000000 0.000000 1.000000
vn 0.000000 0.000000 1.000000
vn 0.000000 0.000000 1.000000
vn 0.000000 0.000000 1.000000
vn 0.000000 0.000000 1.000000
vn 0.000000 0.000000 1.000000
vn 0.000000 0.000000 1.000000
vn 0.000000 0.000000 1.000000
vn 0.000000 0.000000 1.000000
vn 0.000000 0.000000 1.000000
vn 0.940501 -0.000003 0.339790
vn 0.894471 0.290629 0.339789
vn 0.833859 0.270933 0.480910
vn 0.876770 -0.000005 0.480910
vn 0.894470 -0.290630 0.339791
vn 0.833857 -0.270936 0.480912
vn 0.760882 -0.552812 0.339791
vn 0.709321 -0.515351 0.480912
vn 0.552815 -0.760879 0.339792
vn 0.515354 -0.709319 0.480913
vn 0.290631 -0.894469 0.339791
vn 0.270937 -0.833857 0.480912
vn 0.000000 -0.940501 0.339791
vn 0.000000 -0.876769 0.480912
vn -0.290632 -0.894469 0.339791
vn -0.270939 -0.833856 0.480912
vn -0.552815 -0.760880 0.339791
vn -0.515353 -0.709320 0.480912
vn -0.760880 -0.552814 0.339791
vn -0.709319 -0.515355 0.480910
vn -0.894469 -0.290633 0.339790
vn -0.833857 -0.270937 0.480910
vn -0.940501 -0.000000 0.339790
vn -0.876769 0.000000 0.480911
vn -0.894469 0.290633 0.339790
vn -0.833857 0.270937 0.480910
vn -0.760880 0.552814 0.339791
vn -0.709319 0.515356 0.480910
vn -0.552815 0.760879 0.339791
vn -0.515354 0.709320 0.480912
vn -0.290633 0.894469 0.339791
vn -0.270940 0.833856 0.480912
vn -0.000000 0.940501 0.339791
vn -0.000000 0.876769 0.480912
vn 0.290631 0.894469 0.339791
vn 0.270936 0.833856 0.480912
vn 0.552814 0.760880 0.339791
vn 0.515352 0.709321 0.480912
vn 0.760880 0.552814 0.339790
vn 0.709320 0.515355 0.480910
vn 0.951057 0.309016 0.000000
vn 1.000000 0.000000 0.000000
vn 0.951057 -0.309016 0.000000
vn 0.809018 -0.587784 0.000000
vn 0.587788 -0.809015 0.000000
vn 0.309016 -0.951057 0.000000
vn -0.000000 -1.000000 0.000000
vn -0.309017 -0.951056 0.000000
vn -0.587788 -0.809015 0.000000
vn -0.809018 -0.587784 0.000000
vn -0.951055 -0.309022 0.000000
vn -1.000000 0.000000 0.000000
vn -0.951055 0.309022 0.000000
vn -0.809018 0.587784 0.000000
vn -0.587788 0.809015 0.000000
vn -0.309018 0.951056 0.000000
vn -0.000001 1.000000 0.000000
vn 0.309016 0.951057 0.000001
vn 0.587788 0.809015 0.000000
vn 0.809018 0.587784 0.000000
vn 1.000000 0.000000 0.000000
vn 0.951057 0.309016 0.000000
vn 0.951057 -0.309016 0.000000
vn 0.809018 -0.587784 0.000000
vn 0.587788 -0.809015 0.000000
vn 0.309016 -0.951057 0.000000
vn 0.000000 -1.000000 0.000000
vn -0.309017 -0.951057 0.000000
vn -0.587788 -0.809015 0.000000
vn -0.809018 -0.587784 0.000000
vn -0.951055 -0.309022 0.000000
vn -1.000000 0.000000 0.000000
vn -0.951055 0.309022 0.000000
vn -0.809018 0.587784 0.000000
vn -0.587789 0.809015 0.000000
vn -0.309018 0.951056 0.000000
vn -0.000001 1.000000 0.000000
vn 0.309016 0.951057 0.000000
vn 0.587788 0.809015 0.000000
vn 0.809018 0.587784 0.000000
vn -1.000000 0.000000 0.000000
vn -0.951058 -0.309013 0.000000
vn -0.951058 -0.309013 0.000000
vn -1.000000 0.000000 0.000000
vn -0.951058 0.309012 0.000000
vn -0.951058 0.309012 0.000000
vn -0.809015 0.587788 0.000000
vn -0.809015 0.587788 0.000000
vn -0.587785 0.809017 0.000000
vn -0.587785 0.809017 0.000000
vn -0.309016 0.951057 0.000000
vn -0.309016 0.951057 0.000000
vn 0.000002 1.000000 0.000000
vn 0.000002 1.000000 0.000000
vn 0.309015 0.951057 0.000000
vn 0.309015 0.951057 0.000000
vn 0.587788 0.809015 0.000000
vn 0.587788 0.809015 0.000000
vn 0.809018 0.587784 0.000000
vn 0.809018 0.587784 0.000000
vn 0.951058 0.309013 0.000000
vn 0.951058 0.309013 0.000000
vn 1.000000 0.000000 0.000000
vn 1.000000 0.000000 0.000000
vn 0.951058 -0.309013 0.000000
vn 0.951058 -0.309013 0.000000
vn 0.809017 -0.587785 0.000000
vn 0.809017 -0.587785 0.000000
vn 0.587788 -0.809015 0.000000
vn 0.587788 -0.809015 0.000000
vn 0.309016 -0.951057 0.000000
vn 0.309016 -0.951057 0.000000
vn 0.000003 -1.000000 0.000000
vn 0.000003 -1.000000 0.000000
vn -0.309018 -0.951056 0.000000
vn -0.309018 -0.951056 0.000000
vn -0.587788 -0.809015 0.000000
vn -0.587788 -0.809015 0.000000
vn -0.809015 -0.587788 0.000000
vn -0.809015 -0.587788 0.000000
vn 0.000000 0.000000 1.000000
vn 0.000000 -0.000000 1.000000
vn 0.000000 -0.000000 1.000000
vn 0.000000 -0.000000 1.000000
vn 0.000000 -0.000000 -1.000000
vn 0.000000 -0.000000 -1.000000
vn 0.000000 -0.000000 -1.000000
vn 0.000000 -0.000000 -1.000000
vn 0.000000 0.000000 1.000000
vn 0.000000 0.000000 1.000000
vn 0.000000 -0.000000 -1.000000
vn 0.000000 -0.000000 -1.000000
vn 0.000000 0.000008 1.000000
vn 0.000000 0.000008 1.000000
vn 0.000000 -0.000000 -1.000000
vn 0.000000 -0.000000 -1.000000
vn 0.000000 0.000000 1.000000
vn 0.000000 0.000000 1.000000
vn 0.000000 -0.000000 -1.000000
vn 0.000000 -0.000000 -1.000000
vn 0.000000 0.000000 1.000000
vn 0.000000 0.000000 1.000000
vn 0.000000 -0.000000 -1.000000
vn 0.000000 -0.000000 -1.000000
vn 0.000000 0.000000 1.000000
vn 0.000000 0.000000 1.000000
vn 0.000000 -0.000001 -1.000000
vn 0.000000 -0.000001 -1.000000
vn 0.000000 0.000000 1.000000
vn 0.000000 0.000000 1.000000
vn 0.000000 -0.000001 -1.000000
vn 0.000000 -0.000001 -1.000000
vn 0.000000 0.000000 1.000000
vn 0.000000 0.000000 1.000000
vn 0.000000 -0.000004 -1.000000
vn 0.000000 -0.000004 -1.000000
vn 0.000000 0.000008 1.000000
vn 0.000000 0.000008 1.000000
vn 0.000000 -0.000004 -1.000000
vn 0.000000 -0.000004 -1.000000
vn 0.000000 0.000008 1.000000
vn 0.000000 0.000008 1.000000
vn 0.000000 -0.000000 -1.000000
vn 0.000000 -0.000000 -1.000000
vn 0.000000 0.000000 1.000000
vn 0.000000 0.000000 1.000000
vn 0.000000 -0.000000 -1.000000
vn 0.000000 -0.000000 -1.000000
vn 0.000000 -0.000008 1.000000
vn 0.000000 -0.000008 1.000000
vn 0.000000 -0.000000 -1.000000
vn 0.000000 -0.000000 -1.000000
vn 0.000000 -0.000008 1.000000
vn 0.000000 -0.000008 1.000000
vn 0.000000 -0.000000 -1.000000
vn 0.000000 -0.000000 -1.000000
vn 0.000000 0.000002 1.000000
vn 0.000000 0.000002 1.000000
vn 0.000000 -0.000004 -1.000000
vn 0.000000 -0.000004 -1.000000
vn 0.000000 0.000002 1.000000
vn 0.000000 0.000002 1.000000
vn 0.000000 -0.000002 -1.000000
vn 0.000000 -0.000002 -1.000000
vn 0.000000 0.000000 1.000000
vn 0.000000 0.000000 1.000000
vn 0.000000 0.000001 -1.000000
vn 0.000000 0.000001 -1.000000
vn 0.000000 0.000000 1.000000
vn 0.000000 0.000000 1.000000
vn 0.000000 -0.000001 -1.000000
vn 0.000000 -0.000001 -1.000000
vn 0.000000 0.000000 1.000000
vn 0.000000 0.000000 1.000000
vn 0.000000 0.000004 -1.000000
vn 0.000000 0.000004 -1.000000
vn 0.000000 -0.000008 1.000000
vn 0.000000 -0.000008 1.000000
vn 0.000000 0.000004 -1.000000
vn 0.000000 0.000004 -1.000000
vn -0.813782 0.264409 -0.517540
vn -0.885678 0.287771 -0.364367
vn -0.753402 0.547378 -0.364367
vn -0.692243 0.502943 -0.517540
vn -0.547381 0.753399 -0.364368
vn -0.502945 0.692241 -0.517541
vn -0.287773 0.885677 -0.364367
vn -0.264412 0.813780 -0.517541
vn 0.000000 0.931255 -0.364367
vn 0.000001 0.855659 -0.517540
vn 0.287774 0.885676 -0.364367
vn 0.264413 0.813780 -0.517540
vn 0.547381 0.753400 -0.364367
vn 0.502946 0.692241 -0.517540
vn 0.753402 0.547378 -0.364366
vn 0.692243 0.502945 -0.517538
vn 0.885676 0.287777 -0.364366
vn 0.813780 0.264415 -0.517539
vn 0.931256 -0.000000 -0.364366
vn 0.855660 0.000000 -0.517539
vn 0.885676 -0.287777 -0.364366
vn 0.813780 -0.264416 -0.517539
vn 0.753402 -0.547378 -0.364366
vn 0.692243 -0.502944 -0.517538
vn 0.547380 -0.753400 -0.364367
vn 0.502946 -0.692241 -0.517540
vn 0.287774 -0.885676 -0.364367
vn 0.264413 -0.813780 -0.517540
vn 0.000000 -0.931255 -0.364367
vn 0.000000 -0.855659 -0.517540
vn -0.287773 -0.885677 -0.364367
vn -0.264413 -0.813780 -0.517540
vn -0.547381 -0.753399 -0.364367
vn -0.502946 -0.692241 -0.517540
vn -0.753402 -0.547378 -0.364367
vn -0.692243 -0.502943 -0.517540
vn -0.885678 -0.287772 -0.364366
vn -0.813782 -0.264409 -0.517540
vn -0.931255 0.000000 -0.364367
vn -0.855659 0.000000 -0.517540
vn 0.000000 -0.000001 -1.000000
vn 0.000000 -0.000000 -1.000000
vn 0.000000 -0.000001 -1.000000
vn 0.000000 -0.000000 -1.000000
vn 0.000000 -0.000000 -1.000000
vn 0.000000 -0.000000 -1.000000
vn 0.000000 -0.000000 -1.000000
vn 0.000000 -0.000000 -1.000000
vn 0.000000 -0.000001 -1.000000
vn 0.000000 -0.000001 -1.000000
vn 0.000000 -0.000000 -1.000000
vn 0.000000 0.000001 -1.000000
vn 0.000000 0.000001 -1.000000
vn 0.000000 0.000000 -1.000000
vn 0.000000 -0.000000 -1.000000
vn 0.000000 -0.000000 -1.000000
vn 0.000000 -0.000000 -1.000000
vn 0.000000 0.000000 -1.000000
vn 0.000000 0.000001 -1.000000
vn 0.000000 0.000001 -1.000000
vn 0.000000 -0.000000 -1.000000
vn 0.000000 0.000000 1.000000
vn 0.000000 0.000000 1.000000
vn 0.000000 0.000000 1.000000
vn 0.000000 0.000000 1.000000
vn 0.000000 0.000000 1.000000
vn 0.000000 0.000000 1.000000
vn 0.000000 0.000000 1.000000
vn 0.000000 0.000000 1.000000
vn 0.000000 0.000000 1.000000
vn 0.000000 0.000000 1.000000
vn 0.000000 0.000000 1.000000
vn 0.000000 0.000000 1.000000
vn 0.000000 0.000000 1.000000
vn 0.000000 0.000000 1.000000
vn 0.000000 0.000000 1.000000
vn 0.000000 0.000000 1.000000
vn 0.000000 0.000000 1.000000
vn 0.000000 0.000000 1.000000
vn 0.000000 0.000000 1.000000
vn 0.000000 0.000000 1.000000
vn 0.000000 0.000000 1.000000
vn -0.940501 -0.000003 0.339790
vn -0.876770 -0.000006 0.480911
vn -0.833858 0.270934 0.480911
vn -0.894471 0.290630 0.339790
vn -0.894470 -0.290631 0.339791
vn -0.833857 -0.270937 0.480912
vn -0.760882 -0.552811 0.339792
vn -0.709321 -0.515351 0.480912
vn -0.552815 -0.760879 0.339791
vn -0.515354 -0.709319 0.480912
vn -0.290631 -0.894470 0.339791
vn -0.270937 -0.833857 0.480912
vn -0.000000 -0.940501 0.339791
vn -0.000000 -0.876769 0.480912
vn 0.290632 -0.894469 0.339791
vn 0.270939 -0.833856 0.480912
vn 0.552815 -0.760879 0.339791
vn 0.515353 -0.709320 0.480912
vn 0.760880 -0.552814 0.339791
vn 0.709319 -0.515355 0.480911
vn 0.894469 -0.290633 0.339790
vn 0.833857 -0.270937 0.480910
vn 0.940501 -0.000000 0.339790
vn 0.876770 0.000000 0.480911
vn 0.894469 0.290633 0.339790
vn 0.833857 0.270937 0.480910
vn 0.760880 0.552814 0.339791
vn 0.709319 0.515356 0.480910
vn 0.552815 0.760879 0.339791
vn 0.515353 0.709320 0.480912
vn 0.290632 0.894469 0.339791
vn 0.270939 0.833855 0.480913
vn 0.000000 0.940501 0.339791
vn 0.000000 0.876769 0.480912
vn -0.290631 0.894470 0.339791
vn -0.270937 0.833857 0.480912
vn -0.552814 0.760880 0.339792
vn -0.515352 0.709320 0.480913
vn -0.760881 0.552814 0.339791
vn -0.709319 0.515355 0.480911
vn -1.000000 -0.000000 0.000000
vn -0.951057 0.309017 0.000000
vn -0.951057 -0.309017 0.000000
vn -0.809018 -0.587784 0.000000
vn -0.587789 -0.809015 0.000000
vn -0.309016 -0.951057 0.000000
vn 0.000000 -1.000000 0.000000
vn 0.309017 -0.951056 0.000000
vn 0.587788 -0.809015 0.000000
vn 0.809018 -0.587784 0.000000
vn 0.951055 -0.309022 0.000000
vn 1.000000 0.000000 0.000000
vn 0.951055 0.309022 0.000000
vn 0.809018 0.587784 0.000000
vn 0.587788 0.809015 0.000000
vn 0.309018 0.951056 0.000000
vn 0.000001 1.000000 0.000000
vn -0.309016 0.951057 0.000001
vn -0.587789 0.809015 0.000001
vn -0.809018 0.587783 0.000000
vn -1.000000 -0.000000 0.000000
vn -0.951057 0.309017 0.000000
vn -0.951057 -0.309017 0.000000
vn -0.809018 -0.587784 0.000000
vn -0.587789 -0.809015 0.000000
vn -0.309016 -0.951057 0.000000
vn -0.000000 -1.000000 0.000000
vn 0.309017 -0.951057 0.000000
vn 0.587788 -0.809015 0.000000
vn 0.809018 -0.587784 0.000000
vn 0.951055 -0.309022 0.000000
vn 1.000000 0.000000 0.000000
vn 0.951055 0.309022 0.000000
vn 0.809018 0.587784 0.000000
vn 0.587789 0.809015 0.000000
vn 0.309018 0.951056 0.000000
vn 0.000001 1.000000 0.000000
vn -0.309016 0.951057 0.000000
vn -0.587789 0.809015 0.000000
vn -0.809018 0.587783 0.000000
vn 1.000000 0.000000 0.000000
vn 1.000000 0.000000 0.000000
vn 0.951058 -0.309012 0.000000
vn 0.951058 -0.309012 0.000000
vn 0.951059 0.309011 0.000000
vn 0.951059 0.309011 0.000000
vn 0.809015 0.587788 0.000000
vn 0.809015 0.587788 0.000000
vn 0.587785 0.809017 0.000000
vn 0.587785 0.809017 0.000000
vn 0.309016 0.951057 0.000000
vn 0.309016 0.951057 0.000000
vn -0.000002 1.000000 0.000000
vn -0.000002 1.000000 0.000000
vn -0.309015 0.951057 0.000000
vn -0.309015 0.951057 0.000000
vn -0.587788 0.809015 0.000000
vn -0.587788 0.809015 0.000000
vn -0.809018 0.587783 0.000000
vn -0.809018 0.587783 0.000000
vn -0.951058 0.309013 0.000000
vn -0.951058 0.309013 0.000000
vn -1.000000 -0.000000 0.000000
vn -1.000000 -0.000000 0.000000
vn -0.951058 -0.309013 0.000000
vn -0.951058 -0.309013 0.000000
vn -0.809018 -0.587784 0.000000
vn -0.809018 -0.587784 0.000000
vn -0.587788 -0.809015 0.000000
vn -0.587788 -0.809015 0.000000
vn -0.309016 -0.951057 0.000000
vn -0.309016 -0.951057 0.000000
vn -0.000003 -1.000000 0.000000
vn -0.000003 -1.000000 0.000000
vn 0.309018 -0.951056 0.000000
vn 0.309018 -0.951056 0.000000
vn 0.587787 -0.809016 0.000000
vn 0.587787 -0.809016 0.000000
vn 0.809015 -0.587788 0.000000
vn 0.809015 -0.587788 0.000000
vn 0.000000 0.000000 1.000000
vn 0.000000 -0.000000 1.000000
vn 0.000000 0.000000 1.000000
vn 0.000000 0.000000 1.000000
vn 0.000000 -0.000004 -1.000000
vn 0.000000 -0.000004 -1.000000
vn 0.000000 0.000000 -1.000000
vn 0.000000 -0.000000 -1.000000
vn 0.000000 -0.000000 1.000000
vn 0.000000 -0.000000 1.000000
vn 0.000000 0.000004 -1.000000
vn 0.000000 0.000004 -1.000000
vn 0.000000 0.000005 1.000000
vn 0.000000 0.000005 1.000000
vn 0.000000 0.000001 -1.000000
vn 0.000000 0.000001 -1.000000
vn 0.000000 0.000001 1.000000
vn 0.000000 0.000001 1.000000
vn 0.000000 -0.000001 -1.000000
vn 0.000000 -0.000001 -1.000000
vn 0.000000 0.000001 1.000000
vn 0.000000 0.000001 1.000000
vn 0.000000 0.000001 -1.000000
vn 0.000000 0.000001 -1.000000
vn 0.000000 0.000000 1.000000
vn 0.000000 0.000000 1.000000
vn 0.000000 0.000000 -1.000000
vn 0.000000 0.000000 -1.000000
vn 0.000000 0.000001 1.000000
vn 0.000000 0.000001 1.000000
vn 0.000000 0.000000 -1.000000
vn 0.000000 -0.000000 -1.000000
vn 0.000000 0.000001 1.000000
vn 0.000000 0.000001 1.000000
vn 0.000000 -0.000001 -1.000000
vn 0.000000 -0.000001 -1.000000
vn 0.000000 0.000005 1.000000
vn 0.000000 0.000005 1.000000
vn 0.000000 0.000001 -1.000000
vn 0.000000 0.000001 -1.000000
vn 0.000000 0.000006 1.000000
vn 0.000000 0.000006 1.000000
vn 0.000000 0.000001 -1.000000
vn 0.000000 0.000001 -1.000000
vn 0.000000 -0.000000 1.000000
vn 0.000000 -0.000000 1.000000
vn 0.000000 0.000000 -1.000000
vn 0.000000 0.000000 -1.000000
vn 0.000000 -0.000006 1.000000
vn 0.000000 -0.000006 1.000000
vn 0.000000 -0.000001 -1.000000
vn 0.000000 -0.000001 -1.000000
vn 0.000000 -0.000005 1.000000
vn 0.000000 -0.000005 1.000000
vn 0.000000 -0.000001 -1.000000
vn 0.000000 -0.000001 -1.000000
vn 0.000000 -0.000001 1.000000
vn 0.000000 -0.000001 1.000000
vn 0.000000 0.000003 -1.000000
vn 0.000000 0.000003 -1.000000
vn 0.000000 -0.000001 1.000000
vn 0.000000 -0.000001 1.000000
vn 0.000000 0.000002 -1.000000
vn 0.000000 0.000002 -1.000000
vn 0.000000 0.000000 1.000000
vn 0.000000 0.000000 1.000000
vn 0.000000 -0.000000 -1.000000
vn 0.000000 -0.000000 -1.000000
vn 0.000000 -0.000003 1.000000
vn 0.000000 -0.000003 1.000000
vn 0.000000 -0.000001 -1.000000
vn 0.000000 -0.000001 -1.000000
vn 0.000000 -0.000003 1.000000
vn 0.000000 -0.000003 1.000000
vn 0.000000 0.000005 -1.000000
vn 0.000000 0.000005 -1.000000
vn 0.000000 -0.000005 1.000000
vn 0.000000 -0.000005 1.000000
vn 0.000000 0.000002 -1.000000
vn 0.000000 0.000002 -1.000000
s 1
g pCylinder12 Primer
usemtl initialShadingGroup
f 1/21/1 2/22/2 82/126/3 63/107/4
f 2/22/2 3/23/5 81/125/6 82/126/3
f 3/23/5 4/24/7 80/124/8 81/125/6
f 4/24/7 5/25/9 79/123/10 80/124/8
f 5/25/9 6/26/11 78/122/12 79/123/10
f 6/26/11 7/27/13 77/121/14 78/122/12
f 7/27/13 8/28/15 76/120/16 77/121/14
f 8/28/15 9/29/17 75/119/18 76/120/16
f 9/29/17 10/30/19 74/118/20 75/119/18
f 10/30/19 11/31/21 73/117/22 74/118/20
f 11/31/21 12/32/23 72/116/24 73/117/22
f 12/32/23 13/33/25 71/115/26 72/116/24
f 13/33/25 14/34/27 70/114/28 71/115/26
f 14/34/27 15/35/29 69/113/30 70/114/28
f 15/35/29 16/36/31 68/112/32 69/113/30
f 16/36/31 17/37/33 67/111/34 68/112/32
f 17/37/33 18/38/35 66/110/36 67/111/34
f 18/38/35 19/39/37 65/109/38 66/110/36
f 19/39/37 20/40/39 64/108/40 65/109/38
f 20/40/39 1/41/1 63/106/4 64/108/40
s 2
f 2/2/41 1/1/42 41/83/43
f 3/3/44 2/2/41 41/83/43
f 4/4/45 3/3/44 41/83/43
f 5/5/46 4/4/45 41/83/43
f 6/6/47 5/5/46 41/83/43
f 7/7/48 6/6/47 41/83/43
f 8/8/49 7/7/48 41/83/43
f 9/9/50 8/8/49 41/83/43
f 10/10/51 9/9/50 41/83/43
f 11/11/52 10/10/51 41/83/43
f 12/12/53 11/11/52 41/83/43
f 13/13/54 12/12/53 41/83/43
f 14/14/55 13/13/54 41/83/43
f 15/15/56 14/14/55 41/83/43
f 16/16/57 15/15/56 41/83/43
f 17/17/58 16/16/57 41/83/43
f 18/18/59 17/17/58 41/83/43
f 19/19/60 18/18/59 41/83/43
f 20/20/61 19/19/60 41/83/43
f 1/1/42 20/20/61 41/83/43
s 3
f 21/81/62 22/80/63 42/84/64
f 22/80/63 23/79/65 42/84/64
f 23/79/65 24/78/66 42/84/64
f 24/78/66 25/77/67 42/84/64
f 25/77/67 26/76/68 42/84/64
f 26/76/68 27/75/69 42/84/64
f 27/75/69 28/74/70 42/84/64
f 28/74/70 29/73/71 42/84/64
f 29/73/71 30/72/72 42/84/64
f 30/72/72 31/71/73 42/84/64
f 31/71/73 32/70/74 42/84/64
f 32/70/74 33/69/75 42/84/64
f 33/69/75 34/68/76 42/84/64
f 34/68/76 35/67/77 42/84/64
f 35/67/77 36/66/78 42/84/64
f 36/66/78 37/65/79 42/84/64
f 37/65/79 38/64/80 42/84/64
f 38/64/80 39/63/81 42/84/64
f 39/63/81 40/82/82 42/84/64
f 40/82/82 21/81/62 42/84/64
s 4
f 44/87/83 43/85/84 21/62/85 40/61/86
f 45/88/87 44/87/83 40/61/86 39/60/88
f 46/89/89 45/88/87 39/60/88 38/59/90
f 47/90/91 46/89/89 38/59/90 37/58/92
f 48/91/93 47/90/91 37/58/92 36/57/94
f 49/92/95 48/91/93 36/57/94 35/56/96
f 50/93/97 49/92/95 35/56/96 34/55/98
f 51/94/99 50/93/97 34/55/98 33/54/100
f 52/95/101 51/94/99 33/54/100 32/53/102
f 53/96/103 52/95/101 32/53/102 31/52/104
f 54/97/105 53/96/103 31/52/104 30/51/106
f 55/98/107 54/97/105 30/51/106 29/50/108
f 56/99/109 55/98/107 29/50/108 28/49/110
f 57/100/111 56/99/109 28/49/110 27/48/112
f 58/101/113 57/100/111 27/48/112 26/47/114
f 59/102/115 58/101/113 26/47/114 25/46/116
f 60/103/117 59/102/115 25/46/116 24/45/118
f 61/104/119 60/103/117 24/45/118 23/44/120
f 62/105/121 61/104/119 23/44/120 22/43/122
f 43/86/84 62/105/121 22/43/122 21/42/85
s 1
f 64/108/40 63/106/4 103/148/123 104/150/124
f 65/109/38 64/108/40 104/150/124 105/151/125
f 66/110/36 65/109/38 105/151/125 106/152/126
f 67/111/34 66/110/36 106/152/126 107/153/127
f 68/112/32 67/111/34 107/153/127 108/154/128
f 69/113/30 68/112/32 108/154/128 109/155/129
f 70/114/28 69/113/30 109/155/129 110/156/130
f 71/115/26 70/114/28 110/156/130 111/157/131
f 72/116/24 71/115/26 111/157/131 112/158/132
f 73/117/22 72/116/24 112/158/132 113/159/133
f 74/118/20 73/117/22 113/159/133 114/160/134
f 75/119/18 74/118/20 114/160/134 115/161/135
f 76/120/16 75/119/18 115/161/135 116/162/136
f 77/121/14 76/120/16 116/162/136 117/163/137
f 78/122/12 77/121/14 117/163/137 118/164/138
f 79/123/10 78/122/12 118/164/138 119/165/139
f 80/124/8 79/123/10 119/165/139 120/166/140
f 81/125/6 80/124/8 120/166/140 121/167/141
f 82/126/3 81/125/6 121/167/141 122/168/142
f 63/107/4 82/126/3 122/168/142 103/149/123
s 4
f 84/129/143 83/127/144 43/85/84 44/87/83
f 85/130/145 84/129/143 44/87/83 45/88/87
f 86/131/146 85/130/145 45/88/87 46/89/89
f 87/132/147 86/131/146 46/89/89 47/90/91
f 88/133/148 87/132/147 47/90/91 48/91/93
f 89/134/149 88/133/148 48/91/93 49/92/95
f 90/135/150 89/134/149 49/92/95 50/93/97
f 91/136/151 90/135/150 50/93/97 51/94/99
f 92/137/152 91/136/151 51/94/99 52/95/101
f 93/138/153 92/137/152 52/95/101 53/96/103
f 94/139/154 93/138/153 53/96/103 54/97/105
f 95/140/155 94/139/154 54/97/105 55/98/107
f 96/141/156 95/140/155 55/98/107 56/99/109
f 97/142/157 96/141/156 56/99/109 57/100/111
f 98/143/158 97/142/157 57/100/111 58/101/113
f 99/144/159 98/143/158 58/101/113 59/102/115
f 100/145/160 99/144/159 59/102/115 60/103/117
f 101/146/161 100/145/160 60/103/117 61/104/119
f 102/147/162 101/146/161 61/104/119 62/105/121
f 83/128/144 102/147/162 62/105/121 43/86/84
s 5
f 124/169/163 123/170/164 125/171/165 126/172/166
f 127/173/167 124/169/163 126/172/166 128/174/168
f 129/175/169 127/173/167 128/174/168 130/176/170
f 131/177/171 129/175/169 130/176/170 132/178/172
f 133/179/173 131/177/171 132/178/172 134/180/174
f 135/181/175 133/179/173 134/180/174 136/182/176
f 137/183/177 135/181/175 136/182/176 138/184/178
f 139/185/179 137/183/177 138/184/178 140/186/180
f 141/187/181 139/185/179 140/186/180 142/188/182
f 143/189/183 141/187/181 142/188/182 144/190/184
f 145/191/185 143/189/183 144/190/184 146/192/186
f 147/193/187 145/191/185 146/192/186 148/194/188
f 149/195/189 147/193/187 148/194/188 150/196/190
f 151/197/191 149/195/189 150/196/190 152/198/192
f 153/199/193 151/197/191 152/198/192 154/200/194
f 155/201/195 153/199/193 154/200/194 156/202/196
f 157/203/197 155/201/195 156/202/196 158/204/198
f 159/205/199 157/203/197 158/204/198 160/206/200
f 161/207/201 159/205/199 160/206/200 162/208/202
f 123/209/164 161/207/201 162/208/202 125/210/165
s 6
f 104/150/203 103/148/204 123/170/205 124/169/206
s 7
f 83/127/207 84/129/208 126/172/209 125/171/210
s 6
f 105/151/211 104/150/203 124/169/206 127/173/212
s 7
f 84/129/208 85/130/213 128/174/214 126/172/209
s 6
f 106/152/215 105/151/211 127/173/212 129/175/216
s 7
f 85/130/213 86/131/217 130/176/218 128/174/214
s 6
f 107/153/219 106/152/215 129/175/216 131/177/220
s 7
f 86/131/217 87/132/221 132/178/222 130/176/218
s 6
f 108/154/223 107/153/219 131/177/220 133/179/224
s 7
f 87/132/221 88/133/225 134/180/226 132/178/222
s 6
f 109/155/227 108/154/223 133/179/224 135/181/228
s 7
f 88/133/225 89/134/229 136/182/230 134/180/226
s 6
f 110/156/231 109/155/227 135/181/228 137/183/232
s 7
f 89/134/229 90/135/233 138/184/234 136/182/230
s 6
f 111/157/235 110/156/231 137/183/232 139/185/236
s 7
f 90/135/233 91/136/237 140/186/238 138/184/234
s 6
f 112/158/239 111/157/235 139/185/236 141/187/240
s 7
f 91/136/237 92/137/241 142/188/242 140/186/238
s 6
f 113/159/243 112/158/239 141/187/240 143/189/244
s 7
f 92/137/241 93/138/245 144/190/246 142/188/242
s 6
f 114/160/247 113/159/243 143/189/244 145/191/248
s 7
f 93/138/245 94/139/249 146/192/250 144/190/246
s 6
f 115/161/251 114/160/247 145/191/248 147/193/252
s 7
f 94/139/249 95/140/253 148/194/254 146/192/250
s 6
f 116/162/255 115/161/251 147/193/252 149/195/256
s 7
f 95/140/253 96/141/257 150/196/258 148/194/254
s 6
f 117/163/259 116/162/255 149/195/256 151/197/260
s 7
f 96/141/257 97/142/261 152/198/262 150/196/258
s 6
f 118/164/263 117/163/259 151/197/260 153/199/264
s 7
f 97/142/261 98/143/265 154/200/266 152/198/262
s 6
f 119/165/267 118/164/263 153/199/264 155/201/268
s 7
f 98/143/265 99/144/269 156/202/270 154/200/266
s 6
f 120/166/271 119/165/267 155/201/268 157/203/272
s 7
f 99/144/269 100/145/273 158/204/274 156/202/270
s 6
f 121/167/275 120/166/271 157/203/272 159/205/276
s 7
f 100/145/273 101/146/277 160/206/278 158/204/274
s 6
f 122/168/279 121/167/275 159/205/276 161/207/280
s 7
f 101/146/277 102/147/281 162/208/282 160/206/278
s 6
f 103/149/204 122/168/279 161/207/280 123/209/205
s 7
f 102/147/281 83/128/207 125/210/210 162/208/282
s 8
f 163/211/283 225/214/284 244/213/285 164/212/286
f 164/212/286 244/213/285 243/216/287 165/215/288
f 165/215/288 243/216/287 242/218/289 166/217/290
f 166/217/290 242/218/289 241/220/291 167/219/292
f 167/219/292 241/220/291 240/222/293 168/221/294
f 168/221/294 240/222/293 239/224/295 169/223/296
f 169/223/296 239/224/295 238/226/297 170/225/298
f 170/225/298 238/226/297 237/228/299 171/227/300
f 171/227/300 237/228/299 236/230/301 172/229/302
f 172/229/302 236/230/301 235/232/303 173/231/304
f 173/231/304 235/232/303 234/234/305 174/233/306
f 174/233/306 234/234/305 233/236/307 175/235/308
f 175/235/308 233/236/307 232/238/309 176/237/310
f 176/237/310 232/238/309 231/240/311 177/239/312
f 177/239/312 231/240/311 230/242/313 178/241/314
f 178/241/314 230/242/313 229/244/315 179/243/316
f 179/243/316 229/244/315 228/246/317 180/245/318
f 180/245/318 228/246/317 227/248/319 181/247/320
f 181/247/320 227/248/319 226/250/321 182/249/322
f 182/249/322 226/250/321 225/252/284 163/251/283
s 9
f 164/253/323 203/255/324 163/254/325
f 165/256/326 203/255/324 164/253/323
f 166/257/327 203/255/324 165/256/326
f 167/258/328 203/255/324 166/257/327
f 168/259/329 203/255/324 167/258/328
f 169/260/330 203/255/324 168/259/329
f 170/261/331 203/255/324 169/260/330
f 171/262/332 203/255/324 170/261/331
f 172/263/333 203/255/324 171/262/332
f 173/264/334 203/255/324 172/263/333
f 174/265/335 203/255/324 173/264/334
f 175/266/336 203/255/324 174/265/335
f 176/267/337 203/255/324 175/266/336
f 177/268/338 203/255/324 176/267/337
f 178/269/339 203/255/324 177/268/338
f 179/270/340 203/255/324 178/269/339
f 180/271/341 203/255/324 179/270/340
f 181/272/342 203/255/324 180/271/341
f 182/273/343 203/255/324 181/272/342
f 163/254/325 203/255/324 182/273/343
s 10
f 183/274/344 204/276/345 184/275/346
f 184/275/346 204/276/345 185/277/347
f 185/277/347 204/276/345 186/278/348
f 186/278/348 204/276/345 187/279/349
f 187/279/349 204/276/345 188/280/350
f 188/280/350 204/276/345 189/281/351
f 189/281/351 204/276/345 190/282/352
f 190/282/352 204/276/345 191/283/353
f 191/283/353 204/276/345 192/284/354
f 192/284/354 204/276/345 193/285/355
f 193/285/355 204/276/345 194/286/356
f 194/286/356 204/276/345 195/287/357
f 195/287/357 204/276/345 196/288/358
f 196/288/358 204/276/345 197/289/359
f 197/289/359 204/276/345 198/290/360
f 198/290/360 204/276/345 199/291/361
f 199/291/361 204/276/345 200/292/362
f 200/292/362 204/276/345 201/293/363
f 201/293/363 204/276/345 202/294/364
f 202/294/364 204/276/345 183/274/344
s 11
f 206/295/365 202/298/366 183/297/367 205/296/368
f 207/299/369 201/300/370 202/298/366 206/295/365
f 208/301/371 200/302/372 201/300/370 207/299/369
f 209/303/373 199/304/374 200/302/372 208/301/371
f 210/305/375 198/306/376 199/304/374 209/303/373
f 211/307/377 197/308/378 198/306/376 210/305/375
f 212/309/379 196/310/380 197/308/378 211/307/377
f 213/311/381 195/312/382 196/310/380 212/309/379
f 214/313/383 194/314/384 195/312/382 213/311/381
f 215/315/385 193/316/386 194/314/384 214/313/383
f 216/317/387 192/318/388 193/316/386 215/315/385
f 217/319/389 191/320/390 192/318/388 216/317/387
f 218/321/391 190/322/392 191/320/390 217/319/389
f 219/323/393 189/324/394 190/322/392 218/321/391
f 220/325/395 188/326/396 189/324/394 219/323/393
f 221/327/397 187/328/398 188/326/396 220/325/395
f 222/329/399 186/330/400 187/328/398 221/327/397
f 223/331/401 185/332/402 186/330/400 222/329/399
f 224/333/403 184/334/404 185/332/402 223/331/401
f 205/335/368 183/336/367 184/334/404 224/333/403
s 8
f 226/250/321 266/338/405 265/337/406 225/252/284
f 227/248/319 267/339/407 266/338/405 226/250/321
f 228/246/317 268/340/408 267/339/407 227/248/319
f 229/244/315 269/341/409 268/340/408 228/246/317
f 230/242/313 270/342/410 269/341/409 229/244/315
f 231/240/311 271/343/411 270/342/410 230/242/313
f 232/238/309 272/344/412 271/343/411 231/240/311
f 233/236/307 273/345/413 272/344/412 232/238/309
f 234/234/305 274/346/414 273/345/413 233/236/307
f 235/232/303 275/347/415 274/346/414 234/234/305
f 236/230/301 276/348/416 275/347/415 235/232/303
f 237/228/299 277/349/417 276/348/416 236/230/301
f 238/226/297 278/350/418 277/349/417 237/228/299
f 239/224/295 279/351/419 278/350/418 238/226/297
f 240/222/293 280/352/420 279/351/419 239/224/295
f 241/220/291 281/353/421 280/352/420 240/222/293
f 242/218/289 282/354/422 281/353/421 241/220/291
f 243/216/287 283/355/423 282/354/422 242/218/289
f 244/213/285 284/356/424 283/355/423 243/216/287
f 225/214/284 265/357/406 284/356/424 244/213/285
s 11
f 246/358/425 206/295/365 205/296/368 245/359/426
f 247/360/427 207/299/369 206/295/365 246/358/425
f 248/361/428 208/301/371 207/299/369 247/360/427
f 249/362/429 209/303/373 208/301/371 248/361/428
f 250/363/430 210/305/375 209/303/373 249/362/429
f 251/364/431 211/307/377 210/305/375 250/363/430
f 252/365/432 212/309/379 211/307/377 251/364/431
f 253/366/433 213/311/381 212/309/379 252/365/432
f 254/367/434 214/313/383 213/311/381 253/366/433
f 255/368/435 215/315/385 214/313/383 254/367/434
f 256/369/436 216/317/387 215/315/385 255/368/435
f 257/370/437 217/319/389 216/317/387 256/369/436
f 258/371/438 218/321/391 217/319/389 257/370/437
f 259/372/439 219/323/393 218/321/391 258/371/438
f 260/373/440 220/325/395 219/323/393 259/372/439
f 261/374/441 221/327/397 220/325/395 260/373/440
f 262/375/442 222/329/399 221/327/397 261/374/441
f 263/376/443 223/331/401 222/329/399 262/375/442
f 264/377/444 224/333/403 223/331/401 263/376/443
f 245/378/426 205/335/368 224/333/403 264/377/444
s 12
f 286/379/445 288/382/446 287/381/447 285/380/448
f 289/383/449 290/384/450 288/382/446 286/379/445
f 291/385/451 292/386/452 290/384/450 289/383/449
f 293/387/453 294/388/454 292/386/452 291/385/451
f 295/389/455 296/390/456 294/388/454 293/387/453
f 297/391/457 298/392/458 296/390/456 295/389/455
f 299/393/459 300/394/460 298/392/458 297/391/457
f 301/395/461 302/396/462 300/394/460 299/393/459
f 303/397/463 304/398/464 302/396/462 301/395/461
f 305/399/465 306/400/466 304/398/464 303/397/463
f 307/401/467 308/402/468 306/400/466 305/399/465
f 309/403/469 310/404/470 308/402/468 307/401/467
f 311/405/471 312/406/472 310/404/470 309/403/469
f 313/407/473 314/408/474 312/406/472 311/405/471
f 315/409/475 316/410/476 314/408/474 313/407/473
f 317/411/477 318/412/478 316/410/476 315/409/475
f 319/413/479 320/414/480 318/412/478 317/411/477
f 321/415/481 322/416/482 320/414/480 319/413/479
f 323/417/483 324/418/484 322/416/482 321/415/481
f 285/419/448 287/420/447 324/418/484 323/417/483
s 13
f 266/338/485 286/379/486 285/380/487 265/337/488
s 14
f 245/359/489 287/381/490 288/382/491 246/358/492
s 13
f 267/339/493 289/383/494 286/379/486 266/338/485
s 14
f 246/358/492 288/382/491 290/384/495 247/360/496
s 13
f 268/340/497 291/385/498 289/383/494 267/339/493
s 14
f 247/360/496 290/384/495 292/386/499 248/361/500
s 13
f 269/341/501 293/387/502 291/385/498 268/340/497
s 14
f 248/361/500 292/386/499 294/388/503 249/362/504
s 13
f 270/342/505 295/389/506 293/387/502 269/341/501
s 14
f 249/362/504 294/388/503 296/390/507 250/363/508
s 13
f 271/343/509 297/391/510 295/389/506 270/342/505
s 14
f 250/363/508 296/390/507 298/392/511 251/364/512
s 13
f 272/344/513 299/393/514 297/391/510 271/343/509
s 14
f 251/364/512 298/392/511 300/394/515 252/365/516
s 13
f 273/345/517 301/395/518 299/393/514 272/344/513
s 14
f 252/365/516 300/394/515 302/396/519 253/366/520
s 13
f 274/346/521 303/397/522 301/395/518 273/345/517
s 14
f 253/366/520 302/396/519 304/398/523 254/367/524
s 13
f 275/347/525 305/399/526 303/397/522 274/346/521
s 14
f 254/367/524 304/398/523 306/400/527 255/368/528
s 13
f 276/348/529 307/401/530 305/399/526 275/347/525
s 14
f 255/368/528 306/400/527 308/402/531 256/369/532
s 13
f 277/349/533 309/403/534 307/401/530 276/348/529
s 14
f 256/369/532 308/402/531 310/404/535 257/370/536
s 13
f 278/350/537 311/405/538 309/403/534 277/349/533
s 14
f 257/370/536 310/404/535 312/406/539 258/371/540
s 13
f 279/351/541 313/407/542 311/405/538 278/350/537
s 14
f 258/371/540 312/406/539 314/408/543 259/372/544
s 13
f 280/352/545 315/409/546 313/407/542 279/351/541
s 14
f 259/372/544 314/408/543 316/410/547 260/373/548
s 13
f 281/353/549 317/411/550 315/409/546 280/352/545
s 14
f 260/373/548 316/410/547 318/412/551 261/374/552
s 13
f 282/354/553 319/413/554 317/411/550 281/353/549
s 14
f 261/374/552 318/412/551 320/414/555 262/375/556
s 13
f 283/355/557 321/415/558 319/413/554 282/354/553
s 14
f 262/375/556 320/414/555 322/416/559 263/376/560
s 13
f 284/356/561 323/417/562 321/415/558 283/355/557
s 14
f 263/376/560 322/416/559 324/418/563 264/377/564
s 13
f 265/357/488 285/419/487 323/417/562 284/356/561
s 14
f 264/377/564 324/418/563 287/420/490 245/378/489
g default
v 0.000000 -0.147484 3.357286
v 0.000000 0.572305 3.612154
v 0.000000 0.621820 -3.612154
v 0.000000 0.120422 -3.612154
v 0.288782 -0.177977 3.329917
v 0.288782 0.541812 3.584784
v 0.098877 0.591327 -3.639524
v 0.098877 0.089929 -3.639524
v 0.000000 0.429535 -3.612154
v 0.098877 0.429535 -3.612154
v 0.291162 0.399042 -3.639524
v 0.411061 0.413515 3.584784
v 0.288782 0.413515 3.584784
v -0.000000 0.444008 3.612154
v -0.000000 0.281859 -3.612154
v 0.098878 0.281859 -3.612154
v 0.291162 0.251366 -3.639524
v 0.411061 -0.072754 3.329917
v 0.288782 -0.072754 3.329917
v 0.000000 -0.042261 3.357286
v 0.000000 0.636292 3.470737
v 0.288782 0.605799 3.443368
v 0.481066 0.413515 3.443368
v 0.481066 -0.072754 3.188501
v 0.288782 -0.234190 3.188501
v 0.000000 -0.203697 3.215870
v 0.000000 0.120422 -3.457787
v 0.248509 0.089929 -3.485157
v 0.440793 0.251366 -3.485157
v 0.440793 0.399042 -3.485157
v 0.248509 0.591327 -3.485159
v 0.000000 0.621820 -3.457790
v 0.000000 0.961423 1.641378
v 0.809092 0.930930 1.614008
v 0.907454 0.738645 1.614009
v 0.586571 -0.830479 1.614009
v 0.457699 -0.920653 1.614009
v 0.000000 -0.989923 1.641379
v 0.000000 -1.061185 -0.659552
v 0.457699 -0.991916 -0.686922
v 0.664346 -0.830479 -0.686922
v 1.022768 0.738645 -1.083375
v 0.809092 0.930930 -1.083377
v 0.000000 0.961423 -1.056007
v 1.243554 0.591871 0.699035
v 1.149187 -0.038118 0.699035
v 1.172620 -0.038118 0.005786
v 1.278297 0.591871 -0.113662
v 1.300031 0.513877 0.541125
v 1.242336 0.222147 0.541125
v 1.256663 0.222147 0.117278
v 1.321273 0.513877 0.044249
v 3.166624 0.410786 0.513755
v 3.108929 0.324396 0.541125
v 3.123255 0.324396 0.117278
v 3.187864 0.441279 0.044249
v 3.006853 0.368012 0.702048
v 1.271184 0.368012 0.541125
v 1.334169 0.483384 0.513755
v 1.355410 0.513877 0.044249
v 1.290800 0.222147 0.117278
v 1.276473 0.222147 0.541125
v 0.991917 0.368012 1.646164
v 2.985432 0.368012 -0.304403
v 1.170730 0.368012 -0.909728
v 3.338021 0.368012 0.071340
v 3.330362 0.368012 0.504805
v 0.967650 -0.465797 -1.061840
v 1.217547 0.652157 -1.344301
v 0.677433 0.304986 -3.055499
v 0.677433 0.410200 -3.055499
v 1.021165 0.216111 -1.658913
v 1.154194 0.569132 -1.511886
v 0.740786 0.303404 -2.821652
v 0.740786 0.383936 -2.821652
v 1.186199 0.303905 -1.583038
v 1.240082 0.458659 -1.511886
v 1.287050 0.303404 -2.821652
v 1.287050 0.383936 -2.821652
v -0.288782 -0.177977 3.329917
v -0.288782 0.541812 3.584784
v -0.098877 0.591327 -3.639524
v -0.098877 0.089929 -3.639524
v -0.098877 0.429535 -3.612154
v -0.291162 0.399042 -3.639524
v -0.411061 0.413515 3.584784
v -0.288782 0.413515 3.584784
v -0.098878 0.281859 -3.612154
v -0.291162 0.251366 -3.639524
v -0.411061 -0.072754 3.329917
v -0.288782 -0.072754 3.329917
v -0.288782 0.605799 3.443368
v -0.481066 0.413515 3.443368
v -0.481066 -0.072754 3.188501
v -0.288782 -0.234190 3.188501
v -0.248509 0.089929 -3.485157
v -0.440793 0.251366 -3.485157
v -0.440793 0.399042 -3.485157
v -0.248509 0.591327 -3.485159
v -0.809092 0.930930 1.614008
v -0.907454 0.738645 1.614009
v -0.586571 -0.830479 1.614009
v -0.457699 -0.920653 1.614009
v -0.457699 -0.991916 -0.686922
v -0.664346 -0.830479 -0.686922
v -1.022768 0.738645 -1.083375
v -0.809092 0.930930 -1.083377
v -1.243554 0.591871 0.699035
v -1.149187 -0.038118 0.699035
v -1.172620 -0.038118 0.005786
v -1.278297 0.591871 -0.113662
v -1.300031 0.513877 0.541125
v -1.242336 0.222147 0.541125
v -1.256663 0.222147 0.117278
v -1.321273 0.513877 0.044249
v -3.166624 0.410786 0.513755
v -3.108929 0.324396 0.541125
v -3.123255 0.324396 0.117278
v -3.187864 0.441279 0.044249
v -3.006853 0.368012 0.702048
v -1.271184 0.368012 0.541125
v -1.334169 0.483384 0.513755
v -1.355410 0.513877 0.044249
v -1.290800 0.222147 0.117278
v -1.276473 0.222147 0.541125
v -0.991917 0.368012 1.646164
v -2.985432 0.368012 -0.304403
v -1.170730 0.368012 -0.909728
v -3.338021 0.368012 0.071340
v -3.330362 0.368012 0.504805
v -0.967650 -0.465797 -1.061840
v -1.217547 0.652157 -1.344301
v -0.677433 0.304986 -3.055499
v -0.677433 0.410200 -3.055499
v -1.021165 0.216111 -1.658913
v -1.154194 0.569132 -1.511886
v -0.740786 0.303404 -2.821652
v -0.740786 0.383936 -2.821652
v -1.186199 0.303905 -1.583038
v -1.240082 0.458659 -1.511886
v -1.287050 0.303404 -2.821652
v -1.287050 0.383936 -2.821652
vt 0.500000 0.000000
vt 0.500000 1.000000
vt 0.500000 0.250000
vt 0.500000 0.500000
vt 0.500000 0.750000
vt 0.600000 0.000000
vt 0.600000 1.000000
vt 0.600000 0.250000
vt 0.600000 0.500000
vt 0.600000 0.750000
vt 0.500000 0.525000
vt 0.600000 0.525000
vt 0.625000 0.525000
vt 0.875000 0.225000
vt 0.625000 0.225000
vt 0.600000 0.225000
vt 0.500000 0.225000
vt 0.500000 0.729011
vt 0.600000 0.729011
vt 0.625000 0.729011
vt 0.875000 0.020989
vt 0.625000 0.020989
vt 0.600000 0.020989
vt 0.500000 0.020989
vt 0.500000 0.254894
vt 0.600000 0.254894
vt 0.629894 0.225000
vt 0.625000 0.230872
vt 0.629894 0.020989
vt 0.600000 0.995106
vt 0.500000 0.995106
vt 0.500000 0.755342
vt 0.600000 0.755342
vt 0.869658 0.020989
vt 0.869658 0.225000
vt 0.625000 0.518590
vt 0.600000 0.494658
vt 0.500000 0.494658
vt 0.500000 0.318200
vt 0.600000 0.318200
vt 0.693199 0.225000
vt 0.625000 0.306839
vt 0.693199 0.020989
vt 0.600000 0.931801
vt 0.500000 0.931801
vt 0.500000 0.816176
vt 0.600000 0.816176
vt 0.808824 0.020989
vt 0.808824 0.225000
vt 0.625000 0.445588
vt 0.600000 0.433824
vt 0.500000 0.433824
vt 0.693199 0.225000
vt 0.693199 0.020989
vt 0.808824 0.020989
vt 0.808824 0.225000
vt 0.693199 0.225000
vt 0.693199 0.020989
vt 0.808824 0.020989
vt 0.808824 0.225000
vt 0.693199 0.225000
vt 0.693199 0.020989
vt 0.808824 0.020989
vt 0.808824 0.225000
vt 0.693199 0.122995
vt 0.693199 0.122995
vt 0.693199 0.225000
vt 0.808824 0.225000
vt 0.808824 0.020989
vt 0.693199 0.020989
vt 0.693199 0.122995
vt 0.808824 0.122995
vt 0.808824 0.122995
vt 0.765657 0.122995
vt 0.715859 0.122995
vt 0.808824 0.225000
vt 0.808824 0.020989
vt 0.869658 0.020989
vt 0.869658 0.225000
vt 0.808824 0.225000
vt 0.808824 0.020989
vt 0.869658 0.020989
vt 0.869658 0.225000
vt 0.808824 0.225000
vt 0.808824 0.020989
vt 0.869658 0.020989
vt 0.869658 0.225000
vt 0.600000 0.020989
vt 0.500000 0.020989
vt 0.500000 0.000000
vt 0.600000 0.000000
vt 0.600000 0.433824
vt 0.500000 0.433824
vt 0.500000 0.318200
vt 0.600000 0.318200
vt 0.500000 0.750000
vt 0.500000 0.729011
vt 0.600000 0.729011
vt 0.600000 0.750000
vt 0.600000 0.931801
vt 0.500000 0.931801
vt 0.500000 0.816176
vt 0.600000 0.816176
vt 0.625000 0.020989
vt 0.625000 0.729011
vt 0.808824 0.020989
vt 0.693199 0.020989
vt 0.600000 0.525000
vt 0.500000 0.525000
vt 0.500000 0.500000
vt 0.600000 0.500000
vt 0.625000 0.525000
vt 0.500000 0.250000
vt 0.500000 0.225000
vt 0.600000 0.225000
vt 0.600000 0.250000
vt 0.625000 0.225000
vt 0.625000 0.306839
vt 0.625000 0.445588
vt 0.808824 0.225000
vt 0.765657 0.122995
vt 0.808824 0.122995
vt 0.600000 0.254894
vt 0.500000 0.254894
vt 0.625000 0.230872
vt 0.629894 0.020989
vt 0.629894 0.225000
vt 0.600000 0.995106
vt 0.600000 1.000000
vt 0.500000 1.000000
vt 0.500000 0.995106
vt 0.600000 0.755342
vt 0.500000 0.755342
vt 0.875000 0.020989
vt 0.869658 0.020989
vt 0.869658 0.225000
vt 0.875000 0.225000
vt 0.600000 0.494658
vt 0.625000 0.518590
vt 0.500000 0.494658
vt 0.693199 0.225000
vt 0.808824 0.225000
vt 0.808824 0.020989
vt 0.869658 0.020989
vt 0.869658 0.225000
vt 0.693199 0.020989
vt 0.693199 0.225000
vt 0.808824 0.020989
vt 0.808824 0.225000
vt 0.808824 0.225000
vt 0.693199 0.020989
vt 0.693199 0.122995
vt 0.693199 0.225000
vt 0.808824 0.020989
vt 0.808824 0.225000
vt 0.693199 0.020989
vt 0.693199 0.122995
vt 0.808824 0.020989
vt 0.808824 0.225000
vt 0.808824 0.122995
vt 0.693199 0.225000
vt 0.693199 0.225000
vt 0.808824 0.020989
vt 0.693199 0.020989
vt 0.693199 0.122995
vt 0.715859 0.122995
vt 0.808824 0.020989
vt 0.808824 0.225000
vt 0.869658 0.020989
vt 0.869658 0.225000
vt 0.808824 0.020989
vt 0.808824 0.225000
vt 0.869658 0.020989
vt 0.869658 0.225000
vn 0.094353 -0.000000 0.995539
vn 0.000000 -0.000000 1.000000
vn 0.000000 -0.000000 1.000000
vn 0.094353 -0.000000 0.995539
vn 0.037661 0.999291 0.000000
vn 0.000000 1.000000 0.000000
vn 0.000000 1.000000 0.000000
vn 0.037661 0.999291 0.000000
vn 0.000000 0.077223 -0.997014
vn 0.000000 0.077223 -0.997014
vn -0.125094 0.076617 -0.989182
vn -0.125094 0.076617 -0.989182
vn 0.151357 -0.988005 0.030600
vn 0.000000 -0.999521 0.030956
vn 0.000000 -0.999521 0.030956
vn 0.151357 -0.988005 0.030600
vn 0.000000 0.000000 1.000000
vn 0.000000 0.000000 1.000000
vn 0.000000 0.000000 1.000000
vn -0.117703 0.140194 -0.983103
vn -0.117703 0.140194 -0.983103
vn -0.117703 0.140194 -0.983103
vn 0.599805 -0.799829 0.022523
vn 0.599805 -0.799829 0.022523
vn 0.599805 -0.799829 0.022523
vn 0.599805 -0.799829 0.022523
vn -0.148221 -0.076218 -0.986013
vn 0.000000 -0.077070 -0.997026
vn 0.000000 -0.077070 -0.997026
vn -0.148221 -0.076218 -0.986013
vn -0.164523 -0.164525 -0.972555
vn -0.164523 -0.164525 -0.972555
vn -0.164523 -0.164525 -0.972555
vn -0.000000 0.000000 1.000000
vn -0.000000 0.000000 1.000000
vn 0.094354 0.000000 0.995539
vn 0.094354 0.000000 0.995539
vn 0.000000 0.000000 1.000000
vn 0.000000 0.000000 1.000000
vn 0.000000 0.000000 1.000000
vn 0.776426 0.629990 0.016596
vn 0.776426 0.629990 0.016596
vn 0.776426 0.629990 0.016596
vn 0.776426 0.629990 0.016596
vn 0.000000 0.000000 -1.000000
vn 0.000000 0.000000 -1.000000
vn 0.000000 0.000000 -1.000000
vn 0.000000 0.000000 -1.000000
vn -0.140921 -0.000000 -0.990021
vn -0.140921 -0.000000 -0.990021
vn -0.140921 -0.000000 -0.990021
vn -0.140921 -0.000000 -0.990021
vn 0.457439 0.778778 -0.429249
vn 0.457439 0.778778 -0.429249
vn 0.457439 0.778778 -0.429249
vn 0.000000 -0.464229 0.885715
vn 0.000000 -0.464229 0.885715
vn 0.000000 -0.464229 0.885715
vn 0.000000 -0.464229 0.885715
vn 0.034904 -0.463946 0.885175
vn 0.000000 -0.464229 0.885715
vn 0.000000 -0.464229 0.885715
vn 0.034904 -0.463946 0.885175
vn 0.134052 0.902853 0.408518
vn 0.000000 0.911076 0.412239
vn 0.000000 0.911076 0.412239
vn 0.134052 0.902853 0.408518
vn 0.676781 0.664078 0.317753
vn 0.676781 0.664078 0.317753
vn 0.676781 0.664078 0.317753
vn 0.676781 0.664078 0.317753
vn 0.872914 -0.226486 0.432118
vn 0.872914 -0.226486 0.432118
vn 0.872914 -0.226486 0.432118
vn 0.872914 -0.226486 0.432118
vn 0.617347 -0.728251 0.297545
vn 0.617347 -0.728251 0.297545
vn 0.617347 -0.728251 0.297545
vn 0.617347 -0.728251 0.297545
vn 0.000000 -0.929273 0.369393
vn 0.000000 -0.929273 0.369393
vn -0.062988 -0.927428 0.368660
vn -0.062988 -0.927428 0.368660
vn -0.160485 -0.983968 0.077785
vn 0.000000 -0.996890 0.078806
vn 0.000000 -0.996890 0.078806
vn -0.160485 -0.983968 0.077785
vn 0.545688 -0.649956 -0.528944
vn 0.545688 -0.649956 -0.528944
vn 0.545688 -0.649956 -0.528944
vn 0.545688 -0.649956 -0.528944
vn 0.718035 0.000000 -0.696007
vn 0.718035 0.000000 -0.696007
vn 0.718035 0.000000 -0.696007
vn 0.718035 0.000000 -0.696007
vn 0.583253 0.583249 -0.565364
vn 0.583253 0.583249 -0.565364
vn 0.583253 0.583249 -0.565364
vn 0.583253 0.583249 -0.565364
vn 0.000000 0.996890 -0.078804
vn 0.000000 0.996890 -0.078804
vn 0.160487 0.983968 -0.077783
vn 0.160487 0.983968 -0.077783
vn 0.063637 0.980977 0.183398
vn 0.000000 0.982969 0.183771
vn 0.000000 0.982969 0.183771
vn 0.063637 0.980977 0.183398
vn 0.761232 0.575320 0.299221
vn 0.761232 0.575319 0.299221
vn 0.761232 0.575319 0.299221
vn 0.761232 0.575320 0.299221
vn 0.969547 -0.172874 0.173474
vn 0.969547 -0.172874 0.173474
vn 0.969547 -0.172874 0.173474
vn 0.969547 -0.172874 0.173474
vn 0.569665 -0.727120 0.383116
vn 0.569665 -0.727120 0.383116
vn 0.569665 -0.727120 0.383116
vn 0.569665 -0.727120 0.383116
vn 0.078048 -0.901458 0.425772
vn 0.000000 -0.904216 0.427075
vn 0.000000 -0.904216 0.427075
vn 0.078048 -0.901458 0.425772
vn 0.021765 -0.926547 -0.375549
vn -0.000000 -0.926767 -0.375638
vn -0.000000 -0.926767 -0.375638
vn 0.021764 -0.926547 -0.375549
vn 0.593950 -0.733863 -0.329651
vn 0.593950 -0.733863 -0.329651
vn 0.593950 -0.733862 -0.329650
vn 0.593950 -0.733863 -0.329651
vn 0.968478 -0.240926 0.063288
vn 0.968478 -0.240926 0.063288
vn 0.968478 -0.240926 0.063288
vn 0.968478 -0.240926 0.063288
vn 0.664574 0.701537 -0.257268
vn 0.664574 0.701537 -0.257268
vn 0.664574 0.701537 -0.257268
vn 0.664574 0.701537 -0.257268
vn 0.049450 0.988123 -0.145488
vn 0.000000 0.989334 -0.145666
vn 0.000000 0.989334 -0.145666
vn 0.049450 0.988124 -0.145488
vn 0.906899 -0.171246 0.384979
vn 0.906899 -0.171246 0.384979
vn 0.906899 -0.171246 0.384979
vn 0.906899 -0.171246 0.384979
vn 0.830052 -0.556980 0.028057
vn 0.830052 -0.556980 0.028057
vn 0.830052 -0.556979 0.028057
vn 0.830052 -0.556980 0.028057
vn 0.910944 -0.266181 -0.315166
vn 0.910944 -0.266181 -0.315166
vn 0.910944 -0.266181 -0.315166
vn 0.910944 -0.266181 -0.315166
vn 0.442979 0.896332 0.018938
vn 0.442979 0.896332 0.018938
vn 0.442979 0.896332 0.018938
vn 0.442979 0.896332 0.018938
vn 0.924295 -0.152487 0.349896
vn 0.924295 -0.152487 0.349896
vn 0.924294 -0.152487 0.349896
vn 0.924294 -0.152487 0.349896
vn 0.924295 -0.152487 0.349896
vn 0.947037 -0.319524 0.032011
vn 0.947037 -0.319524 0.032011
vn 0.947037 -0.319524 0.032011
vn 0.947037 -0.319524 0.032011
vn 0.930990 -0.231023 -0.282641
vn 0.930990 -0.231023 -0.282641
vn 0.930990 -0.231023 -0.282641
vn 0.930990 -0.231022 -0.282641
vn 0.842658 0.537243 0.036024
vn 0.842658 0.537243 0.036024
vn 0.842658 0.537243 0.036024
vn 0.842658 0.537243 0.036024
vn -0.975657 -0.035379 -0.216429
vn -0.975657 -0.035379 -0.216429
vn -0.975657 -0.035379 -0.216429
vn -0.975657 -0.035379 -0.216429
vn 0.000000 -1.000000 0.000000
vn 0.000000 -1.000000 0.000000
vn 0.000000 -1.000000 0.000000
vn 0.000000 -1.000000 0.000000
vn -0.968491 0.235080 0.082233
vn -0.968491 0.235080 0.082233
vn -0.968491 0.235080 0.082233
vn -0.968491 0.235080 0.082233
vn -0.968491 0.235080 0.082233
vn 0.423035 0.904886 0.047149
vn 0.423035 0.904886 0.047149
vn 0.423035 0.904886 0.047149
vn 0.423035 0.904886 0.047149
vn -0.880151 0.435936 -0.187866
vn -0.880151 0.435936 -0.187866
vn -0.880151 0.435936 -0.187866
vn -0.880151 0.435936 -0.187866
vn 0.039499 0.997002 0.066539
vn 0.039499 0.997002 0.066539
vn 0.039499 0.997002 0.066539
vn 0.039499 0.997002 0.066539
vn 0.049423 0.982433 -0.179955
vn 0.049423 0.982432 -0.179955
vn 0.049423 0.982432 -0.179955
vn 0.049423 0.982432 -0.179955
vn 0.055712 -0.998445 0.001883
vn 0.055712 -0.998445 0.001883
vn 0.055712 -0.998445 0.001883
vn 0.055712 -0.998445 0.001883
vn 0.067306 -0.983527 0.167764
vn 0.067306 -0.983527 0.167764
vn 0.067306 -0.983527 0.167764
vn 0.067306 -0.983527 0.167764
vn 0.052631 0.988973 0.138429
vn 0.052631 0.988973 0.138429
vn 0.052631 0.988973 0.138429
vn 0.052631 0.988973 0.138429
vn 0.164765 -0.974139 -0.154611
vn 0.164765 -0.974140 -0.154611
vn 0.164765 -0.974140 -0.154611
vn 0.050698 -0.989079 -0.138392
vn 0.050698 -0.989079 -0.138392
vn 0.050698 -0.989079 -0.138392
vn 0.050698 -0.989079 -0.138392
vn 0.344258 0.937904 0.042691
vn 0.344258 0.937904 0.042691
vn 0.344258 0.937904 0.042691
vn 0.344258 0.937904 0.042691
vn 0.197014 -0.980388 0.005052
vn 0.197014 -0.980388 0.005052
vn 0.197014 -0.980388 0.005052
vn 0.197014 -0.980388 0.005052
vn 0.251308 0.875757 0.412183
vn 0.251308 0.875757 0.412183
vn 0.251308 0.875757 0.412183
vn 0.239305 -0.888076 0.392496
vn 0.239305 -0.888076 0.392496
vn 0.239305 -0.888076 0.392496
vn 0.792329 -0.025360 0.609567
vn 0.792329 -0.025360 0.609567
vn 0.792329 -0.025360 0.609567
vn 0.792329 -0.025360 0.609567
vn 0.596559 -0.724988 -0.344254
vn 0.596559 -0.724988 -0.344254
vn 0.596559 -0.724988 -0.344254
vn 0.596559 -0.724988 -0.344254
vn 0.875933 0.000000 -0.482432
vn 0.875934 0.000000 -0.482432
vn 0.875934 0.000000 -0.482432
vn 0.875934 0.000000 -0.482432
vn 0.244174 0.948722 -0.200761
vn 0.244174 0.948722 -0.200761
vn 0.244174 0.948722 -0.200761
vn 0.244174 0.948722 -0.200761
vn 0.939063 -0.264655 -0.219360
vn 0.939063 -0.264655 -0.219360
vn 0.939063 -0.264655 -0.219360
vn 0.939063 -0.264655 -0.219360
vn 0.924773 -0.290242 -0.246078
vn 0.924773 -0.290242 -0.246078
vn 0.924773 -0.290242 -0.246078
vn 0.924773 -0.290242 -0.246078
vn 0.965206 0.000000 -0.261489
vn 0.965206 0.000000 -0.261489
vn 0.965206 0.000000 -0.261489
vn 0.965206 0.000000 -0.261489
vn 0.946781 -0.166881 -0.275241
vn 0.946780 -0.166881 -0.275241
vn 0.946781 -0.166881 -0.275241
vn 0.946780 -0.166881 -0.275241
vn -0.300962 -0.280805 0.911356
vn -0.300962 -0.280805 0.911356
vn -0.300962 -0.280805 0.911356
vn -0.300962 -0.280805 0.911356
vn 0.127132 -0.990850 -0.045317
vn 0.127132 -0.990850 -0.045317
vn 0.127132 -0.990850 -0.045317
vn 0.127132 -0.990850 -0.045317
vn 0.000000 0.000000 -1.000000
vn 0.000000 0.000000 -1.000000
vn 0.000000 0.000000 -1.000000
vn 0.000000 0.000000 -1.000000
vn 0.170885 0.977842 -0.120930
vn 0.170885 0.977842 -0.120930
vn 0.170885 0.977842 -0.120929
vn 0.170885 0.977842 -0.120930
vn -0.094353 -0.000000 0.995539
vn -0.094353 -0.000000 0.995539
vn -0.037661 0.999291 0.000000
vn -0.037661 0.999291 0.000000
vn 0.125095 0.076617 -0.989182
vn 0.125095 0.076617 -0.989182
vn -0.151357 -0.988005 0.030600
vn -0.151357 -0.988005 0.030600
vn 0.000000 0.000000 1.000000
vn 0.000000 0.000000 1.000000
vn 0.000000 0.000000 1.000000
vn 0.117703 0.140194 -0.983103
vn 0.117703 0.140194 -0.983103
vn 0.117703 0.140194 -0.983103
vn -0.599805 -0.799829 0.022523
vn -0.599805 -0.799829 0.022523
vn -0.599805 -0.799829 0.022523
vn -0.599805 -0.799829 0.022523
vn 0.148221 -0.076218 -0.986013
vn 0.148221 -0.076218 -0.986013
vn 0.164524 -0.164525 -0.972555
vn 0.164524 -0.164525 -0.972555
vn 0.164524 -0.164525 -0.972555
vn -0.094354 0.000000 0.995539
vn -0.094354 0.000000 0.995539
vn 0.000000 0.000000 1.000000
vn 0.000000 0.000000 1.000000
vn 0.000000 0.000000 1.000000
vn -0.776426 0.629990 0.016596
vn -0.776426 0.629990 0.016596
vn -0.776426 0.629990 0.016596
vn -0.776426 0.629990 0.016596
vn 0.000000 0.000000 -1.000000
vn 0.000000 0.000000 -1.000000
vn 0.140921 -0.000000 -0.990021
vn 0.140921 -0.000000 -0.990021
vn 0.140921 -0.000000 -0.990021
vn 0.140921 -0.000000 -0.990021
vn -0.457439 0.778778 -0.429249
vn -0.457439 0.778778 -0.429249
vn -0.457439 0.778778 -0.429249
vn 0.000000 -0.464229 0.885715
vn 0.000000 -0.464229 0.885715
vn 0.000000 -0.464229 0.885715
vn 0.000000 -0.464229 0.885715
vn -0.034904 -0.463946 0.885175
vn -0.034904 -0.463946 0.885175
vn -0.134052 0.902853 0.408518
vn -0.134052 0.902853 0.408518
vn -0.676781 0.664078 0.317753
vn -0.676781 0.664078 0.317753
vn -0.676781 0.664078 0.317753
vn -0.676781 0.664078 0.317753
vn -0.872914 -0.226486 0.432118
vn -0.872914 -0.226486 0.432118
vn -0.872914 -0.226486 0.432118
vn -0.872914 -0.226486 0.432118
vn -0.617348 -0.728251 0.297545
vn -0.617348 -0.728251 0.297545
vn -0.617348 -0.728251 0.297545
vn -0.617348 -0.728251 0.297545
vn 0.062988 -0.927428 0.368660
vn 0.062988 -0.927428 0.368660
vn 0.160485 -0.983968 0.077785
vn 0.160485 -0.983968 0.077785
vn -0.545687 -0.649957 -0.528944
vn -0.545688 -0.649957 -0.528944
vn -0.545687 -0.649957 -0.528944
vn -0.545688 -0.649957 -0.528944
vn -0.718035 0.000000 -0.696007
vn -0.718035 0.000000 -0.696007
vn -0.718035 0.000000 -0.696007
vn -0.718035 0.000000 -0.696007
vn -0.583253 0.583249 -0.565364
vn -0.583253 0.583249 -0.565364
vn -0.583253 0.583249 -0.565364
vn -0.583253 0.583249 -0.565364
vn -0.160487 0.983968 -0.077783
vn -0.160487 0.983968 -0.077783
vn -0.063637 0.980977 0.183398
vn -0.063637 0.980977 0.183398
vn -0.761232 0.575319 0.299221
vn -0.761232 0.575319 0.299221
vn -0.761232 0.575319 0.299221
vn -0.761232 0.575319 0.299221
vn -0.969547 -0.172874 0.173474
vn -0.969547 -0.172874 0.173474
vn -0.969547 -0.172874 0.173474
vn -0.969547 -0.172874 0.173474
vn -0.569665 -0.727120 0.383116
vn -0.569665 -0.727120 0.383116
vn -0.569665 -0.727120 0.383116
vn -0.569665 -0.727120 0.383116
vn -0.078048 -0.901458 0.425772
vn -0.078048 -0.901458 0.425772
vn -0.021765 -0.926547 -0.375549
vn -0.021765 -0.926547 -0.375549
vn -0.593950 -0.733863 -0.329651
vn -0.593950 -0.733863 -0.329651
vn -0.593950 -0.733862 -0.329650
vn -0.593950 -0.733863 -0.329651
vn -0.968478 -0.240926 0.063288
vn -0.968478 -0.240926 0.063288
vn -0.968478 -0.240926 0.063288
vn -0.968478 -0.240926 0.063288
vn -0.664574 0.701537 -0.257268
vn -0.664574 0.701537 -0.257268
vn -0.664574 0.701537 -0.257268
vn -0.664574 0.701537 -0.257268
vn -0.049450 0.988123 -0.145488
vn -0.049450 0.988124 -0.145488
vn -0.906899 -0.171246 0.384979
vn -0.906899 -0.171246 0.384979
vn -0.906899 -0.171246 0.384979
vn -0.906899 -0.171246 0.384979
vn -0.830052 -0.556980 0.028057
vn -0.830052 -0.556980 0.028057
vn -0.830052 -0.556979 0.028057
vn -0.830052 -0.556980 0.028057
vn -0.910944 -0.266181 -0.315166
vn -0.910944 -0.266181 -0.315165
vn -0.910944 -0.266181 -0.315166
vn -0.910944 -0.266181 -0.315166
vn -0.442979 0.896332 0.018938
vn -0.442979 0.896332 0.018938
vn -0.442979 0.896332 0.018938
vn -0.442979 0.896332 0.018938
vn -0.924295 -0.152487 0.349896
vn -0.924295 -0.152487 0.349896
vn -0.924295 -0.152487 0.349896
vn -0.924295 -0.152487 0.349896
vn -0.924295 -0.152487 0.349896
vn -0.947037 -0.319524 0.032011
vn -0.947037 -0.319524 0.032011
vn -0.947037 -0.319524 0.032011
vn -0.947037 -0.319524 0.032011
vn -0.930990 -0.231023 -0.282641
vn -0.930990 -0.231023 -0.282641
vn -0.930990 -0.231023 -0.282641
vn -0.930990 -0.231023 -0.282641
vn -0.842657 0.537244 0.036024
vn -0.842657 0.537244 0.036024
vn -0.842657 0.537244 0.036024
vn -0.842657 0.537244 0.036024
vn 0.975657 -0.035379 -0.216429
vn 0.975657 -0.035379 -0.216429
vn 0.975657 -0.035379 -0.216429
vn 0.975657 -0.035379 -0.216429
vn 0.000000 -1.000000 -0.000000
vn 0.000000 -1.000000 -0.000000
vn 0.000000 -1.000000 -0.000000
vn 0.000000 -1.000000 -0.000000
vn 0.968491 0.235080 0.082233
vn 0.968491 0.235080 0.082233
vn 0.968491 0.235080 0.082233
vn 0.968491 0.235080 0.082233
vn 0.968491 0.235080 0.082233
vn -0.423035 0.904886 0.047149
vn -0.423035 0.904886 0.047149
vn -0.423035 0.904886 0.047149
vn -0.423035 0.904886 0.047149
vn 0.880151 0.435936 -0.187866
vn 0.880151 0.435936 -0.187866
vn 0.880151 0.435936 -0.187866
vn 0.880151 0.435936 -0.187866
vn -0.039499 0.997002 0.066539
vn -0.039499 0.997002 0.066539
vn -0.039499 0.997002 0.066539
vn -0.039499 0.997002 0.066539
vn -0.049423 0.982432 -0.179955
vn -0.049423 0.982432 -0.179955
vn -0.049423 0.982432 -0.179955
vn -0.049423 0.982432 -0.179955
vn -0.055712 -0.998445 0.001883
vn -0.055712 -0.998445 0.001883
vn -0.055712 -0.998445 0.001883
vn -0.055712 -0.998445 0.001883
vn -0.067306 -0.983527 0.167764
vn -0.067306 -0.983527 0.167764
vn -0.067306 -0.983527 0.167764
vn -0.067306 -0.983527 0.167764
vn -0.052631 0.988973 0.138429
vn -0.052631 0.988973 0.138429
vn -0.052631 0.988973 0.138429
vn -0.052631 0.988973 0.138429
vn -0.164765 -0.974140 -0.154611
vn -0.164765 -0.974140 -0.154611
vn -0.164765 -0.974140 -0.154611
vn -0.050698 -0.989079 -0.138392
vn -0.050698 -0.989079 -0.138392
vn -0.050698 -0.989079 -0.138392
vn -0.050698 -0.989079 -0.138392
vn -0.344258 0.937904 0.042691
vn -0.344258 0.937904 0.042691
vn -0.344258 0.937904 0.042691
vn -0.344258 0.937904 0.042691
vn -0.197014 -0.980388 0.005052
vn -0.197014 -0.980388 0.005052
vn -0.197014 -0.980388 0.005052
vn -0.197014 -0.980388 0.005052
vn -0.251307 0.875757 0.412182
vn -0.251307 0.875757 0.412182
vn -0.251307 0.875757 0.412182
vn -0.239305 -0.888076 0.392497
vn -0.239305 -0.888076 0.392497
vn -0.239305 -0.888076 0.392497
vn -0.792329 -0.025360 0.609567
vn -0.792329 -0.025360 0.609567
vn -0.792329 -0.025360 0.609567
vn -0.792329 -0.025360 0.609567
vn -0.596559 -0.724988 -0.344254
vn -0.596559 -0.724988 -0.344254
vn -0.596559 -0.724988 -0.344254
vn -0.596559 -0.724988 -0.344254
vn -0.875933 0.000000 -0.482432
vn -0.875933 0.000000 -0.482432
vn -0.875933 0.000000 -0.482432
vn -0.875933 0.000000 -0.482432
vn -0.244174 0.948722 -0.200761
vn -0.244174 0.948722 -0.200761
vn -0.244174 0.948722 -0.200761
vn -0.244174 0.948722 -0.200761
vn -0.939063 -0.264655 -0.219360
vn -0.939063 -0.264655 -0.219360
vn -0.939063 -0.264655 -0.219360
vn -0.939063 -0.264655 -0.219360
vn -0.924773 -0.290241 -0.246078
vn -0.924773 -0.290241 -0.246078
vn -0.924773 -0.290241 -0.246078
vn -0.924773 -0.290241 -0.246078
vn -0.965206 0.000000 -0.261489
vn -0.965206 0.000000 -0.261489
vn -0.965206 0.000000 -0.261489
vn -0.965206 0.000000 -0.261489
vn -0.946780 -0.166881 -0.275241
vn -0.946781 -0.166881 -0.275241
vn -0.946781 -0.166881 -0.275241
vn -0.946780 -0.166881 -0.275241
vn 0.300963 -0.280804 0.911356
vn 0.300963 -0.280804 0.911356
vn 0.300963 -0.280804 0.911356
vn 0.300962 -0.280804 0.911356
vn -0.127132 -0.990850 -0.045317
vn -0.127132 -0.990850 -0.045317
vn -0.127132 -0.990850 -0.045317
vn -0.127132 -0.990850 -0.045317
vn 0.000000 0.000000 -1.000000
vn 0.000000 0.000000 -1.000000
vn 0.000000 0.000000 -1.000000
vn 0.000000 0.000000 -1.000000
vn -0.170885 0.977842 -0.120930
vn -0.170885 0.977842 -0.120930
vn -0.170885 0.977842 -0.120930
vn -0.170885 0.977842 -0.120930
s 1
g pCube12
usemtl initialShadingGroup
f 343/443/565 344/444/566 325/421/567 329/426/568
s 2
f 367/471/569 368/472/570 357/459/571 358/460/572
s 3
f 328/425/573 339/438/574 340/439/575 332/430/576
s 4
f 361/464/577 362/465/578 363/466/579 364/467/580
s off
f 342/442/581 343/443/582 329/426/583
f 332/430/584 340/439/585 341/440/586
f 364/467/587 365/468/588 360/463/589 361/464/590
s 5
f 334/432/591 333/431/592 327/424/593 331/429/594
s off
f 335/433/595 334/432/596 331/429/597
s 6
f 326/423/598 338/437/599 337/436/600 330/428/601
s off
f 330/428/602 337/436/603 336/435/604
f 358/460/605 359/462/606 366/470/607 367/471/608
s 7
f 340/439/609 339/438/610 333/431/611 334/432/612
s off
f 341/440/613 340/439/614 334/432/615 335/433/616
f 380/484/617 390/494/618 388/492/619
f 336/435/620 337/436/621 343/443/622 342/442/623
s 8
f 337/436/624 338/437/625 344/444/626 343/443/627
s 9
f 346/446/628 345/445/629 326/423/630 330/428/631
s off
f 336/435/632 347/448/633 346/446/634 330/428/635
f 342/442/636 348/449/637 347/447/638 336/435/639
f 349/450/640 348/449/641 342/442/642 329/427/643
s 10
f 325/422/644 350/451/645 349/450/646 329/427/647
s 11
f 352/453/648 351/452/649 328/425/650 332/430/651
s off
f 341/441/652 353/454/653 352/453/654 332/430/655
f 354/455/656 353/454/657 341/441/658 335/434/659
f 355/457/660 354/456/661 335/433/662 331/429/663
s 12
f 327/424/664 356/458/665 355/457/666 331/429/667
s 13
f 358/460/668 357/459/669 345/445/670 346/446/671
s off
f 346/446/672 347/448/673 359/462/674 358/460/675
f 347/447/676 348/449/677 360/463/678 359/461/679
f 361/464/680 360/463/681 348/449/682 349/450/683
s 14
f 349/450/684 350/451/685 362/465/686 361/464/687
s 15
f 364/467/688 363/466/689 351/452/690 352/453/691
s off
f 352/453/692 353/454/693 365/468/694 364/467/695
f 401/504/696 400/505/697 402/506/698 403/507/699
f 367/471/700 366/470/701 354/456/702 355/457/703
s 16
f 355/457/704 356/458/705 368/472/706 367/471/707
s off
f 359/461/708 360/463/709 370/474/710 369/473/711
f 360/463/712 365/468/713 371/475/714 370/474/715
f 365/468/716 366/469/717 372/476/718 371/475/719
f 366/469/720 359/461/721 369/473/722 372/476/723
f 369/473/724 370/474/725 374/478/726 382/486/727 373/477/728
f 370/474/729 371/475/730 375/479/731 374/478/732
f 371/475/733 372/476/734 376/480/735 375/479/736
f 372/476/737 369/473/738 373/477/739 376/480/740
f 386/490/741 387/491/742 382/486/743 374/478/744
f 374/478/745 375/479/746 385/489/747 386/490/748
f 375/479/749 376/480/750 384/488/751 389/493/752 385/489/753
f 376/480/754 373/477/755 383/487/756 384/488/757
f 373/477/758 382/486/759 387/491/760 383/487/761
f 384/488/762 383/487/763 377/481/764 380/484/765
f 388/492/766 389/493/767 384/488/768 380/484/769
f 386/490/770 385/489/771 379/483/772 378/482/773
f 381/485/774 387/491/775 386/490/776 378/482/777
f 383/487/778 387/491/779 381/485/780 377/481/781
f 388/492/782 390/494/783 379/483/784
f 385/489/785 389/493/786 388/492/787 379/483/788
f 377/481/789 391/495/790 390/494/791 380/484/792
f 379/483/793 390/494/794 391/495/795 378/482/796
f 377/481/797 381/485/798 391/495/799
f 378/482/800 391/495/801 381/485/802
f 366/469/803 365/468/804 392/497/805 393/496/806
f 365/468/807 353/454/808 394/498/809 392/497/810
f 353/454/811 354/455/812 395/499/813 394/498/814
f 354/455/815 366/469/816 393/496/817 395/499/818
f 393/496/819 392/497/820 396/501/821 397/500/822
f 392/497/823 394/498/824 398/502/825 396/501/826
f 394/498/827 395/499/828 399/503/829 398/502/830
f 395/499/831 393/496/832 397/500/833 399/503/834
f 397/500/835 396/501/836 400/505/837 401/504/838
f 396/501/839 398/502/840 402/506/841 400/505/842
f 398/502/843 399/503/844 403/507/845 402/506/846
f 399/503/847 397/500/848 401/504/849 403/507/850
s 1
f 415/508/851 404/511/852 325/510/567 344/509/566
s 2
f 431/512/853 424/515/854 357/514/571 368/513/570
s 3
f 328/516/573 407/519/855 412/518/856 339/517/574
s 4
f 427/520/857 428/523/858 363/522/579 362/521/578
s off
f 414/524/859 404/511/860 415/508/861
f 407/519/862 413/525/863 412/518/864
f 428/523/865 427/520/866 426/527/867 429/526/868
s 5
f 408/528/869 406/531/870 327/530/593 333/529/592
s off
f 409/532/871 406/531/872 408/528/873
s 6
f 326/533/598 405/536/874 411/535/875 338/534/599
s off
f 405/536/876 410/537/877 411/535/878
f 424/515/879 431/512/880 430/539/881 425/538/882
s 7
f 412/518/883 408/528/884 333/529/611 339/517/610
s off
f 413/525/885 409/532/886 408/528/887 412/518/888
f 443/540/889 451/542/890 453/541/891
f 410/537/892 414/524/893 415/508/894 411/535/895
s 8
f 411/535/896 415/508/897 344/509/626 338/534/625
s 9
f 416/543/898 405/536/899 326/533/630 345/544/629
s off
f 410/537/900 405/536/901 416/543/902 417/545/903
f 414/524/904 410/537/905 417/547/906 418/546/907
f 419/548/908 404/549/909 414/524/910 418/546/911
s 10
f 325/550/644 404/549/912 419/548/913 350/551/645
s 11
f 420/552/914 407/519/915 328/516/650 351/553/649
s off
f 413/554/916 407/519/917 420/552/918 421/555/919
f 422/556/920 409/557/921 413/554/922 421/555/923
f 423/558/924 406/531/925 409/532/926 422/559/927
s 12
f 327/530/664 406/531/928 423/558/929 356/560/665
s 13
f 424/515/930 416/543/931 345/544/670 357/514/669
s off
f 416/543/932 424/515/933 425/538/934 417/545/935
f 417/547/936 425/561/937 426/527/938 418/546/939
f 427/520/940 419/548/941 418/546/942 426/527/943
s 14
f 419/548/944 427/520/945 362/521/686 350/551/685
s 15
f 428/523/946 420/552/947 351/553/690 363/522/689
s off
f 420/552/948 428/523/949 429/526/950 421/555/951
f 464/562/952 466/565/953 465/564/954 463/563/955
f 431/512/956 423/558/957 422/559/958 430/539/959
s 16
f 423/558/960 431/512/961 368/513/706 356/560/705
s off
f 425/561/962 432/567/963 433/566/964 426/527/965
f 426/527/966 433/566/967 434/568/968 429/526/969
f 429/526/970 434/568/971 435/570/972 430/569/973
f 430/569/974 435/570/975 432/567/976 425/561/977
f 432/567/978 436/573/979 445/572/980 437/571/981 433/566/982
f 433/566/983 437/571/984 438/574/985 434/568/986
f 434/568/987 438/574/988 439/575/989 435/570/990
f 435/570/991 439/575/992 436/573/993 432/567/994
f 449/576/995 437/571/996 445/572/997 450/577/998
f 437/571/999 449/576/1000 448/578/1001 438/574/1002
f 438/574/1003 448/578/1004 452/580/1005 447/579/1006 439/575/1007
f 439/575/1008 447/579/1009 446/581/1010 436/573/1011
f 436/573/1012 446/581/1013 450/577/1014 445/572/1015
f 447/579/1016 443/540/1017 440/582/1018 446/581/1019
f 451/542/1020 443/540/1021 447/579/1022 452/580/1023
f 449/576/1024 441/584/1025 442/583/1026 448/578/1027
f 444/585/1028 441/584/1029 449/576/1030 450/577/1031
f 446/581/1032 440/582/1033 444/585/1034 450/577/1035
f 451/542/1036 442/583/1037 453/541/1038
f 448/578/1039 442/583/1040 451/542/1041 452/580/1042
f 440/582/1043 443/540/1044 453/541/1045 454/586/1046
f 442/583/1047 441/584/1048 454/586/1049 453/541/1050
f 440/582/1051 454/586/1052 444/585/1053
f 441/584/1054 444/585/1055 454/586/1056
f 430/569/1057 456/588/1058 455/587/1059 429/526/1060
f 429/526/1061 455/587/1062 457/589/1063 421/555/1064
f 421/555/1065 457/589/1066 458/590/1067 422/556/1068
f 422/556/1069 458/590/1070 456/588/1071 430/569/1072
f 456/588/1073 460/592/1074 459/591/1075 455/587/1076
f 455/587/1077 459/591/1078 461/593/1079 457/589/1080
f 457/589/1081 461/593/1082 462/594/1083 458/590/1084
f 458/590/1085 462/594/1086 460/592/1087 456/588/1088
f 460/592/1089 464/562/1090 463/563/1091 459/591/1092
f 459/591/1093 463/563/1094 465/564/1095 461/593/1096
f 461/593/1097 465/564/1098 466/565/1099 462/594/1100
f 462/594/1101 466/565/1102 464/562/1103 460/592/1104
